{
.appVersion = "1286";
classes = (
{

glyphs = (
{
glyphname = A;
lastChange = "2020-04-05 21:58:07 +0000";
layers = (
{
anchors = (
{
name = bottom;
position = "{598, 0}";
},
{
name = ogonek;
position = "{1086, 0}";
},
{
name = top;
position = "{600, 1386}";
},
{
name = topleft;
position = "{361, 1386}";
}
);
layerId = "4B7A3BAF-EAD8-4024-9BEA-BB1DE86CFCFA";
paths = (
{
closed = 1;
nodes = (
"873 0 LINE",
"1224 0 LINE",
"800 1386 LINE",
"402 1386 LINE",
"-22 0 LINE",
"321 0 LINE",
"394 299 LINE",
"800 299 LINE"
);
},
{
closed = 1;
nodes = (
"596 1150 LINE",
"746 537 LINE",
"446 537 LINE"
);
}
);
width = 1200;
},
{
anchors = (
{
name = bottom;
position = "{595, 0}";
},
{
name = ogonek;
position = "{1100, 0}";
},
{
name = top;
position = "{600, 1374}";
},
{
name = topleft;
position = "{406, 1374}";
}
);
layerId = "B67F0F2D-EC95-4CB8-966E-23AE86958A69";
paths = (
{
closed = 1;
nodes = (
"1008 0 LINE",
"1140 0 LINE",
"684 1374 LINE",
"515 1374 LINE",
"60 0 LINE",
"180 0 LINE",
"301 367 LINE",
"887 367 LINE"
);
},
{
closed = 1;
nodes = (
"596 1255 LINE",
"845 483 LINE",
"344 483 LINE"
);
}
);
width = 1200;
}
);
unicode = 0041;
},
{
glyphname = AE;
lastChange = "2020-04-05 21:58:07 +0000";
layers = (
{
anchors = (
{
name = bottom;
position = "{600, 0}";
},
{
name = top;
position = "{701, 1386}";
}
);
layerId = "4B7A3BAF-EAD8-4024-9BEA-BB1DE86CFCFA";
paths = (
{
closed = 1;
nodes = (
"676 0 LINE",
"1206 0 LINE",
"1206 222 LINE",
"909 222 LINE",
"838 591 LINE",
"1112 591 LINE",
"1112 813 LINE",
"798 813 LINE",
"732 1164 LINE",
"1096 1164 LINE",
"1130 1386 LINE",
"325 1386 LINE",
"-24 0 LINE",
"290 0 LINE",
"345 305 LINE",
"627 305 LINE"
);
},
{
closed = 1;
nodes = (
"490 1166 LINE",
"593 529 LINE",
"382 529 LINE"
);
}
);
width = 1200;
},
{
anchors = (
{
name = bottom;
position = "{600, 0}";
},
{
name = top;
position = "{729, 1374}";
}
);
layerId = "B67F0F2D-EC95-4CB8-966E-23AE86958A69";
paths = (
{
closed = 1;
nodes = (
"749 0 LINE",
"1218 0 LINE",
"1218 117 LINE",
"861 117 LINE",
"748 639 LINE",
"1115 639 LINE",
"1115 756 LINE",
"725 756 LINE",
"613 1257 LINE",
"1116 1257 LINE",
"1133 1374 LINE",
"396 1374 LINE",
"-24 0 LINE",
"112 0 LINE",
"224 365 LINE",
"669 365 LINE"
);
},
{
closed = 1;
nodes = (
"478 1262 LINE",
"638 487 LINE",
"272 487 LINE"
);
}
);
width = 1200;
}
);
unicode = 00C6;
},
{
glyphname = B;
lastChange = "2020-04-05 21:58:07 +0000";
layers = (
{
anchors = (
{
name = bottom;
position = "{600, 0}";
},
{
name = top;
position = "{600, 1386}";
}
);
layerId = "4B7A3BAF-EAD8-4024-9BEA-BB1DE86CFCFA";
paths = (
{
closed = 1;
nodes = (
"804 268 OFFCURVE",
"689 239 OFFCURVE",
"561 239 CURVE SMOOTH",
"440 239 LINE",
"440 613 LINE",
"575 613 LINE SMOOTH",
"713 613 OFFCURVE",
"804 565 OFFCURVE",
"804 419 CURVE SMOOTH"
);
},
{
closed = 1;
nodes = (
"752 881 OFFCURVE",
"692 833 OFFCURVE",
"551 833 CURVE SMOOTH",
"440 833 LINE",
"440 1154 LINE",
"541 1154 LINE SMOOTH",
"685 1154 OFFCURVE",
"752 1108 OFFCURVE",
"752 999 CURVE SMOOTH"
);
},
{
closed = 1;
nodes = (
"1142 628 OFFCURVE",
"976 710 OFFCURVE",
"828 734 CURVE",
"964 768 OFFCURVE",
"1082 866 OFFCURVE",
"1082 1032 CURVE SMOOTH",
"1082 1302 OFFCURVE",
"836 1386 OFFCURVE",
"551 1386 CURVE SMOOTH",
"112 1386 LINE",
"112 0 LINE",
"572 0 LINE SMOOTH",
"872 0 OFFCURVE",
"1142 86 OFFCURVE",
"1142 406 CURVE SMOOTH"
);
}
);
width = 1200;
},
{
anchors = (
{
name = bottom;
position = "{600, 0}";
},
{
name = top;
position = "{600, 1374}";
}
);
layerId = "B67F0F2D-EC95-4CB8-966E-23AE86958A69";
paths = (
{
closed = 1;
nodes = (
"923 158 OFFCURVE",
"740 115 OFFCURVE",
"603 115 CURVE SMOOTH",
"344 115 LINE",
"344 658 LINE",
"609 658 LINE SMOOTH",
"775 658 OFFCURVE",
"923 604 OFFCURVE",
"923 377 CURVE SMOOTH"
);
},
{
closed = 1;
nodes = (
"868 853 OFFCURVE",
"768 779 OFFCURVE",
"599 779 CURVE SMOOTH",
"344 779 LINE",
"344 1262 LINE",
"580 1262 LINE SMOOTH",
"753 1262 OFFCURVE",
"868 1198 OFFCURVE",
"868 1027 CURVE SMOOTH"
);
},
{
closed = 1;
nodes = (
"1060 625 OFFCURVE",
"897 701 OFFCURVE",
"744 728 CURVE",
"874 756 OFFCURVE",
"1000 849 OFFCURVE",
"1000 1029 CURVE SMOOTH",
"1000 1299 OFFCURVE",
"754 1374 OFFCURVE",
"526 1374 CURVE SMOOTH",
"217 1374 LINE",
"217 0 LINE",
"560 0 LINE SMOOTH",
"799 0 OFFCURVE",
"1060 95 OFFCURVE",
"1060 389 CURVE SMOOTH"
);
}
);
width = 1200;
}
);
unicode = 0042;
},
{
glyphname = C;
lastChange = "2020-04-05 21:58:07 +0000";
layers = (
{
anchors = (
{
name = bottom;
position = "{704, 0}";
},
{
name = top;
position = "{722, 1386}";
}
);
layerId = "4B7A3BAF-EAD8-4024-9BEA-BB1DE86CFCFA";
paths = (
{
closed = 1;
nodes = (
"349 1421 OFFCURVE",
"68 1160 OFFCURVE",
"68 696 CURVE SMOOTH",
"68 220 OFFCURVE",
"335 -34 OFFCURVE",
"712 -34 CURVE SMOOTH",
"926 -34 OFFCURVE",
"1075 50 OFFCURVE",
"1179 153 CURVE",
"1030 343 LINE",
"953 281 OFFCURVE",
"868 219 OFFCURVE",
"730 219 CURVE SMOOTH",
"541 219 OFFCURVE",
"407 362 OFFCURVE",
"407 696 CURVE SMOOTH",
"407 1036 OFFCURVE",
"549 1178 OFFCURVE",
"724 1178 CURVE SMOOTH",
"832 1178 OFFCURVE",
"924 1138 OFFCURVE",
"1000 1076 CURVE",
"1161 1270 LINE",
"1045 1366 OFFCURVE",
"915 1421 OFFCURVE",
"716 1421 CURVE SMOOTH"
);
}
);
width = 1200;
},
{
anchors = (
{
name = bottom;
position = "{698, 0}";
},
{
name = top;
position = "{734, 1374}";
}
);
layerId = "B67F0F2D-EC95-4CB8-966E-23AE86958A69";
paths = (
{
closed = 1;
nodes = (
"411 1393 OFFCURVE",
"144 1151 OFFCURVE",
"144 687 CURVE SMOOTH",
"144 229 OFFCURVE",
"403 -20 OFFCURVE",
"726 -20 CURVE SMOOTH",
"917 -20 OFFCURVE",
"1044 44 OFFCURVE",
"1122 119 CURVE",
"1050 211 LINE",
"978 151 OFFCURVE",
"882 98 OFFCURVE",
"724 98 CURVE SMOOTH",
"476 98 OFFCURVE",
"277 254 OFFCURVE",
"277 687 CURVE SMOOTH",
"277 1132 OFFCURVE",
"489 1277 OFFCURVE",
"730 1277 CURVE SMOOTH",
"835 1277 OFFCURVE",
"933 1251 OFFCURVE",
"1023 1175 CURVE",
"1101 1264 LINE",
"994 1349 OFFCURVE",
"890 1393 OFFCURVE",
"716 1393 CURVE SMOOTH"
);
}
);
width = 1200;
}
);
unicode = 0043;
},
{
glyphname = D;
lastChange = "2020-04-05 21:58:07 +0000";
layers = (
{
anchors = (
{
name = bottom;
position = "{600, 0}";
},
{
name = center;
position = "{600, 694}";
},
{
name = top;
position = "{574, 1386}";
}
);
layerId = "4B7A3BAF-EAD8-4024-9BEA-BB1DE86CFCFA";
paths = (
{
closed = 1;
nodes = (
"809 335 OFFCURVE",
"684 237 OFFCURVE",
"502 237 CURVE SMOOTH",
"432 237 LINE",
"432 1148 LINE",
"502 1148 LINE SMOOTH",
"676 1148 OFFCURVE",
"809 1073 OFFCURVE",
"809 700 CURVE SMOOTH"
);
},
{
closed = 1;
nodes = (
"1149 1272 OFFCURVE",
"809 1386 OFFCURVE",
"454 1386 CURVE SMOOTH",
"104 1386 LINE",
"104 0 LINE",
"478 0 LINE SMOOTH",
"823 0 OFFCURVE",
"1149 136 OFFCURVE",
"1149 700 CURVE SMOOTH"
);
}
);
width = 1200;
},
{
anchors = (
{
name = bottom;
position = "{600, 0}";
},
{
name = center;
position = "{600, 688}";
},
{
name = top;
position = "{565, 1374}";
}
);
layerId = "B67F0F2D-EC95-4CB8-966E-23AE86958A69";
paths = (
{
closed = 1;
nodes = (
"953 211 OFFCURVE",
"707 110 OFFCURVE",
"505 110 CURVE SMOOTH",
"313 110 LINE",
"313 1261 LINE",
"502 1261 LINE SMOOTH",
"696 1261 OFFCURVE",
"953 1205 OFFCURVE",
"953 694 CURVE SMOOTH"
);
},
{
closed = 1;
nodes = (
"1092 1266 OFFCURVE",
"775 1374 OFFCURVE",
"463 1374 CURVE SMOOTH",
"186 1374 LINE",
"186 0 LINE",
"484 0 LINE SMOOTH",
"752 0 OFFCURVE",
"1092 113 OFFCURVE",
"1092 694 CURVE SMOOTH"
);
}
);
width = 1200;
}
);
unicode = 0044;
},
{
glyphname = Eth;
lastChange = "2020-04-05 21:58:07 +0000";
layers = (
{
components = (
{
alignment = -1;
name = D;
transform = "{1, 0, 0, 1, 26, 0}";
}
);
layerId = "4B7A3BAF-EAD8-4024-9BEA-BB1DE86CFCFA";
paths = (
{
closed = 1;
nodes = (
"19 805 LINE",
"19 607 LINE",
"697 607 LINE",
"697 805 LINE"
);
}
);
width = 1200;
},
{
components = (
{
alignment = -1;
name = D;
transform = "{1, 0, 0, 1, 17, 0}";
}
);
layerId = "B67F0F2D-EC95-4CB8-966E-23AE86958A69";
paths = (
{
closed = 1;
nodes = (
"47 763 LINE",
"47 649 LINE",
"669 649 LINE",
"669 763 LINE"
);
}
);
width = 1200;
}
);
unicode = 00D0;
},
{
glyphname = E;
lastChange = "2020-04-05 21:58:07 +0000";
layers = (
{
anchors = (
{
name = bottom;
position = "{640, 0}";
},
{
name = ogonek;
position = "{954, 0}";
},
{
name = top;
position = "{640, 1386}";
},
{
name = topleft;
position = "{166, 1386}";
}
);
layerId = "4B7A3BAF-EAD8-4024-9BEA-BB1DE86CFCFA";
paths = (
{
closed = 1;
nodes = (
"1059 1152 LINE",
"1092 1386 LINE",
"186 1386 LINE",
"186 0 LINE",
"1093 0 LINE",
"1093 235 LINE",
"514 235 LINE",
"514 589 LINE",
"994 589 LINE",
"994 819 LINE",
"514 819 LINE",
"514 1152 LINE"
);
}
);
width = 1200;
},
{
anchors = (
{
name = bottom;
position = "{654, 0}";
},
{
name = ogonek;
position = "{957, 0}";
},
{
name = top;
position = "{643, 1374}";
},
{
name = topleft;
position = "{250, 1374}";
}
);
layerId = "B67F0F2D-EC95-4CB8-966E-23AE86958A69";
paths = (
{
closed = 1;
nodes = (
"999 1260 LINE",
"1016 1374 LINE",
"270 1374 LINE",
"270 0 LINE",
"1039 0 LINE",
"1039 111 LINE",
"398 111 LINE",
"398 640 LINE",
"918 640 LINE",
"918 757 LINE",
"398 757 LINE",
"398 1260 LINE"
);
}
);
width = 1200;
}
);
unicode = 0045;
},
{
glyphname = F;
lastChange = "2020-04-05 21:58:07 +0000";
layers = (
{
anchors = (
{
name = bottom;
position = "{600, 0}";
},
{
name = top;
position = "{600, 1386}";
}
);
layerId = "4B7A3BAF-EAD8-4024-9BEA-BB1DE86CFCFA";
paths = (
{
closed = 1;
nodes = (
"1093 1152 LINE",
"1127 1386 LINE",
"216 1386 LINE",
"216 0 LINE",
"545 0 LINE",
"545 550 LINE",
"1031 550 LINE",
"1031 785 LINE",
"545 785 LINE",
"545 1152 LINE"
);
}
);
width = 1200;
},
{
anchors = (
{
name = bottom;
position = "{600, 0}";
},
{
name = top;
position = "{600, 1374}";
}
);
layerId = "B67F0F2D-EC95-4CB8-966E-23AE86958A69";
paths = (
{
closed = 1;
nodes = (
"1059 1260 LINE",
"1076 1374 LINE",
"295 1374 LINE",
"295 0 LINE",
"421 0 LINE",
"421 632 LINE",
"977 632 LINE",
"977 743 LINE",
"421 743 LINE",
"421 1260 LINE"
);
}
);
width = 1200;
}
);
unicode = 0046;
},
{
glyphname = G;
lastChange = "2020-04-05 21:58:07 +0000";
layers = (
{
anchors = (
{
name = bottom;
position = "{654, 0}";
},
{
name = top;
position = "{660, 1386}";
}
);
layerId = "4B7A3BAF-EAD8-4024-9BEA-BB1DE86CFCFA";
paths = (
{
closed = 1;
nodes = (
"840 -34 OFFCURVE",
"997 20 OFFCURVE",
"1136 106 CURVE",
"1136 795 LINE",
"620 795 LINE",
"652 565 LINE",
"826 565 LINE",
"826 248 LINE",
"777 222 OFFCURVE",
"719 206 OFFCURVE",
"654 206 CURVE SMOOTH",
"470 206 OFFCURVE",
"383 331 OFFCURVE",
"383 694 CURVE SMOOTH",
"383 1042 OFFCURVE",
"519 1182 OFFCURVE",
"705 1182 CURVE SMOOTH",
"803 1182 OFFCURVE",
"874 1146 OFFCURVE",
"958 1072 CURVE",
"1130 1250 LINE",
"1022 1352 OFFCURVE",
"891 1421 OFFCURVE",
"689 1421 CURVE SMOOTH",
"329 1421 OFFCURVE",
"45 1168 OFFCURVE",
"45 696 CURVE SMOOTH",
"45 220 OFFCURVE",
"257 -34 OFFCURVE",
"651 -34 CURVE SMOOTH"
);
}
);
width = 1200;
},
{
anchors = (
{
name = bottom;
position = "{663, 0}";
},
{
name = top;
position = "{660, 1374}";
}
);
layerId = "B67F0F2D-EC95-4CB8-966E-23AE86958A69";
paths = (
{
closed = 1;
nodes = (
"817 -20 OFFCURVE",
"940 32 OFFCURVE",
"1060 94 CURVE",
"1060 741 LINE",
"611 741 LINE",
"629 622 LINE",
"928 622 LINE",
"928 172 LINE",
"839 123 OFFCURVE",
"744 98 OFFCURVE",
"640 98 CURVE SMOOTH",
"383 98 OFFCURVE",
"245 277 OFFCURVE",
"245 688 CURVE SMOOTH",
"245 1135 OFFCURVE",
"454 1275 OFFCURVE",
"657 1275 CURVE SMOOTH",
"775 1275 OFFCURVE",
"871 1239 OFFCURVE",
"955 1159 CURVE",
"1040 1247 LINE",
"932 1346 OFFCURVE",
"834 1393 OFFCURVE",
"661 1393 CURVE SMOOTH",
"383 1393 OFFCURVE",
"105 1162 OFFCURVE",
"105 687 CURVE SMOOTH",
"105 211 OFFCURVE",
"314 -20 OFFCURVE",
"620 -20 CURVE SMOOTH"
);
}
);
width = 1200;
}
);
unicode = 0047;
},
{
glyphname = H;
lastChange = "2020-04-05 21:58:07 +0000";
layers = (
{
anchors = (
{
name = bottom;
position = "{600, 0}";
},
{
name = bottomright;
position = "{1116, 0}";
},
{
name = center;
position = "{600, 694}";
},
{
name = top;
position = "{600, 1386}";
},
{
name = topleft;
position = "{84, 1386}";
}
);
layerId = "4B7A3BAF-EAD8-4024-9BEA-BB1DE86CFCFA";
paths = (
{
closed = 1;
nodes = (
"1096 0 LINE",
"1096 1386 LINE",
"768 1386 LINE",
"768 854 LINE",
"432 854 LINE",
"432 1386 LINE",
"104 1386 LINE",
"104 0 LINE",
"432 0 LINE",
"432 584 LINE",
"768 584 LINE",
"768 0 LINE"
);
}
);
width = 1200;
},
{
anchors = (
{
name = bottom;
position = "{600, 0}";
},
{
name = bottomright;
position = "{1034, 0}";
},
{
name = center;
position = "{600, 688}";
},
{
name = top;
position = "{600, 1374}";
},
{
name = topleft;
position = "{166, 1374}";
}
);
layerId = "B67F0F2D-EC95-4CB8-966E-23AE86958A69";
paths = (
{
closed = 1;
nodes = (
"1014 0 LINE",
"1014 1374 LINE",
"887 1374 LINE",
"887 778 LINE",
"313 778 LINE",
"313 1374 LINE",
"186 1374 LINE",
"186 0 LINE",
"313 0 LINE",
"313 674 LINE",
"887 674 LINE",
"887 0 LINE"
);
}
);
width = 1200;
}
);
unicode = 0048;
},
{
glyphname = Hbar;
lastChange = "2020-04-05 21:58:07 +0000";
layers = (
{
layerId = "4B7A3BAF-EAD8-4024-9BEA-BB1DE86CFCFA";
paths = (
{
closed = 1;
nodes = (
"759 1386 LINE",
"759 849 LINE",
"441 849 LINE",
"441 1386 LINE",
"113 1386 LINE",
"113 0 LINE",
"441 0 LINE",
"441 594 LINE",
"759 594 LINE",
"759 0 LINE",
"1087 0 LINE",
"1087 1386 LINE"
);
},
{
closed = 1;
nodes = (
"4 1183 LINE",
"4 1000 LINE",
"1196 1000 LINE",
"1196 1183 LINE"
);
}
);
width = 1200;
},
{
layerId = "B67F0F2D-EC95-4CB8-966E-23AE86958A69";
paths = (
{
closed = 1;
nodes = (
"891 1374 LINE",
"891 781 LINE",
"309 781 LINE",
"309 1374 LINE",
"181 1374 LINE",
"181 0 LINE",
"309 0 LINE",
"309 670 LINE",
"891 670 LINE",
"891 0 LINE",
"1019 0 LINE",
"1019 1374 LINE"
);
},
{
closed = 1;
nodes = (
"4 1141 LINE",
"4 1023 LINE",
"1196 1023 LINE",
"1196 1141 LINE"
);
}
);
width = 1200;
}
);
unicode = 0126;
},
{
glyphname = I;
lastChange = "2020-04-05 21:58:07 +0000";
layers = (
{
anchors = (
{
name = bottom;
position = "{600, 0}";
},
{
name = ogonek;
position = "{784, 0}";
},
{
name = top;
position = "{600, 1386}";
},
{
name = topleft;
position = "{130, 1386}";
}
);
layerId = "4B7A3BAF-EAD8-4024-9BEA-BB1DE86CFCFA";
paths = (
{
closed = 1;
nodes = (
"150 1386 LINE",
"150 1146 LINE",
"436 1146 LINE",
"436 241 LINE",
"150 241 LINE",
"150 0 LINE",
"1050 0 LINE",
"1050 241 LINE",
"764 241 LINE",
"764 1146 LINE",
"1050 1146 LINE",
"1050 1386 LINE"
);
}
);
width = 1200;
},
{
anchors = (
{
name = bottom;
position = "{600, 0}";
},
{
name = ogonek;
position = "{685, 0}";
},
{
name = top;
position = "{600, 1374}";
},
{
name = topleft;
position = "{203, 1374}";
}
);
layerId = "B67F0F2D-EC95-4CB8-966E-23AE86958A69";
paths = (
{
closed = 1;
nodes = (
"223 1374 LINE",
"223 1265 LINE",
"535 1265 LINE",
"535 109 LINE",
"223 109 LINE",
"223 0 LINE",
"977 0 LINE",
"977 109 LINE",
"665 109 LINE",
"665 1265 LINE",
"977 1265 LINE",
"977 1374 LINE"
);
}
);
width = 1200;
}
);
unicode = 0049;
},
{
glyphname = IJ;
lastChange = "2020-04-05 21:58:07 +0000";
layers = (
{
layerId = "4B7A3BAF-EAD8-4024-9BEA-BB1DE86CFCFA";
paths = (
{
closed = 1;
nodes = (
"400 -365 LINE",
"926 -280 OFFCURVE",
"1113 -35 OFFCURVE",
"1113 341 CURVE SMOOTH",
"1113 1386 LINE",
"16 1386 LINE",
"16 1183 LINE",
"162 1183 LINE",
"162 204 LINE",
"16 204 LINE",
"16 0 LINE",
"570 0 LINE",
"570 204 LINE",
"464 204 LINE",
"464 1183 LINE",
"797 1183 LINE",
"797 328 LINE SMOOTH",
"797 59 OFFCURVE",
"730 -81 OFFCURVE",
"363 -144 CURVE"
);
}
);
width = 1200;
},
{
layerId = "B67F0F2D-EC95-4CB8-966E-23AE86958A69";
paths = (
{
closed = 1;
nodes = (
"412 -244 LINE",
"946 -207 OFFCURVE",
"1051 95 OFFCURVE",
"1051 386 CURVE SMOOTH",
"1051 1374 LINE",
"25 1374 LINE",
"25 1248 LINE",
"241 1248 LINE",
"241 125 LINE",
"25 125 LINE",
"25 0 LINE",
"558 0 LINE",
"558 125 LINE",
"382 125 LINE",
"382 1248 LINE",
"918 1248 LINE",
"918 404 LINE SMOOTH",
"918 98 OFFCURVE",
"814 -109 OFFCURVE",
"397 -141 CURVE"
);
}
);
width = 1200;
}
);
unicode = 0132;
},
{
glyphname = J;
lastChange = "2020-04-05 21:58:07 +0000";
layers = (
{
anchors = (
{
name = bottom;
position = "{600, 0}";
},
{
name = top;
position = "{704, 1386}";
}
);
layerId = "4B7A3BAF-EAD8-4024-9BEA-BB1DE86CFCFA";
paths = (
{
closed = 1;
nodes = (
"301 1386 LINE",
"301 1146 LINE",
"727 1146 LINE",
"727 495 LINE SMOOTH",
"727 303 OFFCURVE",
"619 214 OFFCURVE",
"477 214 CURVE SMOOTH",
"372 214 OFFCURVE",
"297 237 OFFCURVE",
"203 302 CURVE",
"78 100 LINE",
"198 18 OFFCURVE",
"318 -30 OFFCURVE",
"497 -30 CURVE SMOOTH",
"851 -30 OFFCURVE",
"1054 175 OFFCURVE",
"1054 499 CURVE SMOOTH",
"1054 1386 LINE"
);
}
);
width = 1200;
},
{
anchors = (
{
name = bottom;
position = "{600, 0}";
},
{
name = top;
position = "{698, 1374}";
}
);
layerId = "B67F0F2D-EC95-4CB8-966E-23AE86958A69";
paths = (
{
closed = 1;
nodes = (
"445 1374 LINE",
"445 1262 LINE",
"848 1262 LINE",
"848 459 LINE SMOOTH",
"848 238 OFFCURVE",
"740 95 OFFCURVE",
"534 95 CURVE SMOOTH",
"459 95 OFFCURVE",
"354 113 OFFCURVE",
"228 192 CURVE",
"165 103 LINE",
"271 21 OFFCURVE",
"408 -21 OFFCURVE",
"531 -21 CURVE SMOOTH",
"896 -21 OFFCURVE",
"975 243 OFFCURVE",
"975 445 CURVE SMOOTH",
"975 1374 LINE"
);
}
);
width = 1200;
}
);
unicode = 004A;
},
{
glyphname = K;
lastChange = "2020-04-05 21:58:07 +0000";
layers = (
{
anchors = (
{
name = bottom;
position = "{601, 0}";
},
{
name = top;
position = "{601, 1386}";
}
);
layerId = "4B7A3BAF-EAD8-4024-9BEA-BB1DE86CFCFA";
paths = (
{
closed = 1;
nodes = (
"446 1386 LINE",
"118 1386 LINE",
"118 0 LINE",
"446 0 LINE"
);
},
{
closed = 1;
nodes = (
"837 0 LINE",
"1217 0 LINE",
"787 764 LINE",
"1179 1386 LINE",
"835 1386 LINE",
"456 740 LINE"
);
}
);
width = 1200;
},
{
anchors = (
{
name = bottom;
position = "{658, 0}";
},
{
name = top;
position = "{669, 1374}";
}
);
layerId = "B67F0F2D-EC95-4CB8-966E-23AE86958A69";
paths = (
{
closed = 1;
nodes = (
"364 1374 LINE",
"237 1374 LINE",
"237 0 LINE",
"364 0 LINE"
);
},
{
closed = 1;
nodes = (
"993 0 LINE",
"1160 0 LINE",
"541 741 LINE",
"1122 1374 LINE",
"965 1374 LINE",
"374 734 LINE"
);
}
);
width = 1200;
}
);
unicode = 004B;
},
{
glyphname = L;
lastChange = "2020-04-05 21:58:07 +0000";
layers = (
{
anchors = (
{
name = bottom;
position = "{635, 0}";
},
{
name = center;
position = "{932, 770}";
},
{
name = top;
position = "{350, 1386}";
},
{
name = topright;
position = "{614, 1386}";
}
);
layerId = "4B7A3BAF-EAD8-4024-9BEA-BB1DE86CFCFA";
paths = (
{
closed = 1;
nodes = (
"1081 0 LINE",
"1115 259 LINE",
"514 259 LINE",
"514 1386 LINE",
"186 1386 LINE",
"186 0 LINE"
);
}
);
width = 1200;
},
{
anchors = (
{
name = bottom;
position = "{671, 0}";
},
{
name = center;
position = "{946, 756}";
},
{
name = top;
position = "{362, 1374}";
},
{
name = topright;
position = "{524, 1374}";
}
);
layerId = "B67F0F2D-EC95-4CB8-966E-23AE86958A69";
paths = (
{
closed = 1;
nodes = (
"1045 0 LINE",
"1061 124 LINE",
"424 124 LINE",
"424 1374 LINE",
"296 1374 LINE",
"296 0 LINE"
);
}
);
width = 1200;
}
);
unicode = 004C;
},
{
glyphname = Lslash;
lastChange = "2020-04-05 21:58:07 +0000";
layers = (
{
components = (
{
alignment = -1;
name = L;
transform = "{1, 0, 0, 1, 29, 0}";
}
);
layerId = "4B7A3BAF-EAD8-4024-9BEA-BB1DE86CFCFA";
paths = (
{
closed = 1;
nodes = (
"900 884 LINE",
"791 1055 LINE",
"18 576 LINE",
"125 402 LINE"
);
}
);
width = 1200;
},
{
components = (
{
alignment = -1;
name = L;
transform = "{1, 0, 0, 1, -13, 0}";
}
);
layerId = "B67F0F2D-EC95-4CB8-966E-23AE86958A69";
paths = (
{
closed = 1;
nodes = (
"827 896 LINE",
"763 990 LINE",
"100 579 LINE",
"161 484 LINE"
);
}
);
width = 1200;
}
);
unicode = 0141;
},
{
glyphname = M;
lastChange = "2020-04-05 21:58:07 +0000";
layers = (
{
anchors = (
{
name = bottom;
position = "{600, 0}";
},
{
name = bottomright;
position = "{1231, 0}";
},
{
name = top;
position = "{600, 1386}";
}
);
layerId = "4B7A3BAF-EAD8-4024-9BEA-BB1DE86CFCFA";
paths = (
{
closed = 1;
nodes = (
"750 1386 LINE",
"604 490 LINE",
"450 1386 LINE",
"113 1386 LINE",
"35 0 LINE",
"316 0 LINE",
"326 588 LINE SMOOTH",
"330 810 OFFCURVE",
"323 932 OFFCURVE",
"307 1107 CURVE",
"475 236 LINE",
"723 236 LINE",
"879 1107 LINE",
"865 922 OFFCURVE",
"856 813 OFFCURVE",
"862 593 CURVE SMOOTH",
"879 0 LINE",
"1165 0 LINE",
"1087 1386 LINE"
);
}
);
width = 1200;
},
{
anchors = (
{
name = bottom;
position = "{600, 0}";
},
{
name = bottomright;
position = "{1090, 0}";
},
{
name = top;
position = "{600, 1374}";
}
);
layerId = "B67F0F2D-EC95-4CB8-966E-23AE86958A69";
paths = (
{
closed = 1;
nodes = (
"837 1374 LINE",
"604 417 LINE",
"360 1374 LINE",
"147 1374 LINE",
"69 0 LINE",
"197 0 LINE",
"242 760 LINE SMOOTH",
"251 918 OFFCURVE",
"249 1203 OFFCURVE",
"250 1251 CURVE",
"523 250 LINE",
"675 250 LINE",
"930 1251 LINE",
"932 1203 OFFCURVE",
"937 940 OFFCURVE",
"949 757 CURVE SMOOTH",
"1000 0 LINE",
"1131 0 LINE",
"1053 1374 LINE"
);
}
);
width = 1200;
}
);
unicode = 004D;
},
{
glyphname = N;
lastChange = "2020-04-05 21:58:07 +0000";
layers = (
{
anchors = (
{
name = bottom;
position = "{600, 0}";
},
{
name = top;
position = "{619, 1386}";
}
);
layerId = "4B7A3BAF-EAD8-4024-9BEA-BB1DE86CFCFA";
paths = (
{
closed = 1;
nodes = (
"1096 0 LINE",
"1096 1386 LINE",
"817 1386 LINE",
"817 855 LINE SMOOTH",
"817 606 OFFCURVE",
"845 403 OFFCURVE",
"867 277 CURVE",
"513 1386 LINE",
"104 1386 LINE",
"104 0 LINE",
"383 0 LINE",
"383 523 LINE SMOOTH",
"383 766 OFFCURVE",
"351 996 OFFCURVE",
"333 1115 CURVE",
"698 0 LINE"
);
}
);
width = 1200;
},
{
anchors = (
{
name = bottom;
position = "{600, 0}";
},
{
name = top;
position = "{591, 1374}";
}
);
layerId = "B67F0F2D-EC95-4CB8-966E-23AE86958A69";
paths = (
{
closed = 1;
nodes = (
"1014 0 LINE",
"1014 1374 LINE",
"888 1374 LINE",
"888 638 LINE SMOOTH",
"888 391 OFFCURVE",
"907 163 OFFCURVE",
"903 127 CURVE",
"369 1374 LINE",
"186 1374 LINE",
"186 0 LINE",
"312 0 LINE",
"312 740 LINE SMOOTH",
"312 944 OFFCURVE",
"294 1197 OFFCURVE",
"297 1239 CURVE",
"817 0 LINE"
);
}
);
width = 1200;
}
);
unicode = 004E;
},
{
glyphname = O;
lastChange = "2020-04-05 21:58:07 +0000";
layers = (
{
anchors = (
{
name = bottom;
position = "{600, 0}";
},
{
name = top;
position = "{600, 1386}";
},
{
name = topleft;
position = "{189, 1386}";
}
);
layerId = "4B7A3BAF-EAD8-4024-9BEA-BB1DE86CFCFA";
paths = (
{
closed = 1;
nodes = (
"1155 1143 OFFCURVE",
"963 1421 OFFCURVE",
"600 1421 CURVE SMOOTH",
"237 1421 OFFCURVE",
"45 1133 OFFCURVE",
"45 694 CURVE SMOOTH",
"45 244 OFFCURVE",
"237 -34 OFFCURVE",
"600 -34 CURVE SMOOTH",
"963 -34 OFFCURVE",
"1155 254 OFFCURVE",
"1155 694 CURVE SMOOTH"
);
},
{
closed = 1;
nodes = (
"819 357 OFFCURVE",
"760 206 OFFCURVE",
"600 206 CURVE SMOOTH",
"446 206 OFFCURVE",
"381 353 OFFCURVE",
"381 694 CURVE SMOOTH",
"381 1034 OFFCURVE",
"444 1182 OFFCURVE",
"600 1182 CURVE SMOOTH",
"756 1182 OFFCURVE",
"819 1035 OFFCURVE",
"819 694 CURVE SMOOTH"
);
}
);
width = 1200;
},
{
anchors = (
{
name = bottom;
position = "{600, 0}";
},
{
name = top;
position = "{600, 1374}";
},
{
name = topleft;
position = "{217, 1374}";
}
);
layerId = "B67F0F2D-EC95-4CB8-966E-23AE86958A69";
paths = (
{
closed = 1;
nodes = (
"1093 1104 OFFCURVE",
"927 1393 OFFCURVE",
"600 1393 CURVE SMOOTH",
"273 1393 OFFCURVE",
"107 1094 OFFCURVE",
"107 682 CURVE SMOOTH",
"107 264 OFFCURVE",
"273 -20 OFFCURVE",
"600 -20 CURVE SMOOTH",
"927 -20 OFFCURVE",
"1093 274 OFFCURVE",
"1093 685 CURVE SMOOTH"
);
},
{
closed = 1;
nodes = (
"957 309 OFFCURVE",
"853 98 OFFCURVE",
"600 98 CURVE SMOOTH",
"353 98 OFFCURVE",
"243 308 OFFCURVE",
"243 682 CURVE SMOOTH",
"243 1057 OFFCURVE",
"345 1275 OFFCURVE",
"600 1275 CURVE SMOOTH",
"855 1275 OFFCURVE",
"957 1060 OFFCURVE",
"957 685 CURVE SMOOTH"
);
}
);
width = 1200;
}
);
unicode = 004F;
},
{
glyphname = Oslash;
lastChange = "2020-04-05 21:58:07 +0000";
layers = (
{
anchors = (
{
name = bottom;
position = "{600, 0}";
},
{
name = top;
position = "{600, 1386}";
}
);
layerId = "4B7A3BAF-EAD8-4024-9BEA-BB1DE86CFCFA";
paths = (
{
closed = 1;
nodes = (
"237 1421 OFFCURVE",
"45 1133 OFFCURVE",
"45 694 CURVE SMOOTH",
"45 244 OFFCURVE",
"256 -34 OFFCURVE",
"600 -34 CURVE SMOOTH",
"963 -34 OFFCURVE",
"1155 254 OFFCURVE",
"1155 694 CURVE SMOOTH",
"1155 1143 OFFCURVE",
"944 1421 OFFCURVE",
"600 1421 CURVE SMOOTH"
);
},
{
closed = 1;
nodes = (
"695 1386 LINE",
"681 1235 LINE",
"413 324 LINE",
"303 125 LINE",
"217 -153 LINE",
"439 -218 LINE",
"505 8 LINE",
"539 203 LINE",
"797 1088 LINE",
"907 1300 LINE",
"983 1541 LINE",
"761 1606 LINE"
);
},
{
closed = 1;
nodes = (
"768 1188 OFFCURVE",
"831 1042 OFFCURVE",
"831 694 CURVE SMOOTH",
"831 351 OFFCURVE",
"768 200 OFFCURVE",
"600 200 CURVE SMOOTH",
"434 200 OFFCURVE",
"369 346 OFFCURVE",
"369 694 CURVE SMOOTH",
"369 1040 OFFCURVE",
"436 1188 OFFCURVE",
"600 1188 CURVE SMOOTH"
);
}
);
width = 1200;
},
{
anchors = (
{
name = bottom;
position = "{600, 0}";
},
{
name = top;
position = "{600, 1374}";
}
);
layerId = "B67F0F2D-EC95-4CB8-966E-23AE86958A69";
paths = (
{
closed = 1;
nodes = (
"273 1393 OFFCURVE",
"107 1094 OFFCURVE",
"107 682 CURVE SMOOTH",
"107 264 OFFCURVE",
"270 -20 OFFCURVE",
"600 -20 CURVE SMOOTH",
"927 -20 OFFCURVE",
"1093 274 OFFCURVE",
"1093 685 CURVE SMOOTH",
"1093 1104 OFFCURVE",
"930 1393 OFFCURVE",
"600 1393 CURVE SMOOTH"
);
},
{
closed = 1;
nodes = (
"737 1374 LINE",
"712 1277 LINE",
"379 120 LINE",
"348 54 LINE",
"271 -189 LINE",
"400 -221 LINE",
"471 11 LINE",
"479 73 LINE",
"822 1263 LINE",
"853 1317 LINE",
"932 1575 LINE",
"803 1606 LINE"
);
},
{
closed = 1;
nodes = (
"850 1272 OFFCURVE",
"952 1115 OFFCURVE",
"952 685 CURVE SMOOTH",
"952 312 OFFCURVE",
"850 101 OFFCURVE",
"600 101 CURVE SMOOTH",
"358 101 OFFCURVE",
"248 253 OFFCURVE",
"248 682 CURVE SMOOTH",
"248 1054 OFFCURVE",
"349 1272 OFFCURVE",
"600 1272 CURVE SMOOTH"
);
}
);
width = 1200;
}
);
unicode = 00D8;
},
{
glyphname = OE;
lastChange = "2020-04-05 21:58:07 +0000";
layers = (
{
anchors = (
{
name = bottom;
position = "{600, 0}";
},
{
name = top;
position = "{600, 1386}";
}
);
layerId = "4B7A3BAF-EAD8-4024-9BEA-BB1DE86CFCFA";
paths = (
{
closed = 1;
nodes = (
"144 1421 OFFCURVE",
"19 1148 OFFCURVE",
"19 694 CURVE SMOOTH",
"19 230 OFFCURVE",
"144 -34 OFFCURVE",
"449 -34 CURVE SMOOTH",
"523 -34 OFFCURVE",
"574 -18 OFFCURVE",
"632 0 CURVE",
"1193 0 LINE",
"1193 222 LINE",
"786 222 LINE",
"835 312 OFFCURVE",
"867 435 OFFCURVE",
"875 591 CURVE",
"1117 591 LINE",
"1117 813 LINE",
"873 813 LINE",
"865 963 OFFCURVE",
"838 1080 OFFCURVE",
"796 1164 CURVE",
"1159 1164 LINE",
"1193 1386 LINE",
"640 1386 LINE",
"574 1408 OFFCURVE",
"523 1421 OFFCURVE",
"449 1421 CURVE SMOOTH"
);
},
{
closed = 1;
nodes = (
"573 1198 OFFCURVE",
"608 1069 OFFCURVE",
"608 694 CURVE SMOOTH",
"608 329 OFFCURVE",
"567 188 OFFCURVE",
"451 188 CURVE SMOOTH",
"340 188 OFFCURVE",
"299 329 OFFCURVE",
"299 694 CURVE SMOOTH",
"299 1059 OFFCURVE",
"332 1198 OFFCURVE",
"451 1198 CURVE SMOOTH"
);
}
);
width = 1200;
},
{
anchors = (
{
name = bottom;
position = "{600, 0}";
},
{
name = top;
position = "{600, 1374}";
}
);
layerId = "B67F0F2D-EC95-4CB8-966E-23AE86958A69";
paths = (
{
closed = 1;
nodes = (
"138 1393 OFFCURVE",
"-9 1145 OFFCURVE",
"-9 682 CURVE SMOOTH",
"-9 213 OFFCURVE",
"135 -20 OFFCURVE",
"415 -20 CURVE SMOOTH",
"458 -20 OFFCURVE",
"498 -12 OFFCURVE",
"539 0 CURVE",
"1247 0 LINE",
"1247 117 LINE",
"676 117 LINE",
"767 213 OFFCURVE",
"822 378 OFFCURVE",
"827 639 CURVE",
"1153 639 LINE",
"1153 756 LINE",
"828 756 LINE",
"817 1008 OFFCURVE",
"765 1167 OFFCURVE",
"683 1257 CURVE",
"1207 1257 LINE",
"1224 1374 LINE",
"544 1374 LINE",
"501 1388 OFFCURVE",
"458 1393 OFFCURVE",
"415 1393 CURVE SMOOTH"
);
},
{
closed = 1;
nodes = (
"601 1274 OFFCURVE",
"684 1103 OFFCURVE",
"684 685 CURVE SMOOTH",
"684 264 OFFCURVE",
"598 98 OFFCURVE",
"415 98 CURVE SMOOTH",
"244 98 OFFCURVE",
"149 261 OFFCURVE",
"149 682 CURVE SMOOTH",
"149 1104 OFFCURVE",
"239 1274 OFFCURVE",
"415 1274 CURVE SMOOTH"
);
}
);
width = 1200;
}
);
unicode = 0152;
},
{
glyphname = P;
lastChange = "2020-04-05 21:58:07 +0000";
layers = (
{
anchors = (
{
name = bottom;
position = "{600, 0}";
},
{
name = top;
position = "{600, 1386}";
},
{
name = topleft;
position = "{105, 1386}";
}
);
layerId = "4B7A3BAF-EAD8-4024-9BEA-BB1DE86CFCFA";
paths = (
{
closed = 1;
nodes = (
"815 771 OFFCURVE",
"728 699 OFFCURVE",
"582 699 CURVE SMOOTH",
"453 699 LINE",
"453 1152 LINE",
"565 1152 LINE SMOOTH",
"732 1152 OFFCURVE",
"815 1082 OFFCURVE",
"815 934 CURVE SMOOTH"
);
},
{
closed = 1;
nodes = (
"1153 1238 OFFCURVE",
"937 1386 OFFCURVE",
"561 1386 CURVE SMOOTH",
"125 1386 LINE",
"125 0 LINE",
"453 0 LINE",
"453 461 LINE",
"603 461 LINE SMOOTH",
"931 461 OFFCURVE",
"1153 613 OFFCURVE",
"1153 935 CURVE SMOOTH"
);
}
);
width = 1200;
},
{
anchors = (
{
name = bottom;
position = "{600, 0}";
},
{
name = top;
position = "{600, 1374}";
},
{
name = topleft;
position = "{243, 1374}";
}
);
layerId = "B67F0F2D-EC95-4CB8-966E-23AE86958A69";
paths = (
{
closed = 1;
nodes = (
"962 700 OFFCURVE",
"807 637 OFFCURVE",
"602 637 CURVE SMOOTH",
"391 637 LINE",
"391 1265 LINE",
"616 1265 LINE SMOOTH",
"808 1265 OFFCURVE",
"962 1190 OFFCURVE",
"962 957 CURVE SMOOTH"
);
},
{
closed = 1;
nodes = (
"1102 1244 OFFCURVE",
"903 1374 OFFCURVE",
"589 1374 CURVE SMOOTH",
"263 1374 LINE",
"263 0 LINE",
"391 0 LINE",
"391 526 LINE",
"575 526 LINE SMOOTH",
"880 526 OFFCURVE",
"1102 638 OFFCURVE",
"1102 960 CURVE SMOOTH"
);
}
);
width = 1200;
}
);
unicode = 0050;
},
{
glyphname = Thorn;
lastChange = "2020-04-05 21:58:07 +0000";
layers = (
{
anchors = (
{
name = bottom;
position = "{600, 0}";
},
{
name = top;
position = "{600, 1386}";
}
);
layerId = "4B7A3BAF-EAD8-4024-9BEA-BB1DE86CFCFA";
paths = (
{
closed = 1;
nodes = (
"119 1386 LINE",
"119 0 LINE",
"448 0 LINE",
"448 233 LINE",
"602 233 LINE SMOOTH",
"945 233 OFFCURVE",
"1153 382 OFFCURVE",
"1153 708 CURVE SMOOTH",
"1153 1014 OFFCURVE",
"934 1162 OFFCURVE",
"559 1162 CURVE SMOOTH",
"448 1162 LINE",
"448 1386 LINE"
);
},
{
closed = 1;
nodes = (
"726 928 OFFCURVE",
"811 862 OFFCURVE",
"811 706 CURVE SMOOTH",
"811 532 OFFCURVE",
"724 470 OFFCURVE",
"581 470 CURVE SMOOTH",
"448 470 LINE",
"448 928 LINE",
"567 928 LINE SMOOTH"
);
}
);
width = 1200;
},
{
anchors = (
{
name = bottom;
position = "{600, 0}";
},
{
name = top;
position = "{600, 1374}";
}
);
layerId = "B67F0F2D-EC95-4CB8-966E-23AE86958A69";
paths = (
{
closed = 1;
nodes = (
"243 1374 LINE",
"243 0 LINE",
"369 0 LINE",
"369 264 LINE",
"579 264 LINE SMOOTH",
"877 264 OFFCURVE",
"1099 391 OFFCURVE",
"1099 711 CURVE SMOOTH",
"1099 1005 OFFCURVE",
"911 1139 OFFCURVE",
"593 1139 CURVE SMOOTH",
"369 1139 LINE",
"369 1374 LINE"
);
},
{
closed = 1;
nodes = (
"819 1030 OFFCURVE",
"964 938 OFFCURVE",
"964 706 CURVE SMOOTH",
"964 445 OFFCURVE",
"817 374 OFFCURVE",
"615 374 CURVE SMOOTH",
"369 374 LINE",
"369 1030 LINE",
"618 1030 LINE SMOOTH"
);
}
);
width = 1200;
}
);
unicode = 00DE;
},
{
glyphname = Q;
lastChange = "2020-04-05 21:58:07 +0000";
layers = (
{
anchors = (
{
name = bottom;
position = "{600, 0}";
},
{
name = top;
position = "{600, 1386}";
}
);
layerId = "4B7A3BAF-EAD8-4024-9BEA-BB1DE86CFCFA";
paths = (
{
closed = 1;
nodes = (
"1149 1143 OFFCURVE",
"969 1421 OFFCURVE",
"606 1421 CURVE SMOOTH",
"243 1421 OFFCURVE",
"65 1133 OFFCURVE",
"65 694 CURVE SMOOTH",
"65 244 OFFCURVE",
"233 -28 OFFCURVE",
"580 -28 CURVE SMOOTH",
"822 -28 OFFCURVE",
"912 -138 OFFCURVE",
"1000 -346 CURVE",
"1268 -255 LINE",
"1192 -31 OFFCURVE",
"1074 43 OFFCURVE",
"857 79 CURVE",
"1077 191 OFFCURVE",
"1149 421 OFFCURVE",
"1149 694 CURVE SMOOTH"
);
},
{
closed = 1;
nodes = (
"807 357 OFFCURVE",
"766 206 OFFCURVE",
"606 206 CURVE SMOOTH",
"452 206 OFFCURVE",
"404 355 OFFCURVE",
"404 694 CURVE SMOOTH",
"404 1031 OFFCURVE",
"450 1180 OFFCURVE",
"606 1180 CURVE SMOOTH",
"764 1180 OFFCURVE",
"807 1033 OFFCURVE",
"807 694 CURVE SMOOTH"
);
}
);
width = 1200;
},
{
anchors = (
{
name = bottom;
position = "{600, 0}";
},
{
name = top;
position = "{600, 1374}";
}
);
layerId = "B67F0F2D-EC95-4CB8-966E-23AE86958A69";
paths = (
{
closed = 1;
nodes = (
"1095 1104 OFFCURVE",
"924 1393 OFFCURVE",
"597 1393 CURVE SMOOTH",
"271 1393 OFFCURVE",
"99 1094 OFFCURVE",
"99 682 CURVE SMOOTH",
"99 264 OFFCURVE",
"272 -16 OFFCURVE",
"580 -16 CURVE SMOOTH",
"816 -16 OFFCURVE",
"921 -132 OFFCURVE",
"1003 -346 CURVE",
"1160 -280 LINE",
"1096 -85 OFFCURVE",
"998 7 OFFCURVE",
"812 45 CURVE",
"1020 163 OFFCURVE",
"1095 387 OFFCURVE",
"1095 685 CURVE SMOOTH"
);
},
{
closed = 1;
nodes = (
"963 309 OFFCURVE",
"850 98 OFFCURVE",
"597 98 CURVE SMOOTH",
"350 98 OFFCURVE",
"232 307 OFFCURVE",
"232 682 CURVE SMOOTH",
"232 1059 OFFCURVE",
"342 1276 OFFCURVE",
"597 1276 CURVE SMOOTH",
"851 1276 OFFCURVE",
"963 1061 OFFCURVE",
"963 685 CURVE SMOOTH"
);
}
);
width = 1200;
}
);
unicode = 0051;
},
{
glyphname = R;
lastChange = "2020-04-05 21:58:07 +0000";
layers = (
{
anchors = (
{
name = bottom;
position = "{619, 0}";
},
{
name = top;
position = "{600, 1386}";
}
);
layerId = "4B7A3BAF-EAD8-4024-9BEA-BB1DE86CFCFA";
paths = (
{
closed = 1;
nodes = (
"1123 1252 OFFCURVE",
"929 1386 OFFCURVE",
"552 1386 CURVE SMOOTH",
"116 1386 LINE",
"116 0 LINE",
"444 0 LINE",
"444 530 LINE",
"537 530 LINE",
"837 0 LINE",
"1208 0 LINE",
"845 585 LINE",
"1000 646 OFFCURVE",
"1123 766 OFFCURVE",
"1123 965 CURVE SMOOTH"
);
},
{
closed = 1;
nodes = (
"785 818 OFFCURVE",
"708 755 OFFCURVE",
"566 755 CURVE SMOOTH",
"444 755 LINE",
"444 1156 LINE",
"553 1156 LINE SMOOTH",
"706 1156 OFFCURVE",
"785 1098 OFFCURVE",
"785 965 CURVE SMOOTH"
);
}
);
width = 1200;
},
{
anchors = (
{
name = bottom;
position = "{591, 0}";
},
{
name = top;
position = "{600, 1374}";
}
);
layerId = "B67F0F2D-EC95-4CB8-966E-23AE86958A69";
paths = (
{
closed = 1;
nodes = (
"1061 1243 OFFCURVE",
"887 1374 OFFCURVE",
"558 1374 CURVE SMOOTH",
"229 1374 LINE",
"229 0 LINE",
"357 0 LINE",
"357 609 LINE",
"571 609 LINE",
"969 0 LINE",
"1129 0 LINE",
"707 619 LINE",
"907 660 OFFCURVE",
"1061 789 OFFCURVE",
"1061 999 CURVE SMOOTH"
);
},
{
closed = 1;
nodes = (
"920 795 OFFCURVE",
"795 719 OFFCURVE",
"580 719 CURVE SMOOTH",
"357 719 LINE",
"357 1264 LINE",
"584 1264 LINE SMOOTH",
"814 1264 OFFCURVE",
"920 1188 OFFCURVE",
"920 999 CURVE SMOOTH"
);
}
);
width = 1200;
}
);
unicode = 0052;
},
{
glyphname = S;
lastChange = "2020-04-05 21:58:07 +0000";
layers = (
{
anchors = (
{
name = bottom;
position = "{600, 0}";
},
{
name = top;
position = "{620, 1386}";
}
);
layerId = "4B7A3BAF-EAD8-4024-9BEA-BB1DE86CFCFA";
paths = (
{
closed = 1;
nodes = (
"1136 660 OFFCURVE",
"981 771 OFFCURVE",
"719 852 CURVE SMOOTH",
"498 921 OFFCURVE",
"435 955 OFFCURVE",
"435 1044 CURVE SMOOTH",
"435 1133 OFFCURVE",
"518 1180 OFFCURVE",
"643 1180 CURVE SMOOTH",
"755 1180 OFFCURVE",
"865 1142 OFFCURVE",
"959 1064 CURVE",
"1114 1242 LINE",
"994 1356 OFFCURVE",
"831 1421 OFFCURVE",
"617 1421 CURVE SMOOTH",
"330 1421 OFFCURVE",
"95 1273 OFFCURVE",
"95 1019 CURVE SMOOTH",
"95 808 OFFCURVE",
"219 685 OFFCURVE",
"543 586 CURVE SMOOTH",
"736 527 OFFCURVE",
"795 481 OFFCURVE",
"795 380 CURVE SMOOTH",
"795 272 OFFCURVE",
"701 210 OFFCURVE",
"564 210 CURVE SMOOTH",
"416 210 OFFCURVE",
"292 260 OFFCURVE",
"190 350 CURVE",
"24 166 LINE",
"140 52 OFFCURVE",
"310 -34 OFFCURVE",
"572 -34 CURVE SMOOTH",
"925 -34 OFFCURVE",
"1136 146 OFFCURVE",
"1136 405 CURVE SMOOTH"
);
}
);
width = 1200;
},
{
anchors = (
{
name = bottom;
position = "{591, 0}";
},
{
name = top;
position = "{608, 1374}";
}
);
layerId = "B67F0F2D-EC95-4CB8-966E-23AE86958A69";
paths = (
{
closed = 1;
nodes = (
"1054 640 OFFCURVE",
"857 723 OFFCURVE",
"657 779 CURVE SMOOTH",
"382 859 OFFCURVE",
"291 924 OFFCURVE",
"291 1053 CURVE SMOOTH",
"291 1204 OFFCURVE",
"428 1276 OFFCURVE",
"586 1276 CURVE SMOOTH",
"704 1276 OFFCURVE",
"823 1238 OFFCURVE",
"923 1148 CURVE",
"1009 1242 LINE",
"895 1339 OFFCURVE",
"769 1393 OFFCURVE",
"586 1393 CURVE SMOOTH",
"330 1393 OFFCURVE",
"163 1245 OFFCURVE",
"163 1053 CURVE SMOOTH",
"163 831 OFFCURVE",
"349 739 OFFCURVE",
"605 665 CURVE SMOOTH",
"855 592 OFFCURVE",
"922 520 OFFCURVE",
"922 377 CURVE SMOOTH",
"922 185 OFFCURVE",
"752 97 OFFCURVE",
"576 97 CURVE SMOOTH",
"402 97 OFFCURVE",
"283 155 OFFCURVE",
"190 245 CURVE",
"106 149 LINE",
"222 38 OFFCURVE",
"386 -20 OFFCURVE",
"569 -20 CURVE SMOOTH",
"880 -20 OFFCURVE",
"1054 143 OFFCURVE",
"1054 374 CURVE SMOOTH"
);
}
);
width = 1200;
}
);
unicode = 0053;
},
{
color = 6;
glyphname = Germandbls;
lastChange = "2020-04-15 16:46:46 +0000";
layers = (
{
layerId = "B67F0F2D-EC95-4CB8-966E-23AE86958A69";
paths = (
{
closed = 1;
nodes = (
"325 1403 OFFCURVE",
"171 1255 OFFCURVE",
"171 995 CURVE SMOOTH",
"171 11 LINE",
"291 11 LINE",
"291 991 LINE SMOOTH",
"291 1205 OFFCURVE",
"401 1301 OFFCURVE",
"591 1301 CURVE SMOOTH",
"727 1301 OFFCURVE",
"839 1263 OFFCURVE",
"943 1215 CURVE",
"559 795 LINE",
"559 697 LINE",
"861 681 OFFCURVE",
"1015 591 OFFCURVE",
"1015 383 CURVE SMOOTH",
"1015 191 OFFCURVE",
"903 91 OFFCURVE",
"719 91 CURVE SMOOTH",
"637 91 OFFCURVE",
"583 105 OFFCURVE",
"535 123 CURVE",
"495 35 LINE",
"549 7 OFFCURVE",
"627 -11 OFFCURVE",
"725 -11 CURVE SMOOTH",
"977 -11 OFFCURVE",
"1141 137 OFFCURVE",
"1141 383 CURVE SMOOTH",
"1141 617 OFFCURVE",
"983 749 OFFCURVE",
"677 781 CURVE",
"1055 1185 LINE",
"1055 1267 LINE",
"917 1345 OFFCURVE",
"763 1403 OFFCURVE",
"589 1403 CURVE SMOOTH"
);
}
);
width = 1200;
},
{
layerId = "4B7A3BAF-EAD8-4024-9BEA-BB1DE86CFCFA";
paths = (
{
closed = 1;
nodes = (
"231 1437 OFFCURVE",
"65 1267 OFFCURVE",
"65 987 CURVE SMOOTH",
"65 17 LINE",
"393 17 LINE",
"393 995 LINE SMOOTH",
"393 1135 OFFCURVE",
"451 1197 OFFCURVE",
"573 1197 CURVE SMOOTH",
"665 1197 OFFCURVE",
"747 1179 OFFCURVE",
"825 1151 CURVE",
"549 819 LINE",
"549 645 LINE",
"779 629 OFFCURVE",
"879 557 OFFCURVE",
"879 415 CURVE SMOOTH",
"879 283 OFFCURVE",
"801 229 OFFCURVE",
"697 229 CURVE SMOOTH",
"643 229 OFFCURVE",
"605 239 OFFCURVE",
"573 253 CURVE",
"477 37 LINE",
"539 5 OFFCURVE",
"629 -17 OFFCURVE",
"739 -17 CURVE SMOOTH",
"1003 -17 OFFCURVE",
"1221 127 OFFCURVE",
"1221 409 CURVE SMOOTH",
"1221 655 OFFCURVE",
"1063 767 OFFCURVE",
"833 803 CURVE",
"1127 1145 LINE",
"1127 1295 LINE",
"963 1373 OFFCURVE",
"791 1437 OFFCURVE",
"553 1437 CURVE SMOOTH"
);
}
);
width = 1200;
}
);
unicode = 1E9E;
},
{
glyphname = T;
lastChange = "2020-04-05 21:58:11 +0000";
layers = (
{
anchors = (
{
name = bottom;
position = "{598, 0}";
},
{
name = bottomright;
position = "{782, 0}";
},
{
name = center;
position = "{600, 694}";
},
{
name = top;
position = "{598, 1386}";
}
);
layerId = "4B7A3BAF-EAD8-4024-9BEA-BB1DE86CFCFA";
paths = (
{
closed = 1;
nodes = (
"1133 1135 LINE",
"1167 1386 LINE",
"45 1386 LINE",
"45 1135 LINE",
"434 1135 LINE",
"434 0 LINE",
"762 0 LINE",
"762 1135 LINE"
);
}
);
width = 1200;
},
{
anchors = (
{
name = bottom;
position = "{598, 0}";
},
{
name = bottomright;
position = "{680, 0}";
},
{
name = center;
position = "{600, 688}";
},
{
name = top;
position = "{598, 1374}";
}
);
layerId = "B67F0F2D-EC95-4CB8-966E-23AE86958A69";
paths = (
{
closed = 1;
nodes = (
"1091 1256 LINE",
"1105 1374 LINE",
"90 1374 LINE",
"90 1256 LINE",
"533 1256 LINE",
"533 0 LINE",
"660 0 LINE",
"660 1256 LINE"
);
}
);
width = 1200;
}
);
unicode = 0054;
},
{
glyphname = Tbar;
lastChange = "2020-04-05 21:58:11 +0000";
layers = (
{
components = (
{
alignment = -1;
name = T;
}
);
layerId = "4B7A3BAF-EAD8-4024-9BEA-BB1DE86CFCFA";
paths = (
{
closed = 1;
nodes = (
"997 628 LINE",
"997 813 LINE",
"201 813 LINE",
"201 628 LINE"
);
}
);
width = 1200;
},
{
components = (
{
alignment = -1;
name = T;
}
);
layerId = "B67F0F2D-EC95-4CB8-966E-23AE86958A69";
paths = (
{
closed = 1;
nodes = (
"932 721 LINE",
"932 841 LINE",
"263 841 LINE",
"263 721 LINE"
);
}
);
width = 1200;
}
);
unicode = 0166;
},
{
glyphname = U;
lastChange = "2020-04-05 21:58:11 +0000";
layers = (
{
anchors = (
{
name = bottom;
position = "{600, 0}";
},
{
name = ogonek;
position = "{830, 0}";
},
{
name = top;
position = "{600, 1386}";
}
);
layerId = "4B7A3BAF-EAD8-4024-9BEA-BB1DE86CFCFA";
paths = (
{
closed = 1;
nodes = (
"787 1386 LINE",
"787 586 LINE SMOOTH",
"787 337 OFFCURVE",
"759 210 OFFCURVE",
"600 210 CURVE SMOOTH",
"441 210 OFFCURVE",
"413 337 OFFCURVE",
"413 586 CURVE SMOOTH",
"413 1386 LINE",
"84 1386 LINE",
"84 464 LINE SMOOTH",
"84 168 OFFCURVE",
"254 -34 OFFCURVE",
"600 -34 CURVE SMOOTH",
"944 -34 OFFCURVE",
"1116 180 OFFCURVE",
"1116 464 CURVE SMOOTH",
"1116 1386 LINE"
);
}
);
width = 1200;
},
{
anchors = (
{
name = bottom;
position = "{600, 0}";
},
{
name = ogonek;
position = "{754, 0}";
},
{
name = top;
position = "{600, 1374}";
}
);
layerId = "B67F0F2D-EC95-4CB8-966E-23AE86958A69";
paths = (
{
closed = 1;
nodes = (
"908 1374 LINE",
"908 397 LINE SMOOTH",
"908 199 OFFCURVE",
"784 102 OFFCURVE",
"597 102 CURVE SMOOTH",
"413 102 OFFCURVE",
"289 199 OFFCURVE",
"289 397 CURVE SMOOTH",
"289 1374 LINE",
"163 1374 LINE",
"163 441 LINE SMOOTH",
"163 168 OFFCURVE",
"333 -20 OFFCURVE",
"597 -20 CURVE SMOOTH",
"857 -20 OFFCURVE",
"1037 163 OFFCURVE",
"1037 441 CURVE SMOOTH",
"1037 1374 LINE"
);
}
);
width = 1200;
}
);
unicode = 0055;
},
{
glyphname = V;
lastChange = "2020-04-05 21:58:11 +0000";
layers = (
{
anchors = (
{
name = bottom;
position = "{600, 0}";
},
{
name = top;
position = "{600, 1386}";
}
);
layerId = "4B7A3BAF-EAD8-4024-9BEA-BB1DE86CFCFA";
paths = (
{
closed = 1;
nodes = (
"347 1386 LINE",
"-1 1386 LINE",
"397 0 LINE",
"803 0 LINE",
"1203 1386 LINE",
"867 1386 LINE",
"606 256 LINE"
);
}
);
width = 1200;
},
{
anchors = (
{
name = bottom;
position = "{600, 0}";
},
{
name = top;
position = "{600, 1374}";
}
);
layerId = "B67F0F2D-EC95-4CB8-966E-23AE86958A69";
paths = (
{
closed = 1;
nodes = (
"203 1374 LINE",
"64 1374 LINE",
"544 0 LINE",
"656 0 LINE",
"1135 1374 LINE",
"1008 1374 LINE",
"603 180 LINE"
);
}
);
width = 1200;
}
);
unicode = 0056;
},
{
glyphname = W;
lastChange = "2020-04-05 21:58:11 +0000";
layers = (
{
anchors = (
{
name = bottom;
position = "{600, 0}";
},
{
name = top;
position = "{600, 1386}";
}
);
layerId = "4B7A3BAF-EAD8-4024-9BEA-BB1DE86CFCFA";
paths = (
{
closed = 1;
nodes = (
"921 1386 LINE",
"852 280 LINE",
"745 1226 LINE",
"463 1226 LINE",
"348 280 LINE",
"301 1386 LINE",
"-6 1386 LINE",
"144 0 LINE",
"491 0 LINE",
"602 991 LINE",
"703 0 LINE",
"1044 0 LINE",
"1206 1386 LINE"
);
}
);
width = 1200;
},
{
anchors = (
{
name = bottom;
position = "{600, 0}";
},
{
name = top;
position = "{600, 1374}";
}
);
layerId = "B67F0F2D-EC95-4CB8-966E-23AE86958A69";
paths = (
{
closed = 1;
nodes = (
"1062 1374 LINE",
"869 164 LINE",
"697 1214 LINE",
"505 1214 LINE",
"325 164 LINE",
"148 1374 LINE",
"14 1374 LINE",
"220 0 LINE",
"420 0 LINE",
"593 1053 LINE",
"768 0 LINE",
"962 0 LINE",
"1186 1374 LINE"
);
}
);
width = 1200;
}
);
unicode = 0057;
},
{
glyphname = X;
lastChange = "2020-04-05 21:58:11 +0000";
layers = (
{
anchors = (
{
name = bottom;
position = "{600, 0}";
},
{
name = bottomright;
position = "{1118, 0}";
},
{
name = top;
position = "{600, 1386}";
}
);
layerId = "4B7A3BAF-EAD8-4024-9BEA-BB1DE86CFCFA";
paths = (
{
closed = 1;
nodes = (
"401 736 LINE",
"7 0 LINE",
"355 0 LINE",
"596 529 LINE",
"841 0 LINE",
"1194 0 LINE",
"792 750 LINE",
"1160 1386 LINE",
"814 1386 LINE",
"600 941 LINE",
"391 1386 LINE",
"38 1386 LINE"
);
}
);
width = 1200;
},
{
anchors = (
{
name = bottom;
position = "{600, 0}";
},
{
name = bottomright;
position = "{1025, 0}";
},
{
name = top;
position = "{600, 1374}";
}
);
layerId = "B67F0F2D-EC95-4CB8-966E-23AE86958A69";
paths = (
{
closed = 1;
nodes = (
"522 733 LINE",
"78 0 LINE",
"217 0 LINE",
"596 650 LINE",
"968 0 LINE",
"1121 0 LINE",
"673 741 LINE",
"1070 1374 LINE",
"930 1374 LINE",
"600 820 LINE",
"270 1374 LINE",
"117 1374 LINE"
);
}
);
width = 1200;
}
);
unicode = 0058;
},
{
glyphname = Y;
lastChange = "2020-04-05 21:58:11 +0000";
layers = (
{
anchors = (
{
name = bottom;
position = "{600, 0}";
},
{
name = top;
position = "{600, 1386}";
},
{
name = topleft;
position = "{-16, 1386}";
}
);
layerId = "4B7A3BAF-EAD8-4024-9BEA-BB1DE86CFCFA";
paths = (
{
closed = 1;
nodes = (
"1216 1386 LINE",
"871 1386 LINE",
"606 789 LINE",
"343 1386 LINE",
"-16 1386 LINE",
"436 518 LINE",
"436 0 LINE",
"764 0 LINE",
"764 520 LINE"
);
}
);
width = 1200;
},
{
anchors = (
{
name = bottom;
position = "{600, 0}";
},
{
name = top;
position = "{609, 1374}";
},
{
name = topleft;
position = "{66, 1374}";
}
);
layerId = "B67F0F2D-EC95-4CB8-966E-23AE86958A69";
paths = (
{
closed = 1;
nodes = (
"1134 1374 LINE",
"1003 1374 LINE",
"603 657 LINE",
"208 1374 LINE",
"66 1374 LINE",
"535 532 LINE",
"535 0 LINE",
"665 0 LINE",
"665 534 LINE"
);
}
);
width = 1200;
}
);
unicode = 0059;
},
{
glyphname = Z;
lastChange = "2020-04-05 21:58:11 +0000";
layers = (
{
anchors = (
{
name = bottom;
position = "{600, 0}";
},
{
name = top;
position = "{626, 1386}";
}
);
layerId = "4B7A3BAF-EAD8-4024-9BEA-BB1DE86CFCFA";
paths = (
{
closed = 1;
nodes = (
"1109 1139 LINE",
"1109 1386 LINE",
"150 1386 LINE",
"150 1133 LINE",
"736 1133 LINE",
"78 245 LINE",
"78 0 LINE",
"1090 0 LINE",
"1124 261 LINE",
"464 261 LINE"
);
}
);
width = 1200;
},
{
anchors = (
{
name = bottom;
position = "{600, 0}";
},
{
name = top;
position = "{640, 1374}";
}
);
layerId = "B67F0F2D-EC95-4CB8-966E-23AE86958A69";
paths = (
{
closed = 1;
nodes = (
"1041 1263 LINE",
"1041 1374 LINE",
"234 1374 LINE",
"234 1257 LINE",
"911 1257 LINE",
"162 110 LINE",
"162 0 LINE",
"1017 0 LINE",
"1034 117 LINE",
"295 117 LINE"
);
}
);
width = 1200;
}
);
unicode = 005A;
},
{
glyphname = a;
lastChange = "2020-04-05 21:58:23 +0000";
layers = (
{
anchors = (
{
name = bottom;
position = "{600, 0}";
},
{
name = ogonek;
position = "{1059, -30}";
},
{
name = top;
position = "{586, 1062}";
}
);
layerId = "4B7A3BAF-EAD8-4024-9BEA-BB1DE86CFCFA";
paths = (
{
closed = 1;
nodes = (
"1034 722 LINE SMOOTH",
"1034 965 OFFCURVE",
"886 1097 OFFCURVE",
"570 1097 CURVE SMOOTH",
"452 1097 OFFCURVE",
"293 1070 OFFCURVE",
"156 1018 CURVE",
"229 808 LINE",
"335 844 OFFCURVE",
"452 864 OFFCURVE",
"520 864 CURVE SMOOTH",
"657 864 OFFCURVE",
"730 812 OFFCURVE",
"730 701 CURVE SMOOTH",
"730 661 LINE",
"587 661 LINE SMOOTH",
"259 661 OFFCURVE",
"70 530 OFFCURVE",
"70 300 CURVE SMOOTH",
"70 104 OFFCURVE",
"210 -34 OFFCURVE",
"429 -34 CURVE SMOOTH",
"561 -34 OFFCURVE",
"697 12 OFFCURVE",
"779 110 CURVE",
"828 22 OFFCURVE",
"914 -18 OFFCURVE",
"1039 -30 CURVE",
"1104 178 LINE",
"1054 196 OFFCURVE",
"1034 226 OFFCURVE",
"1034 306 CURVE SMOOTH"
);
},
{
closed = 1;
nodes = (
"448 192 OFFCURVE",
"396 240 OFFCURVE",
"396 322 CURVE SMOOTH",
"396 426 OFFCURVE",
"476 481 OFFCURVE",
"652 481 CURVE SMOOTH",
"730 481 LINE",
"730 309 LINE",
"691 234 OFFCURVE",
"606 192 OFFCURVE",
"538 192 CURVE SMOOTH"
);
}
);
width = 1200;
},
{
anchors = (
{
name = bottom;
position = "{600, 0}";
},
{
name = ogonek;
position = "{1008, -21}";
},
{
name = top;
position = "{583, 1050}";
}
);
layerId = "B67F0F2D-EC95-4CB8-966E-23AE86958A69";
paths = (
{
closed = 1;
nodes = (
"932 739 LINE SMOOTH",
"932 937 OFFCURVE",
"804 1069 OFFCURVE",
"558 1069 CURVE SMOOTH",
"461 1069 OFFCURVE",
"361 1053 OFFCURVE",
"235 1006 CURVE",
"271 904 LINE",
"380 943 OFFCURVE",
"469 957 OFFCURVE",
"540 957 CURVE SMOOTH",
"702 957 OFFCURVE",
"803 899 OFFCURVE",
"803 735 CURVE SMOOTH",
"803 633 LINE",
"644 633 LINE SMOOTH",
"327 633 OFFCURVE",
"157 516 OFFCURVE",
"157 303 CURVE SMOOTH",
"157 107 OFFCURVE",
"283 -20 OFFCURVE",
"491 -20 CURVE SMOOTH",
"629 -20 OFFCURVE",
"742 32 OFFCURVE",
"815 130 CURVE",
"840 34 OFFCURVE",
"908 -9 OFFCURVE",
"988 -21 CURVE",
"1022 70 LINE",
"961 88 OFFCURVE",
"932 121 OFFCURVE",
"932 207 CURVE SMOOTH"
);
},
{
closed = 1;
nodes = (
"364 79 OFFCURVE",
"294 153 OFFCURVE",
"294 299 CURVE SMOOTH",
"294 443 OFFCURVE",
"380 538 OFFCURVE",
"629 538 CURVE SMOOTH",
"803 538 LINE",
"803 238 LINE",
"733 138 OFFCURVE",
"629 79 OFFCURVE",
"515 79 CURVE SMOOTH"
);
}
);
width = 1200;
}
);
unicode = 0061;
},
{
glyphname = ae;
lastChange = "2020-04-05 21:58:23 +0000";
layers = (
{
anchors = (
{
name = top;
position = "{604, 1062}";
}
);
layerId = "4B7A3BAF-EAD8-4024-9BEA-BB1DE86CFCFA";
paths = (
{
closed = 1;
nodes = (
"736 1097 OFFCURVE",
"652 1041 OFFCURVE",
"604 956 CURVE",
"555 1041 OFFCURVE",
"475 1097 OFFCURVE",
"328 1097 CURVE SMOOTH",
"223 1097 OFFCURVE",
"142 1071 OFFCURVE",
"39 1026 CURVE",
"110 853 LINE",
"190 891 OFFCURVE",
"233 903 OFFCURVE",
"297 903 CURVE SMOOTH",
"411 903 OFFCURVE",
"475 837 OFFCURVE",
"475 701 CURVE SMOOTH",
"475 654 LINE",
"393 654 LINE SMOOTH",
"118 654 OFFCURVE",
"-12 530 OFFCURVE",
"-12 304 CURVE SMOOTH",
"-12 106 OFFCURVE",
"100 -34 OFFCURVE",
"286 -34 CURVE SMOOTH",
"422 -34 OFFCURVE",
"492 20 OFFCURVE",
"569 135 CURVE",
"637 28 OFFCURVE",
"740 -34 OFFCURVE",
"888 -34 CURVE SMOOTH",
"1022 -34 OFFCURVE",
"1121 14 OFFCURVE",
"1199 80 CURVE",
"1080 239 LINE",
"1022 197 OFFCURVE",
"970 174 OFFCURVE",
"906 174 CURVE SMOOTH",
"793 174 OFFCURVE",
"731 263 OFFCURVE",
"713 452 CURVE",
"1194 452 LINE",
"1198 484 OFFCURVE",
"1200 516 OFFCURVE",
"1200 552 CURVE SMOOTH",
"1200 903 OFFCURVE",
"1106 1097 OFFCURVE",
"856 1097 CURVE SMOOTH"
);
},
{
closed = 1;
nodes = (
"475 423 OFFCURVE",
"477 356 OFFCURVE",
"483 296 CURVE",
"443 215 OFFCURVE",
"400 172 OFFCURVE",
"343 172 CURVE SMOOTH",
"284 172 OFFCURVE",
"252 227 OFFCURVE",
"252 318 CURVE SMOOTH",
"252 422 OFFCURVE",
"300 483 OFFCURVE",
"432 483 CURVE SMOOTH",
"475 483 LINE"
);
},
{
closed = 1;
nodes = (
"938 899 OFFCURVE",
"960 812 OFFCURVE",
"962 623 CURVE",
"713 623 LINE",
"721 832 OFFCURVE",
"762 899 OFFCURVE",
"845 899 CURVE SMOOTH"
);
}
);
width = 1200;
},
{
anchors = (
{
name = top;
position = "{621, 1050}";
}
);
layerId = "B67F0F2D-EC95-4CB8-966E-23AE86958A69";
paths = (
{
closed = 1;
nodes = (
"738 1069 OFFCURVE",
"647 999 OFFCURVE",
"608 883 CURVE",
"572 996 OFFCURVE",
"501 1069 OFFCURVE",
"345 1069 CURVE SMOOTH",
"265 1069 OFFCURVE",
"165 1043 OFFCURVE",
"81 1003 CURVE",
"119 889 LINE",
"207 927 OFFCURVE",
"261 945 OFFCURVE",
"333 945 CURVE SMOOTH",
"450 945 OFFCURVE",
"517 885 OFFCURVE",
"517 735 CURVE SMOOTH",
"517 637 LINE",
"424 637 LINE SMOOTH",
"141 637 OFFCURVE",
"-12 518 OFFCURVE",
"-12 301 CURVE SMOOTH",
"-12 106 OFFCURVE",
"109 -20 OFFCURVE",
"295 -20 CURVE SMOOTH",
"428 -20 OFFCURVE",
"507 32 OFFCURVE",
"592 179 CURVE",
"668 42 OFFCURVE",
"757 -20 OFFCURVE",
"897 -20 CURVE SMOOTH",
"1005 -20 OFFCURVE",
"1085 20 OFFCURVE",
"1165 83 CURVE",
"1100 185 LINE",
"1031 132 OFFCURVE",
"976 101 OFFCURVE",
"894 101 CURVE SMOOTH",
"745 101 OFFCURVE",
"677 215 OFFCURVE",
"659 469 CURVE",
"1214 469 LINE",
"1216 493 OFFCURVE",
"1217 525 OFFCURVE",
"1217 561 CURVE SMOOTH",
"1217 872 OFFCURVE",
"1109 1069 OFFCURVE",
"873 1069 CURVE SMOOTH"
);
},
{
closed = 1;
nodes = (
"517 448 OFFCURVE",
"528 368 OFFCURVE",
"546 293 CURVE",
"474 158 OFFCURVE",
"409 88 OFFCURVE",
"309 88 CURVE SMOOTH",
"211 88 OFFCURVE",
"144 162 OFFCURVE",
"144 309 CURVE SMOOTH",
"144 445 OFFCURVE",
"210 537 OFFCURVE",
"420 537 CURVE SMOOTH",
"517 537 LINE"
);
},
{
closed = 1;
nodes = (
"1020 947 OFFCURVE",
"1070 821 OFFCURVE",
"1075 589 CURVE",
"659 589 LINE",
"679 852 OFFCURVE",
"739 947 OFFCURVE",
"870 947 CURVE SMOOTH"
);
}
);
width = 1200;
},
{
anchors = (
{
name = top;
position = "{621, 1050}";
}
);
associatedMasterId = "B67F0F2D-EC95-4CB8-966E-23AE86958A69";
layerId = "5CC65849-0E21-4176-99F6-BF640DD57E75";
name = "Mar 28 19, 14:59";
paths = (
{
closed = 1;
nodes = (
"745 1069 OFFCURVE",
"655 999 OFFCURVE",
"621 883 CURVE",
"583 996 OFFCURVE",
"509 1069 OFFCURVE",
"345 1069 CURVE SMOOTH",
"265 1069 OFFCURVE",
"165 1043 OFFCURVE",
"81 1003 CURVE",
"119 889 LINE",
"207 927 OFFCURVE",
"261 945 OFFCURVE",
"333 945 CURVE SMOOTH",
"450 945 OFFCURVE",
"517 885 OFFCURVE",
"517 735 CURVE SMOOTH",
"517 637 LINE",
"424 637 LINE SMOOTH",
"141 637 OFFCURVE",
"-12 518 OFFCURVE",
"-12 301 CURVE SMOOTH",
"-12 106 OFFCURVE",
"109 -20 OFFCURVE",
"295 -20 CURVE SMOOTH",
"428 -20 OFFCURVE",
"509 34 OFFCURVE",
"605 163 CURVE",
"671 45 OFFCURVE",
"757 -20 OFFCURVE",
"897 -20 CURVE SMOOTH",
"1005 -20 OFFCURVE",
"1085 20 OFFCURVE",
"1165 83 CURVE",
"1100 185 LINE",
"1031 132 OFFCURVE",
"976 101 OFFCURVE",
"894 101 CURVE SMOOTH",
"745 101 OFFCURVE",
"677 215 OFFCURVE",
"659 469 CURVE",
"1214 469 LINE",
"1216 493 OFFCURVE",
"1217 525 OFFCURVE",
"1217 561 CURVE SMOOTH",
"1217 872 OFFCURVE",
"1109 1069 OFFCURVE",
"873 1069 CURVE SMOOTH"
);
},
{
closed = 1;
nodes = (
"517 448 OFFCURVE",
"528 368 OFFCURVE",
"551 302 CURVE",
"471 161 OFFCURVE",
"409 88 OFFCURVE",
"309 88 CURVE SMOOTH",
"211 88 OFFCURVE",
"144 162 OFFCURVE",
"144 309 CURVE SMOOTH",
"144 445 OFFCURVE",
"210 537 OFFCURVE",
"420 537 CURVE SMOOTH",
"517 537 LINE"
);
},
{
closed = 1;
nodes = (
"1020 947 OFFCURVE",
"1070 821 OFFCURVE",
"1075 589 CURVE",
"659 589 LINE",
"679 852 OFFCURVE",
"739 947 OFFCURVE",
"870 947 CURVE SMOOTH"
);
}
);
visible = 1;
width = 1200;
}
);
unicode = 00E6;
},
{
color = 4;
glyphname = b;
lastChange = "2020-04-05 21:58:23 +0000";
layers = (
{
anchors = (
{
name = bottom;
position = "{600, 0}";
},
{
name = top;
position = "{600, 1484}";
}
);
layerId = "4B7A3BAF-EAD8-4024-9BEA-BB1DE86CFCFA";
paths = (
{
closed = 1;
nodes = (
"456 1517 LINE",
"140 1484 LINE",
"140 0 LINE",
"420 0 LINE",
"432 96 LINE",
"494 12 OFFCURVE",
"588 -34 OFFCURVE",
"695 -34 CURVE SMOOTH",
"971 -34 OFFCURVE",
"1120 206 OFFCURVE",
"1120 534 CURVE SMOOTH",
"1120 879 OFFCURVE",
"1001 1097 OFFCURVE",
"728 1097 CURVE SMOOTH",
"620 1097 OFFCURVE",
"522 1041 OFFCURVE",
"456 953 CURVE"
);
},
{
closed = 1;
nodes = (
"543 196 OFFCURVE",
"496 230 OFFCURVE",
"456 293 CURVE",
"456 741 LINE",
"502 817 OFFCURVE",
"557 864 OFFCURVE",
"628 864 CURVE SMOOTH",
"728 864 OFFCURVE",
"794 794 OFFCURVE",
"794 530 CURVE SMOOTH",
"794 291 OFFCURVE",
"724 196 OFFCURVE",
"612 196 CURVE SMOOTH"
);
}
);
width = 1200;
},
{
anchors = (
{
name = bottom;
position = "{600, 0}";
},
{
name = top;
position = "{600, 1475}";
}
);
layerId = "B67F0F2D-EC95-4CB8-966E-23AE86958A69";
paths = (
{
closed = 1;
nodes = (
"343 1492 LINE",
"219 1475 LINE",
"219 0 LINE",
"327 0 LINE",
"339 113 LINE",
"412 21 OFFCURVE",
"506 -20 OFFCURVE",
"633 -20 CURVE SMOOTH",
"903 -20 OFFCURVE",
"1047 209 OFFCURVE",
"1047 525 CURVE SMOOTH",
"1047 851 OFFCURVE",
"936 1069 OFFCURVE",
"652 1069 CURVE SMOOTH",
"527 1069 OFFCURVE",
"423 1010 OFFCURVE",
"343 905 CURVE"
);
},
{
closed = 1;
nodes = (
"501 88 OFFCURVE",
"403 146 OFFCURVE",
"343 236 CURVE",
"343 780 LINE",
"403 868 OFFCURVE",
"503 963 OFFCURVE",
"634 963 CURVE SMOOTH",
"815 963 OFFCURVE",
"907 806 OFFCURVE",
"907 527 CURVE SMOOTH",
"907 234 OFFCURVE",
"800 88 OFFCURVE",
"606 88 CURVE SMOOTH"
);
}
);
width = 1200;
}
);
unicode = 0062;
},
{
glyphname = c;
lastChange = "2020-04-05 21:58:23 +0000";
layers = (
{
anchors = (
{
name = bottom;
position = "{678, 0}";
},
{
name = bottomAttach;
position = "{678, 0}";
},
{
name = top;
position = "{688, 1036}";
}
);
layerId = "4B7A3BAF-EAD8-4024-9BEA-BB1DE86CFCFA";
paths = (
{
closed = 1;
nodes = (
"568 215 OFFCURVE",
"467 289 OFFCURVE",
"467 524 CURVE SMOOTH",
"467 763 OFFCURVE",
"562 854 OFFCURVE",
"705 854 CURVE SMOOTH",
"791 854 OFFCURVE",
"872 824 OFFCURVE",
"944 774 CURVE",
"1081 964 LINE",
"975 1052 OFFCURVE",
"853 1097 OFFCURVE",
"692 1097 CURVE SMOOTH",
"350 1097 OFFCURVE",
"137 856 OFFCURVE",
"137 524 CURVE SMOOTH",
"137 192 OFFCURVE",
"343 -34 OFFCURVE",
"686 -34 CURVE SMOOTH",
"851 -34 OFFCURVE",
"987 26 OFFCURVE",
"1081 106 CURVE",
"940 306 LINE",
"864 253 OFFCURVE",
"790 215 OFFCURVE",
"703 215 CURVE SMOOTH"
);
}
);
width = 1200;
},
{
anchors = (
{
name = bottom;
position = "{678, 0}";
},
{
name = bottomAttach;
position = "{678, 0}";
},
{
name = top;
position = "{688, 1036}";
}
);
layerId = "B67F0F2D-EC95-4CB8-966E-23AE86958A69";
paths = (
{
closed = 1;
nodes = (
"475 94 OFFCURVE",
"335 227 OFFCURVE",
"335 521 CURVE SMOOTH",
"335 811 OFFCURVE",
"475 959 OFFCURVE",
"669 959 CURVE SMOOTH",
"763 959 OFFCURVE",
"855 926 OFFCURVE",
"950 861 CURVE",
"1016 950 LINE",
"918 1029 OFFCURVE",
"802 1069 OFFCURVE",
"675 1069 CURVE SMOOTH",
"367 1069 OFFCURVE",
"197 833 OFFCURVE",
"197 521 CURVE SMOOTH",
"197 192 OFFCURVE",
"368 -20 OFFCURVE",
"674 -20 CURVE SMOOTH",
"786 -20 OFFCURVE",
"927 26 OFFCURVE",
"1019 103 CURVE",
"954 187 LINE",
"876 132 OFFCURVE",
"781 94 OFFCURVE",
"669 94 CURVE SMOOTH"
);
}
);
width = 1200;
}
);
unicode = 0063;
},
{
glyphname = d;
lastChange = "2020-04-05 21:58:23 +0000";
layers = (
{
anchors = (
{
name = bottom;
position = "{600, 0}";
},
{
name = center;
position = "{600, 532}";
},
{
name = top;
position = "{600, 1484}";
},
{
name = topright;
position = "{1101, 1484}";
}
);
layerId = "4B7A3BAF-EAD8-4024-9BEA-BB1DE86CFCFA";
paths = (
{
closed = 1;
nodes = (
"744 999 LINE",
"680 1063 OFFCURVE",
"598 1097 OFFCURVE",
"503 1097 CURVE SMOOTH",
"241 1097 OFFCURVE",
"80 861 OFFCURVE",
"80 534 CURVE SMOOTH",
"80 192 OFFCURVE",
"206 -34 OFFCURVE",
"470 -34 CURVE SMOOTH",
"609 -34 OFFCURVE",
"705 34 OFFCURVE",
"764 117 CURVE",
"780 0 LINE",
"1060 0 LINE",
"1060 1484 LINE",
"744 1517 LINE"
);
},
{
closed = 1;
nodes = (
"653 866 OFFCURVE",
"700 834 OFFCURVE",
"744 779 CURVE",
"744 321 LINE",
"698 245 OFFCURVE",
"641 198 OFFCURVE",
"570 198 CURVE SMOOTH",
"474 198 OFFCURVE",
"406 270 OFFCURVE",
"406 532 CURVE SMOOTH",
"406 771 OFFCURVE",
"478 866 OFFCURVE",
"588 866 CURVE SMOOTH"
);
}
);
width = 1200;
},
{
anchors = (
{
name = bottom;
position = "{600, 0}";
},
{
name = center;
position = "{600, 526}";
},
{
name = top;
position = "{600, 1475}";
},
{
name = topright;
position = "{1050, 1475}";
}
);
layerId = "B67F0F2D-EC95-4CB8-966E-23AE86958A69";
paths = (
{
closed = 1;
nodes = (
"857 937 LINE",
"785 1024 OFFCURVE",
"691 1069 OFFCURVE",
"563 1069 CURVE SMOOTH",
"303 1069 OFFCURVE",
"153 836 OFFCURVE",
"153 522 CURVE SMOOTH",
"153 201 OFFCURVE",
"279 -20 OFFCURVE",
"557 -20 CURVE SMOOTH",
"666 -20 OFFCURVE",
"773 25 OFFCURVE",
"857 145 CURVE",
"873 0 LINE",
"981 0 LINE",
"981 1475 LINE",
"857 1492 LINE"
);
},
{
closed = 1;
nodes = (
"701 962 OFFCURVE",
"796 907 OFFCURVE",
"857 813 CURVE",
"857 267 LINE",
"797 177 OFFCURVE",
"706 88 OFFCURVE",
"573 88 CURVE SMOOTH",
"387 88 OFFCURVE",
"293 247 OFFCURVE",
"293 523 CURVE SMOOTH",
"293 813 OFFCURVE",
"399 962 OFFCURVE",
"594 962 CURVE SMOOTH"
);
}
);
width = 1200;
}
);
unicode = 0064;
},
{
glyphname = eth;
lastChange = "2020-04-05 21:58:23 +0000";
layers = (
{
layerId = "4B7A3BAF-EAD8-4024-9BEA-BB1DE86CFCFA";
paths = (
{
closed = 1;
nodes = (
"452 1050 LINE",
"563 1164 LINE",
"658 1095 OFFCURVE",
"731 1000 OFFCURVE",
"777 863 CURVE",
"705 930 OFFCURVE",
"628 964 OFFCURVE",
"509 964 CURVE SMOOTH",
"279 964 OFFCURVE",
"79 764 OFFCURVE",
"79 468 CURVE SMOOTH",
"79 150 OFFCURVE",
"301 -34 OFFCURVE",
"588 -34 CURVE SMOOTH",
"927 -34 OFFCURVE",
"1113 225 OFFCURVE",
"1113 553 CURVE SMOOTH",
"1113 912 OFFCURVE",
"1001 1180 OFFCURVE",
"741 1346 CURVE",
"848 1454 LINE",
"686 1595 LINE",
"540 1443 LINE",
"456 1475 OFFCURVE",
"358 1499 OFFCURVE",
"248 1516 CURVE",
"186 1310 LINE",
"253 1297 OFFCURVE",
"313 1281 OFFCURVE",
"368 1263 CURVE",
"252 1142 LINE"
);
},
{
closed = 1;
nodes = (
"793 299 OFFCURVE",
"731 196 OFFCURVE",
"594 196 CURVE SMOOTH",
"477 196 OFFCURVE",
"401 277 OFFCURVE",
"401 472 CURVE SMOOTH",
"401 656 OFFCURVE",
"477 742 OFFCURVE",
"592 742 CURVE SMOOTH",
"671 742 OFFCURVE",
"740 712 OFFCURVE",
"791 656 CURVE",
"793 610 OFFCURVE",
"793 563 OFFCURVE",
"793 513 CURVE SMOOTH"
);
}
);
width = 1200;
},
{
layerId = "B67F0F2D-EC95-4CB8-966E-23AE86958A69";
paths = (
{
closed = 1;
nodes = (
"461 1067 LINE",
"631 1243 LINE",
"768 1143 OFFCURVE",
"869 991 OFFCURVE",
"904 812 CURVE",
"826 907 OFFCURVE",
"715 961 OFFCURVE",
"574 961 CURVE SMOOTH",
"347 961 OFFCURVE",
"150 767 OFFCURVE",
"150 471 CURVE SMOOTH",
"150 156 OFFCURVE",
"349 -20 OFFCURVE",
"591 -20 CURVE SMOOTH",
"862 -20 OFFCURVE",
"1051 180 OFFCURVE",
"1051 519 CURVE SMOOTH",
"1051 909 OFFCURVE",
"944 1163 OFFCURVE",
"713 1326 CURVE",
"842 1460 LINE",
"759 1533 LINE",
"622 1386 LINE",
"540 1433 OFFCURVE",
"440 1465 OFFCURVE",
"321 1493 CURVE",
"291 1383 LINE",
"391 1362 OFFCURVE",
"471 1338 OFFCURVE",
"540 1302 CURVE",
"365 1119 LINE"
);
},
{
closed = 1;
nodes = (
"925 245 OFFCURVE",
"788 88 OFFCURVE",
"585 88 CURVE SMOOTH",
"406 88 OFFCURVE",
"277 229 OFFCURVE",
"277 481 CURVE SMOOTH",
"277 740 OFFCURVE",
"423 852 OFFCURVE",
"578 852 CURVE SMOOTH",
"722 852 OFFCURVE",
"845 788 OFFCURVE",
"918 668 CURVE",
"923 627 OFFCURVE",
"925 588 OFFCURVE",
"925 541 CURVE SMOOTH"
);
}
);
width = 1200;
}
);
unicode = 00F0;
},
{
glyphname = dcroat;
lastChange = "2020-04-05 21:58:23 +0000";
layers = (
{
components = (
{
alignment = -1;
name = d;
transform = "{1, 0, 0, 1, -37, 0}";
}
);
layerId = "4B7A3BAF-EAD8-4024-9BEA-BB1DE86CFCFA";
paths = (
{
closed = 1;
nodes = (
"463 1371 LINE",
"463 1186 LINE",
"707 1186 LINE",
"1183 1186 LINE",
"1183 1371 LINE",
"1023 1371 LINE"
);
}
);
width = 1200;
},
{
components = (
{
alignment = -1;
name = d;
transform = "{1, 0, 0, 1, 17, 0}";
}
);
layerId = "B67F0F2D-EC95-4CB8-966E-23AE86958A69";
paths = (
{
closed = 1;
nodes = (
"502 1317 LINE",
"502 1198 LINE",
"874 1198 LINE",
"1155 1198 LINE",
"1155 1317 LINE",
"998 1317 LINE"
);
}
);
width = 1200;
}
);
unicode = 0111;
},
{
glyphname = e;
lastChange = "2020-04-05 21:58:23 +0000";
layers = (
{
anchors = (
{
name = bottom;
position = "{600, 0}";
},
{
name = ogonek;
position = "{890, 0}";
},
{
name = top;
position = "{614, 1062}";
}
);
layerId = "4B7A3BAF-EAD8-4024-9BEA-BB1DE86CFCFA";
paths = (
{
closed = 1;
nodes = (
"1102 439 LINE",
"1106 471 OFFCURVE",
"1108 516 OFFCURVE",
"1108 552 CURVE SMOOTH",
"1108 894 OFFCURVE",
"913 1097 OFFCURVE",
"610 1097 CURVE SMOOTH",
"276 1097 OFFCURVE",
"92 844 OFFCURVE",
"92 530 CURVE SMOOTH",
"92 200 OFFCURVE",
"279 -34 OFFCURVE",
"644 -34 CURVE SMOOTH",
"825 -34 OFFCURVE",
"968 26 OFFCURVE",
"1068 112 CURVE",
"941 284 LINE",
"857 230 OFFCURVE",
"766 196 OFFCURVE",
"669 196 CURVE SMOOTH",
"534 196 OFFCURVE",
"435 265 OFFCURVE",
"414 439 CURVE"
);
},
{
closed = 1;
nodes = (
"745 885 OFFCURVE",
"798 783 OFFCURVE",
"800 629 CURVE",
"410 629 LINE",
"424 807 OFFCURVE",
"497 885 OFFCURVE",
"610 885 CURVE SMOOTH"
);
}
);
width = 1200;
},
{
anchors = (
{
name = bottom;
position = "{600, 0}";
},
{
name = ogonek;
position = "{797, 0}";
},
{
name = top;
position = "{623, 1050}";
}
);
layerId = "B67F0F2D-EC95-4CB8-966E-23AE86958A69";
paths = (
{
closed = 1;
nodes = (
"1023 475 LINE",
"1024 496 OFFCURVE",
"1026 525 OFFCURVE",
"1026 561 CURVE SMOOTH",
"1026 874 OFFCURVE",
"874 1069 OFFCURVE",
"619 1069 CURVE SMOOTH",
"355 1069 OFFCURVE",
"176 844 OFFCURVE",
"176 524 CURVE SMOOTH",
"176 197 OFFCURVE",
"347 -20 OFFCURVE",
"638 -20 CURVE SMOOTH",
"754 -20 OFFCURVE",
"884 23 OFFCURVE",
"981 98 CURVE",
"916 191 LINE",
"821 125 OFFCURVE",
"743 94 OFFCURVE",
"633 94 CURVE SMOOTH",
"461 94 OFFCURVE",
"314 211 OFFCURVE",
"309 475 CURVE"
);
},
{
closed = 1;
nodes = (
"787 953 OFFCURVE",
"903 834 OFFCURVE",
"908 587 CURVE",
"311 587 LINE",
"325 835 OFFCURVE",
"452 953 OFFCURVE",
"622 953 CURVE SMOOTH"
);
}
);
width = 1200;
}
);
unicode = 0065;
},
{
glyphname = f;
lastChange = "2020-04-05 21:58:23 +0000";
layers = (
{
anchors = (
{
name = bottom;
position = "{534, 0}";
},
{
name = top;
position = "{740, 1484}";
}
);
layerId = "4B7A3BAF-EAD8-4024-9BEA-BB1DE86CFCFA";
paths = (
{
closed = 1;
nodes = (
"528 1517 OFFCURVE",
"376 1358 OFFCURVE",
"376 1149 CURVE SMOOTH",
"376 995 LINE",
"153 995 LINE",
"153 776 LINE",
"376 776 LINE",
"376 0 LINE",
"690 0 LINE",
"690 776 LINE",
"1001 776 LINE",
"1036 995 LINE",
"690 995 LINE",
"690 1137 LINE SMOOTH",
"690 1242 OFFCURVE",
"740 1284 OFFCURVE",
"865 1284 CURVE SMOOTH",
"941 1284 OFFCURVE",
"1019 1272 OFFCURVE",
"1093 1244 CURVE",
"1180 1450 LINE",
"1086 1490 OFFCURVE",
"971 1517 OFFCURVE",
"816 1517 CURVE SMOOTH"
);
}
);
width = 1200;
},
{
anchors = (
{
name = bottom;
position = "{520, 0}";
},
{
name = top;
position = "{740, 1475}";
}
);
layerId = "B67F0F2D-EC95-4CB8-966E-23AE86958A69";
paths = (
{
closed = 1;
nodes = (
"627 1492 OFFCURVE",
"458 1381 OFFCURVE",
"458 1191 CURVE SMOOTH",
"458 964 LINE",
"198 964 LINE",
"198 858 LINE",
"458 858 LINE",
"458 0 LINE",
"582 0 LINE",
"582 858 LINE",
"930 858 LINE",
"943 964 LINE",
"582 964 LINE",
"582 1199 LINE SMOOTH",
"582 1321 OFFCURVE",
"664 1383 OFFCURVE",
"817 1383 CURVE SMOOTH",
"899 1383 OFFCURVE",
"977 1368 OFFCURVE",
"1042 1337 CURVE",
"1087 1438 LINE",
"1007 1473 OFFCURVE",
"926 1492 OFFCURVE",
"825 1492 CURVE SMOOTH"
);
}
);
width = 1200;
}
);
unicode = 0066;
},
{
glyphname = g;
lastChange = "2020-04-05 21:58:23 +0000";
layers = (
{
anchors = (
{
name = "bottom ";
position = "{600, -443}";
},
{
name = top;
position = "{602, 1062}";
}
);
layerId = "4B7A3BAF-EAD8-4024-9BEA-BB1DE86CFCFA";
paths = (
{
closed = 1;
nodes = (
"955 1157 OFFCURVE",
"821 1090 OFFCURVE",
"584 1095 CURVE SMOOTH",
"307 1095 OFFCURVE",
"109 947 OFFCURVE",
"109 708 CURVE SMOOTH",
"109 570 OFFCURVE",
"163 476 OFFCURVE",
"299 404 CURVE",
"223 356 OFFCURVE",
"179 281 OFFCURVE",
"179 203 CURVE SMOOTH",
"179 89 OFFCURVE",
"277 -9 OFFCURVE",
"507 -9 CURVE SMOOTH",
"676 -9 LINE SMOOTH",
"783 -9 OFFCURVE",
"830 -51 OFFCURVE",
"830 -114 CURVE SMOOTH",
"830 -183 OFFCURVE",
"785 -235 OFFCURVE",
"584 -235 CURVE SMOOTH",
"383 -235 OFFCURVE",
"342 -195 OFFCURVE",
"342 -102 CURVE",
"62 -102 LINE",
"62 -312 OFFCURVE",
"168 -443 OFFCURVE",
"576 -443 CURVE SMOOTH",
"952 -443 OFFCURVE",
"1144 -310 OFFCURVE",
"1144 -92 CURVE SMOOTH",
"1144 85 OFFCURVE",
"986 215 OFFCURVE",
"739 215 CURVE SMOOTH",
"565 215 LINE SMOOTH",
"463 215 OFFCURVE",
"448 247 OFFCURVE",
"448 280 CURVE SMOOTH",
"448 304 OFFCURVE",
"460 329 OFFCURVE",
"483 341 CURVE",
"521 333 OFFCURVE",
"561 329 OFFCURVE",
"606 329 CURVE SMOOTH",
"881 329 OFFCURVE",
"1056 479 OFFCURVE",
"1056 685 CURVE SMOOTH",
"1056 822 OFFCURVE",
"984 901 OFFCURVE",
"851 958 CURVE",
"984 958 OFFCURVE",
"1082 970 OFFCURVE",
"1157 1000 CURVE",
"1083 1232 LINE"
);
},
{
closed = 1;
nodes = (
"699 890 OFFCURVE",
"754 835 OFFCURVE",
"754 716 CURVE SMOOTH",
"754 593 OFFCURVE",
"697 530 OFFCURVE",
"592 530 CURVE SMOOTH",
"494 530 OFFCURVE",
"429 595 OFFCURVE",
"429 712 CURVE SMOOTH",
"429 823 OFFCURVE",
"492 890 OFFCURVE",
"592 890 CURVE SMOOTH"
);
}
);
width = 1200;
},
{
anchors = (
{
name = "bottom ";
position = "{600, -386}";
},
{
name = top;
position = "{582, 1050}";
}
);
layerId = "B67F0F2D-EC95-4CB8-966E-23AE86958A69";
paths = (
{
closed = 1;
nodes = (
"927 1097 OFFCURVE",
"849 1073 OFFCURVE",
"575 1070 CURVE SMOOTH",
"335 1070 OFFCURVE",
"171 916 OFFCURVE",
"171 711 CURVE SMOOTH",
"171 576 OFFCURVE",
"228 485 OFFCURVE",
"344 424 CURVE",
"268 373 OFFCURVE",
"230 309 OFFCURVE",
"230 245 CURVE SMOOTH",
"230 143 OFFCURVE",
"308 51 OFFCURVE",
"476 51 CURVE SMOOTH",
"670 51 LINE SMOOTH",
"814 51 OFFCURVE",
"932 -3 OFFCURVE",
"932 -114 CURVE SMOOTH",
"932 -243 OFFCURVE",
"813 -303 OFFCURVE",
"572 -303 CURVE SMOOTH",
"326 -303 OFFCURVE",
"266 -240 OFFCURVE",
"266 -108 CURVE",
"152 -108 LINE",
"152 -324 OFFCURVE",
"261 -418 OFFCURVE",
"576 -418 CURVE SMOOTH",
"879 -418 OFFCURVE",
"1060 -310 OFFCURVE",
"1060 -106 CURVE SMOOTH",
"1060 51 OFFCURVE",
"899 173 OFFCURVE",
"697 173 CURVE SMOOTH",
"503 173 LINE SMOOTH",
"392 173 OFFCURVE",
"355 213 OFFCURVE",
"355 268 CURVE SMOOTH",
"355 313 OFFCURVE",
"381 357 OFFCURVE",
"415 383 CURVE",
"461 367 OFFCURVE",
"504 360 OFFCURVE",
"583 360 CURVE SMOOTH",
"824 360 OFFCURVE",
"963 510 OFFCURVE",
"963 719 CURVE SMOOTH",
"963 834 OFFCURVE",
"905 926 OFFCURVE",
"786 981 CURVE",
"900 981 OFFCURVE",
"1000 982 OFFCURVE",
"1095 1009 CURVE",
"1049 1145 LINE"
);
},
{
closed = 1;
nodes = (
"741 972 OFFCURVE",
"827 880 OFFCURVE",
"827 710 CURVE SMOOTH",
"827 545 OFFCURVE",
"739 446 OFFCURVE",
"578 446 CURVE SMOOTH",
"384 446 OFFCURVE",
"299 559 OFFCURVE",
"299 709 CURVE SMOOTH",
"299 859 OFFCURVE",
"382 972 OFFCURVE",
"572 972 CURVE SMOOTH"
);
}
);
width = 1200;
}
);
unicode = 0067;
},
{
glyphname = h;
lastChange = "2020-04-05 21:58:23 +0000";
layers = (
{
anchors = (
{
name = bottom;
position = "{600, 0}";
},
{
name = center;
position = "{600, 532}";
},
{
name = top;
position = "{600, 1484}";
}
);
layerId = "4B7A3BAF-EAD8-4024-9BEA-BB1DE86CFCFA";
paths = (
{
closed = 1;
nodes = (
"140 1484 LINE",
"140 0 LINE",
"456 0 LINE",
"456 735 LINE",
"516 815 OFFCURVE",
"575 864 OFFCURVE",
"642 864 CURVE SMOOTH",
"720 864 OFFCURVE",
"744 820 OFFCURVE",
"744 692 CURVE SMOOTH",
"744 0 LINE",
"1060 0 LINE",
"1060 780 LINE SMOOTH",
"1060 981 OFFCURVE",
"957 1097 OFFCURVE",
"768 1097 CURVE SMOOTH",
"650 1097 OFFCURVE",
"545 1051 OFFCURVE",
"456 957 CURVE",
"456 1515 LINE"
);
}
);
width = 1200;
},
{
anchors = (
{
name = bottom;
position = "{600, 0}";
},
{
name = center;
position = "{600, 526}";
},
{
name = top;
position = "{600, 1475}";
}
);
layerId = "B67F0F2D-EC95-4CB8-966E-23AE86958A69";
paths = (
{
closed = 1;
nodes = (
"219 1472 LINE",
"219 0 LINE",
"343 0 LINE",
"343 777 LINE",
"397 860 OFFCURVE",
"518 966 OFFCURVE",
"654 966 CURVE SMOOTH",
"793 966 OFFCURVE",
"860 907 OFFCURVE",
"860 782 CURVE SMOOTH",
"860 0 LINE",
"984 0 LINE",
"984 760 LINE SMOOTH",
"984 953 OFFCURVE",
"897 1069 OFFCURVE",
"686 1069 CURVE SMOOTH",
"560 1069 OFFCURVE",
"424 1009 OFFCURVE",
"343 895 CURVE",
"343 1487 LINE"
);
}
);
width = 1200;
}
);
unicode = 0068;
},
{
glyphname = hbar;
lastChange = "2020-04-05 21:58:23 +0000";
layers = (
{
components = (
{
alignment = -1;
name = h;
}
);
layerId = "4B7A3BAF-EAD8-4024-9BEA-BB1DE86CFCFA";
paths = (
{
closed = 1;
nodes = (
"140 1371 LINE",
"17 1371 LINE",
"17 1186 LINE",
"456 1186 LINE",
"737 1186 LINE",
"737 1371 LINE"
);
}
);
width = 1200;
},
{
components = (
{
alignment = -1;
name = h;
}
);
layerId = "B67F0F2D-EC95-4CB8-966E-23AE86958A69";
paths = (
{
closed = 1;
nodes = (
"219 1317 LINE",
"45 1317 LINE",
"45 1198 LINE",
"343 1198 LINE",
"698 1198 LINE",
"698 1317 LINE"
);
}
);
width = 1200;
}
);
unicode = 0127;
},
{
glyphname = i;
lastChange = "2020-04-05 21:58:23 +0000";
layers = (
{
anchors = (
{
name = bottom;
position = "{600, 0}";
}
);
layerId = "4B7A3BAF-EAD8-4024-9BEA-BB1DE86CFCFA";
paths = (
{
closed = 1;
nodes = (
"182 1062 LINE",
"182 846 LINE",
"473 846 LINE",
"473 216 LINE",
"172 216 LINE",
"172 0 LINE",
"1059 0 LINE",
"1059 216 LINE",
"789 216 LINE",
"789 1062 LINE"
);
},
{
closed = 1;
nodes = (
"487 1618 OFFCURVE",
"410 1541 OFFCURVE",
"410 1440 CURVE SMOOTH",
"410 1339 OFFCURVE",
"487 1261 OFFCURVE",
"598 1261 CURVE SMOOTH",
"707 1261 OFFCURVE",
"784 1339 OFFCURVE",
"784 1440 CURVE SMOOTH",
"784 1541 OFFCURVE",
"707 1618 OFFCURVE",
"598 1618 CURVE SMOOTH"
);
}
);
width = 1200;
},
{
anchors = (
{
name = bottom;
position = "{600, 0}";
}
);
layerId = "B67F0F2D-EC95-4CB8-966E-23AE86958A69";
paths = (
{
closed = 1;
nodes = (
"272 1050 LINE",
"272 942 LINE",
"594 942 LINE",
"594 108 LINE",
"262 108 LINE",
"262 0 LINE",
"1023 0 LINE",
"1023 108 LINE",
"718 108 LINE",
"718 1050 LINE"
);
},
{
closed = 1;
nodes = (
"541 1525 OFFCURVE",
"500 1481 OFFCURVE",
"500 1426 CURVE SMOOTH",
"500 1367 OFFCURVE",
"541 1323 OFFCURVE",
"601 1323 CURVE SMOOTH",
"665 1323 OFFCURVE",
"705 1367 OFFCURVE",
"705 1426 CURVE SMOOTH",
"705 1481 OFFCURVE",
"665 1525 OFFCURVE",
"601 1525 CURVE SMOOTH"
);
}
);
width = 1200;
}
);
unicode = 0069;
},
{
glyphname = dotlessi;
lastChange = "2020-04-05 21:58:23 +0000";
layers = (
{
anchors = (
{
name = ogonek;
position = "{809, 0}";
},
{
name = top;
position = "{598, 1062}";
}
);
layerId = "4B7A3BAF-EAD8-4024-9BEA-BB1DE86CFCFA";
paths = (
{
closed = 1;
nodes = (
"182 1062 LINE",
"182 846 LINE",
"473 846 LINE",
"473 216 LINE",
"172 216 LINE",
"172 0 LINE",
"1059 0 LINE",
"1059 216 LINE",
"789 216 LINE",
"789 1062 LINE"
);
}
);
width = 1200;
},
{
anchors = (
{
name = ogonek;
position = "{738, 0}";
},
{
name = top;
position = "{604, 1050}";
}
);
layerId = "B67F0F2D-EC95-4CB8-966E-23AE86958A69";
paths = (
{
closed = 1;
nodes = (
"272 1050 LINE",
"272 942 LINE",
"594 942 LINE",
"594 108 LINE",
"262 108 LINE",
"262 0 LINE",
"1023 0 LINE",
"1023 108 LINE",
"718 108 LINE",
"718 1050 LINE"
);
}
);
width = 1200;
}
);
unicode = 0131;
},
{
glyphname = ij;
lastChange = "2020-04-05 21:58:23 +0000";
layers = (
{
layerId = "4B7A3BAF-EAD8-4024-9BEA-BB1DE86CFCFA";
paths = (
{
closed = 1;
nodes = (
"81 1062 LINE",
"81 848 LINE",
"208 848 LINE",
"208 216 LINE",
"71 216 LINE",
"71 0 LINE",
"624 0 LINE",
"624 216 LINE",
"520 216 LINE",
"520 848 LINE",
"776 848 LINE",
"776 217 LINE SMOOTH",
"776 -48 OFFCURVE",
"646 -130 OFFCURVE",
"385 -210 CURVE",
"490 -443 LINE",
"871 -328 OFFCURVE",
"1090 -172 OFFCURVE",
"1090 244 CURVE SMOOTH",
"1090 1062 LINE"
);
},
{
closed = 1;
nodes = (
"255 1618 OFFCURVE",
"178 1541 OFFCURVE",
"178 1440 CURVE SMOOTH",
"178 1339 OFFCURVE",
"255 1261 OFFCURVE",
"364 1261 CURVE SMOOTH",
"475 1261 OFFCURVE",
"554 1339 OFFCURVE",
"554 1440 CURVE SMOOTH",
"554 1541 OFFCURVE",
"475 1618 OFFCURVE",
"364 1618 CURVE SMOOTH"
);
},
{
closed = 1;
nodes = (
"803 1618 OFFCURVE",
"723 1541 OFFCURVE",
"723 1440 CURVE SMOOTH",
"723 1339 OFFCURVE",
"803 1261 OFFCURVE",
"912 1261 CURVE SMOOTH",
"1021 1261 OFFCURVE",
"1100 1339 OFFCURVE",
"1100 1440 CURVE SMOOTH",
"1100 1541 OFFCURVE",
"1021 1618 OFFCURVE",
"912 1618 CURVE SMOOTH"
);
}
);
width = 1200;
},
{
layerId = "B67F0F2D-EC95-4CB8-966E-23AE86958A69";
paths = (
{
closed = 1;
nodes = (
"115 1050 LINE",
"115 947 LINE",
"307 947 LINE",
"307 108 LINE",
"105 108 LINE",
"105 0 LINE",
"641 0 LINE",
"641 108 LINE",
"424 108 LINE",
"424 947 LINE",
"855 947 LINE",
"855 64 LINE SMOOTH",
"855 -144 OFFCURVE",
"626 -246 OFFCURVE",
"456 -318 CURVE",
"490 -418 LINE",
"741 -334 OFFCURVE",
"974 -184 OFFCURVE",
"974 69 CURVE SMOOTH",
"974 1050 LINE"
);
},
{
closed = 1;
nodes = (
"309 1525 OFFCURVE",
"268 1481 OFFCURVE",
"268 1426 CURVE SMOOTH",
"268 1367 OFFCURVE",
"309 1323 OFFCURVE",
"370 1323 CURVE SMOOTH",
"430 1323 OFFCURVE",
"472 1367 OFFCURVE",
"472 1426 CURVE SMOOTH",
"472 1481 OFFCURVE",
"430 1525 OFFCURVE",
"370 1525 CURVE SMOOTH"
);
},
{
closed = 1;
nodes = (
"831 1525 OFFCURVE",
"791 1481 OFFCURVE",
"791 1426 CURVE SMOOTH",
"791 1367 OFFCURVE",
"831 1323 OFFCURVE",
"892 1323 CURVE SMOOTH",
"953 1323 OFFCURVE",
"995 1367 OFFCURVE",
"995 1426 CURVE SMOOTH",
"995 1481 OFFCURVE",
"953 1525 OFFCURVE",
"892 1525 CURVE SMOOTH"
);
}
);
width = 1200;
}
);
unicode = 0133;
},
{
glyphname = j;
lastChange = "2020-04-05 21:58:23 +0000";
layers = (
{
anchors = (
{
name = "bottom ";
position = "{600, -443}";
},
{
name = top;
position = "{740, 1062}";
}
);
layerId = "4B7A3BAF-EAD8-4024-9BEA-BB1DE86CFCFA";
paths = (
{
closed = 1;
nodes = (
"247 1062 LINE",
"247 846 LINE",
"629 846 LINE",
"629 288 LINE SMOOTH",
"629 -21 OFFCURVE",
"461 -129 OFFCURVE",
"139 -202 CURVE",
"189 -443 LINE",
"685 -346 OFFCURVE",
"945 -153 OFFCURVE",
"945 308 CURVE SMOOTH",
"945 1062 LINE"
);
},
{
closed = 1;
nodes = (
"629 1618 OFFCURVE",
"552 1541 OFFCURVE",
"552 1440 CURVE SMOOTH",
"552 1339 OFFCURVE",
"629 1261 OFFCURVE",
"740 1261 CURVE SMOOTH",
"849 1261 OFFCURVE",
"926 1339 OFFCURVE",
"926 1440 CURVE SMOOTH",
"926 1541 OFFCURVE",
"849 1618 OFFCURVE",
"740 1618 CURVE SMOOTH"
);
}
);
width = 1200;
},
{
anchors = (
{
name = "bottom ";
position = "{600, -386}";
},
{
name = top;
position = "{734, 1050}";
}
);
layerId = "B67F0F2D-EC95-4CB8-966E-23AE86958A69";
paths = (
{
closed = 1;
nodes = (
"295 1050 LINE",
"295 942 LINE",
"750 942 LINE",
"750 119 LINE SMOOTH",
"750 -156 OFFCURVE",
"515 -276 OFFCURVE",
"207 -321 CURVE",
"228 -418 LINE",
"631 -355 OFFCURVE",
"874 -192 OFFCURVE",
"874 128 CURVE SMOOTH",
"874 1050 LINE"
);
},
{
closed = 1;
nodes = (
"671 1525 OFFCURVE",
"631 1481 OFFCURVE",
"631 1426 CURVE SMOOTH",
"631 1367 OFFCURVE",
"671 1323 OFFCURVE",
"731 1323 CURVE SMOOTH",
"795 1323 OFFCURVE",
"836 1367 OFFCURVE",
"836 1426 CURVE SMOOTH",
"836 1481 OFFCURVE",
"795 1525 OFFCURVE",
"731 1525 CURVE SMOOTH"
);
}
);
width = 1200;
}
);
unicode = 006A;
},
{
glyphname = dotlessj;
lastChange = "2020-04-05 21:58:23 +0000";
layers = (
{
anchors = (
{
name = top;
position = "{740, 1062}";
}
);
layerId = "4B7A3BAF-EAD8-4024-9BEA-BB1DE86CFCFA";
paths = (
{
closed = 1;
nodes = (
"247 1062 LINE",
"247 846 LINE",
"629 846 LINE",
"629 288 LINE SMOOTH",
"629 -21 OFFCURVE",
"461 -129 OFFCURVE",
"139 -202 CURVE",
"189 -443 LINE",
"685 -346 OFFCURVE",
"945 -153 OFFCURVE",
"945 308 CURVE SMOOTH",
"945 1062 LINE"
);
}
);
width = 1200;
},
{
anchors = (
{
name = top;
position = "{734, 1050}";
}
);
layerId = "B67F0F2D-EC95-4CB8-966E-23AE86958A69";
paths = (
{
closed = 1;
nodes = (
"295 1050 LINE",
"295 942 LINE",
"750 942 LINE",
"750 119 LINE SMOOTH",
"750 -156 OFFCURVE",
"515 -276 OFFCURVE",
"207 -321 CURVE",
"228 -418 LINE",
"631 -355 OFFCURVE",
"874 -192 OFFCURVE",
"874 128 CURVE SMOOTH",
"874 1050 LINE"
);
}
);
width = 1200;
}
);
unicode = 0237;
},
{
glyphname = k;
lastChange = "2020-04-05 21:58:23 +0000";
layers = (
{
anchors = (
{
name = bottom;
position = "{600, 0}";
},
{
name = top;
position = "{600, 1484}";
}
);
layerId = "4B7A3BAF-EAD8-4024-9BEA-BB1DE86CFCFA";
paths = (
{
closed = 1;
nodes = (
"817 1062 LINE",
"468 582 LINE",
"817 0 LINE",
"1177 0 LINE",
"799 592 LINE",
"1148 1062 LINE"
);
},
{
closed = 1;
nodes = (
"140 1484 LINE",
"140 0 LINE",
"456 0 LINE",
"456 1517 LINE"
);
}
);
width = 1200;
},
{
anchors = (
{
name = bottom;
position = "{614, 0}";
},
{
name = top;
position = "{600, 1475}";
}
);
layerId = "B67F0F2D-EC95-4CB8-966E-23AE86958A69";
paths = (
{
closed = 1;
nodes = (
"879 1050 LINE",
"378 573 LINE",
"947 0 LINE",
"1126 0 LINE",
"553 575 LINE",
"1064 1050 LINE"
);
},
{
closed = 1;
nodes = (
"233 1475 LINE",
"233 0 LINE",
"357 0 LINE",
"357 1492 LINE"
);
}
);
width = 1200;
}
);
unicode = 006B;
},
{
glyphname = kgreenlandic;
lastChange = "2020-04-05 21:58:23 +0000";
layers = (
{
anchors = (
{
name = bottom;
position = "{600, 0}";
},
{
name = top;
position = "{600, 1062}";
}
);
layerId = "4B7A3BAF-EAD8-4024-9BEA-BB1DE86CFCFA";
paths = (
{
closed = 1;
nodes = (
"817 1062 LINE",
"468 552 LINE",
"816 0 LINE",
"1177 0 LINE",
"797 574 LINE",
"1148 1062 LINE"
);
},
{
closed = 1;
nodes = (
"140 1062 LINE",
"140 0 LINE",
"456 0 LINE",
"456 1062 LINE"
);
}
);
width = 1200;
},
{
anchors = (
{
name = bottom;
position = "{600, 0}";
},
{
name = top;
position = "{600, 1050}";
}
);
layerId = "B67F0F2D-EC95-4CB8-966E-23AE86958A69";
paths = (
{
closed = 1;
nodes = (
"865 1050 LINE",
"363 569 LINE",
"932 0 LINE",
"1112 0 LINE",
"534 577 LINE",
"1049 1050 LINE"
);
},
{
closed = 1;
nodes = (
"219 1050 LINE",
"219 0 LINE",
"343 0 LINE",
"343 1050 LINE"
);
}
);
width = 1200;
}
);
unicode = 0138;
},
{
glyphname = l;
lastChange = "2020-04-05 21:58:23 +0000";
layers = (
{
anchors = (
{
name = bottom;
position = "{710, 0}";
},
{
name = center;
position = "{1136, 766}";
},
{
name = top;
position = "{512, 1484}";
},
{
name = topright;
position = "{754, 1484}";
}
);
layerId = "4B7A3BAF-EAD8-4024-9BEA-BB1DE86CFCFA";
paths = (
{
closed = 1;
nodes = (
"65 1484 LINE",
"65 1268 LINE",
"378 1268 LINE",
"378 373 LINE SMOOTH",
"378 125 OFFCURVE",
"494 -34 OFFCURVE",
"750 -34 CURVE SMOOTH",
"885 -34 OFFCURVE",
"985 -2 OFFCURVE",
"1057 36 CURVE",
"981 247 LINE",
"937 229 OFFCURVE",
"885 215 OFFCURVE",
"831 215 CURVE SMOOTH",
"746 215 OFFCURVE",
"694 248 OFFCURVE",
"694 334 CURVE SMOOTH",
"694 1484 LINE"
);
}
);
width = 1200;
},
{
anchors = (
{
name = bottom;
position = "{724, 0}";
},
{
name = center;
position = "{1116, 766}";
},
{
name = top;
position = "{535, 1475}";
},
{
name = topright;
position = "{675, 1475}";
}
);
layerId = "B67F0F2D-EC95-4CB8-966E-23AE86958A69";
paths = (
{
closed = 1;
nodes = (
"136 1475 LINE",
"136 1367 LINE",
"462 1367 LINE",
"462 238 LINE SMOOTH",
"462 74 OFFCURVE",
"593 -20 OFFCURVE",
"759 -20 CURVE SMOOTH",
"857 -20 OFFCURVE",
"940 4 OFFCURVE",
"992 30 CURVE",
"956 126 LINE",
"895 102 OFFCURVE",
"837 88 OFFCURVE",
"771 88 CURVE SMOOTH",
"664 88 OFFCURVE",
"586 129 OFFCURVE",
"586 238 CURVE SMOOTH",
"586 1475 LINE"
);
}
);
width = 1200;
}
);
unicode = 006C;
},
{
glyphname = lslash;
lastChange = "2020-04-05 21:58:23 +0000";
layers = (
{
components = (
{
alignment = -1;
name = l;
}
);
layerId = "4B7A3BAF-EAD8-4024-9BEA-BB1DE86CFCFA";
paths = (
{
closed = 1;
nodes = (
"178 638 LINE",
"289 462 LINE",
"694 708 LINE",
"936 856 LINE",
"823 1034 LINE",
"378 760 LINE"
);
}
);
width = 1200;
},
{
components = (
{
alignment = -1;
name = l;
}
);
layerId = "B67F0F2D-EC95-4CB8-966E-23AE86958A69";
paths = (
{
closed = 1;
nodes = (
"254 638 LINE",
"314 549 LINE",
"586 717 LINE",
"840 873 LINE",
"781 961 LINE",
"462 763 LINE"
);
}
);
width = 1200;
}
);
unicode = 0142;
},
{
glyphname = m;
lastChange = "2020-04-05 21:58:23 +0000";
layers = (
{
anchors = (
{
name = bottom;
position = "{600, 0}";
},
{
name = top;
position = "{600, 1062}";
}
);
layerId = "4B7A3BAF-EAD8-4024-9BEA-BB1DE86CFCFA";
paths = (
{
closed = 1;
nodes = (
"831 1097 OFFCURVE",
"755 1045 OFFCURVE",
"691 971 CURVE",
"667 1058 OFFCURVE",
"608 1097 OFFCURVE",
"528 1097 CURVE SMOOTH",
"434 1097 OFFCURVE",
"372 1049 OFFCURVE",
"306 959 CURVE",
"285 1062 LINE",
"53 1062 LINE",
"53 0 LINE",
"328 0 LINE",
"328 783 LINE",
"370 836 OFFCURVE",
"405 852 OFFCURVE",
"438 852 CURVE SMOOTH",
"481 852 OFFCURVE",
"491 824 OFFCURVE",
"491 750 CURVE SMOOTH",
"491 0 LINE",
"713 0 LINE",
"713 783 LINE",
"755 836 OFFCURVE",
"790 852 OFFCURVE",
"823 852 CURVE SMOOTH",
"866 852 OFFCURVE",
"876 824 OFFCURVE",
"876 750 CURVE SMOOTH",
"876 0 LINE",
"1147 0 LINE",
"1147 786 LINE SMOOTH",
"1147 1005 OFFCURVE",
"1076 1097 OFFCURVE",
"925 1097 CURVE SMOOTH"
);
}
);
width = 1200;
},
{
anchors = (
{
name = bottom;
position = "{600, 0}";
},
{
name = top;
position = "{600, 1050}";
}
);
layerId = "B67F0F2D-EC95-4CB8-966E-23AE86958A69";
paths = (
{
closed = 1;
nodes = (
"774 1069 OFFCURVE",
"710 1011 OFFCURVE",
"655 926 CURVE",
"619 1041 OFFCURVE",
"535 1069 OFFCURVE",
"455 1069 CURVE SMOOTH",
"347 1069 OFFCURVE",
"279 1001 OFFCURVE",
"224 923 CURVE",
"217 1050 LINE",
"115 1050 LINE",
"115 0 LINE",
"235 0 LINE",
"235 828 LINE",
"297 929 OFFCURVE",
"366 971 OFFCURVE",
"441 971 CURVE SMOOTH",
"526 971 OFFCURVE",
"530 908 OFFCURVE",
"530 759 CURVE SMOOTH",
"530 0 LINE",
"668 0 LINE",
"668 828 LINE",
"730 929 OFFCURVE",
"802 971 OFFCURVE",
"874 971 CURVE SMOOTH",
"959 971 OFFCURVE",
"963 908 OFFCURVE",
"963 759 CURVE SMOOTH",
"963 0 LINE",
"1085 0 LINE",
"1085 783 LINE SMOOTH",
"1085 1033 OFFCURVE",
"971 1069 OFFCURVE",
"886 1069 CURVE SMOOTH"
);
}
);
width = 1200;
}
);
unicode = 006D;
},
{
glyphname = n;
lastChange = "2020-04-05 21:58:23 +0000";
layers = (
{
anchors = (
{
name = bottom;
position = "{602, 0}";
},
{
name = top;
position = "{602, 1062}";
}
);
layerId = "4B7A3BAF-EAD8-4024-9BEA-BB1DE86CFCFA";
paths = (
{
closed = 1;
nodes = (
"456 0 LINE",
"456 743 LINE",
"516 819 OFFCURVE",
"575 864 OFFCURVE",
"642 864 CURVE SMOOTH",
"720 864 OFFCURVE",
"744 819 OFFCURVE",
"744 689 CURVE SMOOTH",
"744 0 LINE",
"1060 0 LINE",
"1060 780 LINE SMOOTH",
"1060 981 OFFCURVE",
"949 1097 OFFCURVE",
"768 1097 CURVE SMOOTH",
"633 1097 OFFCURVE",
"532 1045 OFFCURVE",
"438 939 CURVE",
"416 1062 LINE",
"140 1062 LINE",
"140 0 LINE"
);
}
);
width = 1200;
},
{
anchors = (
{
name = bottom;
position = "{602, 0}";
},
{
name = top;
position = "{599, 1050}";
}
);
layerId = "B67F0F2D-EC95-4CB8-966E-23AE86958A69";
paths = (
{
closed = 1;
nodes = (
"343 0 LINE",
"343 774 LINE",
"397 858 OFFCURVE",
"515 966 OFFCURVE",
"656 966 CURVE SMOOTH",
"839 966 OFFCURVE",
"860 867 OFFCURVE",
"860 627 CURVE SMOOTH",
"860 0 LINE",
"984 0 LINE",
"984 760 LINE SMOOTH",
"984 953 OFFCURVE",
"901 1069 OFFCURVE",
"686 1069 CURVE SMOOTH",
"568 1069 OFFCURVE",
"416 1006 OFFCURVE",
"333 897 CURVE",
"323 1050 LINE",
"219 1050 LINE",
"219 0 LINE"
);
}
);
width = 1200;
}
);
unicode = 006E;
},
{
glyphname = napostrophe;
lastChange = "2020-04-05 21:58:23 +0000";
layers = (
{
components = (
{
alignment = -1;
name = n;
transform = "{1, 0, 0, 1, 39, 0}";
}
);
layerId = "4B7A3BAF-EAD8-4024-9BEA-BB1DE86CFCFA";
paths = (
{
closed = 1;
nodes = (
"31 1527 OFFCURVE",
"-35 1458 OFFCURVE",
"-35 1378 CURVE SMOOTH",
"-35 1321 OFFCURVE",
"-7 1281 OFFCURVE",
"29 1253 CURVE",
"-14 1070 LINE",
"143 1070 LINE",
"225 1230 LINE SMOOTH",
"255 1289 OFFCURVE",
"271 1327 OFFCURVE",
"271 1378 CURVE SMOOTH",
"271 1464 OFFCURVE",
"206 1527 OFFCURVE",
"118 1527 CURVE SMOOTH"
);
}
);
width = 1200;
},
{
components = (
{
alignment = -1;
name = n;
transform = "{1, 0, 0, 1, 11, 0}";
}
);
layerId = "B67F0F2D-EC95-4CB8-966E-23AE86958A69";
paths = (
{
closed = 1;
nodes = (
"76 1496 OFFCURVE",
"30 1458 OFFCURVE",
"30 1401 CURVE SMOOTH",
"30 1372 OFFCURVE",
"47 1343 OFFCURVE",
"71 1321 CURVE",
"6 1067 LINE",
"89 1067 LINE",
"171 1244 LINE SMOOTH",
"219 1346 OFFCURVE",
"226 1375 OFFCURVE",
"226 1401 CURVE SMOOTH",
"226 1455 OFFCURVE",
"183 1496 OFFCURVE",
"130 1496 CURVE SMOOTH"
);
}
);
width = 1200;
}
);
unicode = 0149;
},
{
glyphname = eng;
lastChange = "2020-04-05 21:58:23 +0000";
layers = (
{
layerId = "4B7A3BAF-EAD8-4024-9BEA-BB1DE86CFCFA";
paths = (
{
closed = 1;
nodes = (
"1060 780 LINE SMOOTH",
"1060 981 OFFCURVE",
"957 1097 OFFCURVE",
"768 1097 CURVE SMOOTH",
"642 1097 OFFCURVE",
"532 1045 OFFCURVE",
"438 939 CURVE",
"416 1062 LINE",
"140 1062 LINE",
"140 0 LINE",
"456 0 LINE",
"456 735 LINE",
"516 815 OFFCURVE",
"575 864 OFFCURVE",
"642 864 CURVE SMOOTH",
"722 864 OFFCURVE",
"744 819 OFFCURVE",
"744 689 CURVE SMOOTH",
"744 101 LINE SMOOTH",
"744 -92 OFFCURVE",
"665 -152 OFFCURVE",
"527 -212 CURVE",
"637 -443 LINE",
"892 -340 OFFCURVE",
"1060 -228 OFFCURVE",
"1060 120 CURVE SMOOTH"
);
}
);
width = 1200;
},
{
layerId = "B67F0F2D-EC95-4CB8-966E-23AE86958A69";
paths = (
{
closed = 1;
nodes = (
"984 760 LINE SMOOTH",
"984 953 OFFCURVE",
"897 1069 OFFCURVE",
"686 1069 CURVE SMOOTH",
"563 1069 OFFCURVE",
"416 1006 OFFCURVE",
"333 897 CURVE",
"323 1050 LINE",
"219 1050 LINE",
"219 0 LINE",
"343 0 LINE",
"343 777 LINE",
"397 860 OFFCURVE",
"518 966 OFFCURVE",
"654 966 CURVE SMOOTH",
"841 966 OFFCURVE",
"860 867 OFFCURVE",
"860 627 CURVE SMOOTH",
"860 30 LINE SMOOTH",
"860 -211 OFFCURVE",
"797 -260 OFFCURVE",
"659 -325 CURVE",
"708 -415 LINE",
"901 -326 OFFCURVE",
"984 -245 OFFCURVE",
"984 38 CURVE SMOOTH"
);
}
);
width = 1200;
}
);
unicode = 014B;
},
{
glyphname = o;
lastChange = "2020-04-05 21:58:23 +0000";
layers = (
{
anchors = (
{
name = bottom;
position = "{600, 0}";
},
{
name = top;
position = "{600, 1062}";
}
);
layerId = "4B7A3BAF-EAD8-4024-9BEA-BB1DE86CFCFA";
paths = (
{
closed = 1;
nodes = (
"275 1097 OFFCURVE",
"84 869 OFFCURVE",
"84 532 CURVE SMOOTH",
"84 175 OFFCURVE",
"275 -34 OFFCURVE",
"600 -34 CURVE SMOOTH",
"925 -34 OFFCURVE",
"1116 179 OFFCURVE",
"1116 534 CURVE SMOOTH",
"1116 874 OFFCURVE",
"927 1097 OFFCURVE",
"600 1097 CURVE SMOOTH"
);
},
{
closed = 1;
nodes = (
"729 864 OFFCURVE",
"790 763 OFFCURVE",
"790 534 CURVE SMOOTH",
"790 297 OFFCURVE",
"729 198 OFFCURVE",
"600 198 CURVE SMOOTH",
"471 198 OFFCURVE",
"410 297 OFFCURVE",
"410 532 CURVE SMOOTH",
"410 763 OFFCURVE",
"471 864 OFFCURVE",
"600 864 CURVE SMOOTH"
);
}
);
width = 1200;
},
{
anchors = (
{
name = bottom;
position = "{600, 0}";
},
{
name = top;
position = "{600, 1050}";
}
);
layerId = "B67F0F2D-EC95-4CB8-966E-23AE86958A69";
paths = (
{
closed = 1;
nodes = (
"314 1069 OFFCURVE",
"166 844 OFFCURVE",
"166 523 CURVE SMOOTH",
"166 200 OFFCURVE",
"311 -20 OFFCURVE",
"600 -20 CURVE SMOOTH",
"886 -20 OFFCURVE",
"1034 213 OFFCURVE",
"1034 525 CURVE SMOOTH",
"1034 857 OFFCURVE",
"891 1069 OFFCURVE",
"603 1069 CURVE SMOOTH"
);
},
{
closed = 1;
nodes = (
"797 960 OFFCURVE",
"898 820 OFFCURVE",
"898 525 CURVE SMOOTH",
"898 232 OFFCURVE",
"797 90 OFFCURVE",
"600 90 CURVE SMOOTH",
"403 90 OFFCURVE",
"302 232 OFFCURVE",
"302 523 CURVE SMOOTH",
"302 820 OFFCURVE",
"406 960 OFFCURVE",
"603 960 CURVE SMOOTH"
);
}
);
width = 1200;
}
);
unicode = 006F;
},
{
glyphname = oslash;
lastChange = "2020-04-05 21:58:23 +0000";
layers = (
{
anchors = (
{
name = top;
position = "{600, 1062}";
}
);
layerId = "4B7A3BAF-EAD8-4024-9BEA-BB1DE86CFCFA";
paths = (
{
closed = 1;
nodes = (
"275 1097 OFFCURVE",
"84 869 OFFCURVE",
"84 532 CURVE SMOOTH",
"84 175 OFFCURVE",
"275 -34 OFFCURVE",
"600 -34 CURVE SMOOTH",
"925 -34 OFFCURVE",
"1116 179 OFFCURVE",
"1116 534 CURVE SMOOTH",
"1116 874 OFFCURVE",
"927 1097 OFFCURVE",
"600 1097 CURVE SMOOTH"
);
},
{
closed = 1;
nodes = (
"657 1077 LINE",
"643 904 LINE",
"432 244 LINE",
"322 66 LINE",
"231 -206 LINE",
"463 -274 LINE",
"543 -14 LINE",
"561 157 LINE",
"768 805 LINE",
"883 998 LINE",
"969 1258 LINE",
"739 1326 LINE"
);
},
{
closed = 1;
nodes = (
"755 870 OFFCURVE",
"796 789 OFFCURVE",
"796 534 CURVE SMOOTH",
"796 291 OFFCURVE",
"735 192 OFFCURVE",
"600 192 CURVE SMOOTH",
"445 192 OFFCURVE",
"404 271 OFFCURVE",
"404 532 CURVE SMOOTH",
"404 769 OFFCURVE",
"465 870 OFFCURVE",
"600 870 CURVE SMOOTH"
);
}
);
width = 1200;
},
{
anchors = (
{
name = top;
position = "{600, 1050}";
}
);
layerId = "B67F0F2D-EC95-4CB8-966E-23AE86958A69";
paths = (
{
closed = 1;
nodes = (
"314 1069 OFFCURVE",
"166 844 OFFCURVE",
"166 523 CURVE SMOOTH",
"166 200 OFFCURVE",
"326 -20 OFFCURVE",
"600 -20 CURVE SMOOTH",
"886 -20 OFFCURVE",
"1034 213 OFFCURVE",
"1034 525 CURVE SMOOTH",
"1034 857 OFFCURVE",
"876 1069 OFFCURVE",
"603 1069 CURVE SMOOTH"
);
},
{
closed = 1;
nodes = (
"708 1049 LINE",
"691 991 LINE",
"426 128 LINE",
"395 60 LINE",
"302 -223 LINE",
"415 -257 LINE",
"492 6 LINE",
"522 97 LINE",
"788 963 LINE",
"812 1001 LINE",
"901 1270 LINE",
"787 1303 LINE"
);
},
{
closed = 1;
nodes = (
"786 957 OFFCURVE",
"895 837 OFFCURVE",
"895 525 CURVE SMOOTH",
"895 234 OFFCURVE",
"795 93 OFFCURVE",
"600 93 CURVE SMOOTH",
"414 93 OFFCURVE",
"305 214 OFFCURVE",
"305 523 CURVE SMOOTH",
"305 817 OFFCURVE",
"408 957 OFFCURVE",
"603 957 CURVE SMOOTH"
);
}
);
width = 1200;
}
);
unicode = 00F8;
},
{
glyphname = oe;
lastChange = "2020-04-05 21:58:23 +0000";
layers = (
{
layerId = "4B7A3BAF-EAD8-4024-9BEA-BB1DE86CFCFA";
paths = (
{
closed = 1;
nodes = (
"744 1097 OFFCURVE",
"662 1029 OFFCURVE",
"610 930 CURVE",
"562 1035 OFFCURVE",
"488 1097 OFFCURVE",
"352 1097 CURVE SMOOTH",
"96 1097 OFFCURVE",
"-16 869 OFFCURVE",
"-16 532 CURVE SMOOTH",
"-16 175 OFFCURVE",
"98 -34 OFFCURVE",
"352 -34 CURVE SMOOTH",
"482 -34 OFFCURVE",
"556 27 OFFCURVE",
"604 125 CURVE",
"668 25 OFFCURVE",
"768 -34 OFFCURVE",
"908 -34 CURVE SMOOTH",
"1038 -34 OFFCURVE",
"1133 14 OFFCURVE",
"1211 80 CURVE",
"1093 239 LINE",
"1034 197 OFFCURVE",
"986 174 OFFCURVE",
"924 174 CURVE SMOOTH",
"813 174 OFFCURVE",
"753 259 OFFCURVE",
"737 452 CURVE",
"1207 452 LINE",
"1210 484 OFFCURVE",
"1212 516 OFFCURVE",
"1212 552 CURVE SMOOTH",
"1212 903 OFFCURVE",
"1122 1097 OFFCURVE",
"877 1097 CURVE SMOOTH"
);
},
{
closed = 1;
nodes = (
"449 864 OFFCURVE",
"481 775 OFFCURVE",
"481 534 CURVE SMOOTH",
"481 277 OFFCURVE",
"449 198 OFFCURVE",
"364 198 CURVE SMOOTH",
"277 198 OFFCURVE",
"246 281 OFFCURVE",
"246 532 CURVE SMOOTH",
"246 775 OFFCURVE",
"277 864 OFFCURVE",
"364 864 CURVE SMOOTH"
);
},
{
closed = 1;
nodes = (
"952 899 OFFCURVE",
"972 812 OFFCURVE",
"974 623 CURVE",
"735 623 LINE",
"745 832 OFFCURVE",
"786 899 OFFCURVE",
"865 899 CURVE SMOOTH"
);
}
);
width = 1200;
},
{
layerId = "B67F0F2D-EC95-4CB8-966E-23AE86958A69";
paths = (
{
closed = 1;
nodes = (
"750 1069 OFFCURVE",
"668 975 OFFCURVE",
"622 851 CURVE",
"576 981 OFFCURVE",
"502 1069 OFFCURVE",
"329 1069 CURVE SMOOTH",
"96 1069 OFFCURVE",
"-2 844 OFFCURVE",
"-2 523 CURVE SMOOTH",
"-2 200 OFFCURVE",
"101 -20 OFFCURVE",
"329 -20 CURVE SMOOTH",
"494 -20 OFFCURVE",
"570 69 OFFCURVE",
"621 196 CURVE",
"671 59 OFFCURVE",
"771 -20 OFFCURVE",
"920 -20 CURVE SMOOTH",
"1026 -20 OFFCURVE",
"1102 20 OFFCURVE",
"1183 83 CURVE",
"1118 185 LINE",
"1048 132 OFFCURVE",
"998 101 OFFCURVE",
"918 101 CURVE SMOOTH",
"771 101 OFFCURVE",
"708 217 OFFCURVE",
"689 469 CURVE",
"1232 469 LINE",
"1233 493 OFFCURVE",
"1235 525 OFFCURVE",
"1235 561 CURVE SMOOTH",
"1235 872 OFFCURVE",
"1134 1069 OFFCURVE",
"905 1069 CURVE SMOOTH"
);
},
{
closed = 1;
nodes = (
"494 963 OFFCURVE",
"546 817 OFFCURVE",
"546 525 CURVE SMOOTH",
"546 212 OFFCURVE",
"497 90 OFFCURVE",
"352 90 CURVE SMOOTH",
"209 90 OFFCURVE",
"153 224 OFFCURVE",
"153 523 CURVE SMOOTH",
"153 814 OFFCURVE",
"209 963 OFFCURVE",
"352 963 CURVE SMOOTH"
);
},
{
closed = 1;
nodes = (
"1045 947 OFFCURVE",
"1088 821 OFFCURVE",
"1093 589 CURVE",
"690 589 LINE",
"709 852 OFFCURVE",
"769 947 OFFCURVE",
"901 947 CURVE SMOOTH"
);
}
);
width = 1200;
}
);
unicode = 0153;
},
{
glyphname = p;
lastChange = "2020-04-05 21:58:23 +0000";
layers = (
{
anchors = (
{
name = bottom;
position = "{600, 0}";
},
{
name = "bottom ";
position = "{600, -443}";
},
{
name = top;
position = "{600, 1062}";
}
);
layerId = "4B7A3BAF-EAD8-4024-9BEA-BB1DE86CFCFA";
paths = (
{
closed = 1;
nodes = (
"628 1097 OFFCURVE",
"520 1053 OFFCURVE",
"434 943 CURVE",
"420 1062 LINE",
"140 1062 LINE",
"140 -443 LINE",
"456 -410 LINE",
"456 77 LINE",
"520 4 OFFCURVE",
"604 -34 OFFCURVE",
"708 -34 CURVE SMOOTH",
"967 -34 OFFCURVE",
"1116 206 OFFCURVE",
"1116 534 CURVE SMOOTH",
"1116 879 OFFCURVE",
"1005 1097 OFFCURVE",
"728 1097 CURVE SMOOTH"
);
},
{
closed = 1;
nodes = (
"730 864 OFFCURVE",
"790 794 OFFCURVE",
"790 530 CURVE SMOOTH",
"790 291 OFFCURVE",
"724 198 OFFCURVE",
"612 198 CURVE SMOOTH",
"545 198 OFFCURVE",
"500 228 OFFCURVE",
"456 293 CURVE",
"456 741 LINE",
"502 817 OFFCURVE",
"557 864 OFFCURVE",
"630 864 CURVE SMOOTH"
);
}
);
width = 1200;
},
{
anchors = (
{
name = bottom;
position = "{600, 0}";
},
{
name = "bottom ";
position = "{600, -386}";
},
{
name = top;
position = "{600, 1050}";
}
);
layerId = "B67F0F2D-EC95-4CB8-966E-23AE86958A69";
paths = (
{
closed = 1;
nodes = (
"520 1069 OFFCURVE",
"410 1002 OFFCURVE",
"335 895 CURVE",
"321 1050 LINE",
"219 1050 LINE",
"219 -418 LINE",
"343 -401 LINE",
"343 105 LINE",
"415 21 OFFCURVE",
"511 -20 OFFCURVE",
"629 -20 CURVE SMOOTH",
"907 -20 OFFCURVE",
"1034 209 OFFCURVE",
"1034 525 CURVE SMOOTH",
"1034 851 OFFCURVE",
"937 1069 OFFCURVE",
"655 1069 CURVE SMOOTH"
);
},
{
closed = 1;
nodes = (
"817 963 OFFCURVE",
"898 806 OFFCURVE",
"898 527 CURVE SMOOTH",
"898 234 OFFCURVE",
"803 93 OFFCURVE",
"609 93 CURVE SMOOTH",
"500 93 OFFCURVE",
"401 149 OFFCURVE",
"343 236 CURVE",
"343 780 LINE",
"403 868 OFFCURVE",
"503 963 OFFCURVE",
"633 963 CURVE SMOOTH"
);
}
);
width = 1200;
}
);
leftMetricsKey = b;
unicode = 0070;
},
{
glyphname = thorn;
lastChange = "2020-04-05 21:58:23 +0000";
layers = (
{
anchors = (
{
name = bottom;
position = "{600, -443}";
},
{
name = top;
position = "{600, 1484}";
}
);
layerId = "4B7A3BAF-EAD8-4024-9BEA-BB1DE86CFCFA";
paths = (
{
closed = 1;
nodes = (
"140 1484 LINE",
"140 -443 LINE",
"456 -410 LINE",
"456 77 LINE",
"520 4 OFFCURVE",
"604 -34 OFFCURVE",
"708 -34 CURVE SMOOTH",
"967 -34 OFFCURVE",
"1116 206 OFFCURVE",
"1116 534 CURVE SMOOTH",
"1116 879 OFFCURVE",
"1005 1097 OFFCURVE",
"728 1097 CURVE SMOOTH",
"616 1097 OFFCURVE",
"520 1045 OFFCURVE",
"456 955 CURVE",
"456 1517 LINE"
);
},
{
closed = 1;
nodes = (
"730 864 OFFCURVE",
"790 794 OFFCURVE",
"790 530 CURVE SMOOTH",
"790 291 OFFCURVE",
"724 198 OFFCURVE",
"612 198 CURVE SMOOTH",
"545 198 OFFCURVE",
"500 228 OFFCURVE",
"456 293 CURVE",
"456 741 LINE",
"502 817 OFFCURVE",
"557 864 OFFCURVE",
"630 864 CURVE SMOOTH"
);
}
);
width = 1200;
},
{
anchors = (
{
name = bottom;
position = "{600, -386}";
},
{
name = top;
position = "{600, 1475}";
}
);
layerId = "B67F0F2D-EC95-4CB8-966E-23AE86958A69";
paths = (
{
closed = 1;
nodes = (
"219 1475 LINE",
"219 -418 LINE",
"343 -401 LINE",
"343 105 LINE",
"415 21 OFFCURVE",
"511 -20 OFFCURVE",
"629 -20 CURVE SMOOTH",
"907 -20 OFFCURVE",
"1034 209 OFFCURVE",
"1034 525 CURVE SMOOTH",
"1034 851 OFFCURVE",
"937 1069 OFFCURVE",
"655 1069 CURVE SMOOTH",
"534 1069 OFFCURVE",
"424 1014 OFFCURVE",
"343 913 CURVE",
"343 1492 LINE"
);
},
{
closed = 1;
nodes = (
"817 963 OFFCURVE",
"898 806 OFFCURVE",
"898 527 CURVE SMOOTH",
"898 234 OFFCURVE",
"803 93 OFFCURVE",
"609 93 CURVE SMOOTH",
"500 93 OFFCURVE",
"401 149 OFFCURVE",
"343 236 CURVE",
"343 780 LINE",
"403 868 OFFCURVE",
"503 963 OFFCURVE",
"633 963 CURVE SMOOTH"
);
}
);
width = 1200;
}
);
unicode = 00FE;
},
{
glyphname = q;
lastChange = "2020-04-05 21:58:23 +0000";
layers = (
{
anchors = (
{
name = bottom;
position = "{600, 0}";
},
{
name = "bottom ";
position = "{600, -443}";
},
{
name = top;
position = "{600, 1062}";
}
);
layerId = "4B7A3BAF-EAD8-4024-9BEA-BB1DE86CFCFA";
paths = (
{
closed = 1;
nodes = (
"237 1097 OFFCURVE",
"84 861 OFFCURVE",
"84 534 CURVE SMOOTH",
"84 190 OFFCURVE",
"199 -34 OFFCURVE",
"472 -34 CURVE SMOOTH",
"597 -34 OFFCURVE",
"682 16 OFFCURVE",
"744 89 CURVE",
"744 -410 LINE",
"1060 -443 LINE",
"1060 1062 LINE",
"784 1062 LINE",
"770 977 LINE",
"706 1055 OFFCURVE",
"614 1097 OFFCURVE",
"509 1097 CURVE SMOOTH"
);
},
{
closed = 1;
nodes = (
"657 866 OFFCURVE",
"702 834 OFFCURVE",
"744 779 CURVE",
"744 321 LINE",
"700 245 OFFCURVE",
"645 200 OFFCURVE",
"572 200 CURVE SMOOTH",
"474 200 OFFCURVE",
"410 270 OFFCURVE",
"410 532 CURVE SMOOTH",
"410 771 OFFCURVE",
"476 866 OFFCURVE",
"592 866 CURVE SMOOTH"
);
}
);
width = 1200;
},
{
anchors = (
{
name = bottom;
position = "{600, 0}";
},
{
name = "bottom ";
position = "{600, -386}";
},
{
name = top;
position = "{600, 1050}";
}
);
layerId = "B67F0F2D-EC95-4CB8-966E-23AE86958A69";
paths = (
{
closed = 1;
nodes = (
"302 1069 OFFCURVE",
"166 836 OFFCURVE",
"166 522 CURVE SMOOTH",
"166 196 OFFCURVE",
"267 -20 OFFCURVE",
"554 -20 CURVE SMOOTH",
"665 -20 OFFCURVE",
"775 28 OFFCURVE",
"857 146 CURVE",
"857 -401 LINE",
"981 -418 LINE",
"981 1050 LINE",
"877 1050 LINE",
"863 926 LINE",
"790 1019 OFFCURVE",
"693 1069 OFFCURVE",
"560 1069 CURVE SMOOTH"
);
},
{
closed = 1;
nodes = (
"699 962 OFFCURVE",
"798 907 OFFCURVE",
"857 813 CURVE",
"857 267 LINE",
"796 177 OFFCURVE",
"699 92 OFFCURVE",
"569 92 CURVE SMOOTH",
"387 92 OFFCURVE",
"302 247 OFFCURVE",
"302 523 CURVE SMOOTH",
"302 813 OFFCURVE",
"397 962 OFFCURVE",
"589 962 CURVE SMOOTH"
);
}
);
width = 1200;
}
);
unicode = 0071;
},
{
glyphname = r;
lastChange = "2020-04-05 21:58:23 +0000";
layers = (
{
anchors = (
{
name = bottom;
position = "{448, 0}";
},
{
name = top;
position = "{650, 1062}";
}
);
layerId = "4B7A3BAF-EAD8-4024-9BEA-BB1DE86CFCFA";
paths = (
{
closed = 1;
nodes = (
"816 0 LINE",
"816 212 LINE",
"606 212 LINE",
"606 516 LINE",
"661 691 OFFCURVE",
"769 817 OFFCURVE",
"908 817 CURVE SMOOTH",
"955 817 OFFCURVE",
"991 811 OFFCURVE",
"1030 801 CURVE",
"1126 1062 LINE",
"1076 1082 OFFCURVE",
"1023 1094 OFFCURVE",
"951 1094 CURVE SMOOTH",
"780 1094 OFFCURVE",
"665 1005 OFFCURVE",
"589 823 CURVE",
"531 1062 LINE",
"150 1062 LINE",
"150 852 LINE",
"290 852 LINE",
"290 212 LINE",
"150 212 LINE",
"150 0 LINE"
);
},
{
closed = 1;
nodes = (
"1067 618 LINE",
"1126 1062 LINE",
"916 1062 LINE",
"869 928 LINE",
"869 618 LINE"
);
}
);
width = 1200;
},
{
anchors = (
{
name = bottom;
position = "{462, 0}";
},
{
name = top;
position = "{664, 1050}";
}
);
layerId = "B67F0F2D-EC95-4CB8-966E-23AE86958A69";
paths = (
{
closed = 1;
nodes = (
"740 0 LINE",
"740 104 LINE",
"524 104 LINE",
"524 592 LINE",
"599 841 OFFCURVE",
"715 952 OFFCURVE",
"885 952 CURVE SMOOTH",
"930 952 OFFCURVE",
"960 946 OFFCURVE",
"1007 933 CURVE",
"1042 1050 LINE",
"994 1062 OFFCURVE",
"955 1071 OFFCURVE",
"900 1071 CURVE SMOOTH",
"704 1071 OFFCURVE",
"600 969 OFFCURVE",
"518 798 CURVE",
"495 1050 LINE",
"229 1050 LINE",
"229 945 LINE",
"400 945 LINE",
"400 104 LINE",
"229 104 LINE",
"229 0 LINE"
);
},
{
closed = 1;
nodes = (
"1028 720 LINE",
"1042 1050 LINE",
"916 1050 LINE",
"908 925 LINE",
"908 720 LINE"
);
}
);
width = 1200;
}
);
unicode = 0072;
},
{
glyphname = s;
lastChange = "2020-04-05 21:58:23 +0000";
layers = (
{
anchors = (
{
name = bottom;
position = "{602, 0}";
},
{
name = top;
position = "{626, 1062}";
}
);
layerId = "4B7A3BAF-EAD8-4024-9BEA-BB1DE86CFCFA";
paths = (
{
closed = 1;
nodes = (
"442 192 OFFCURVE",
"336 240 OFFCURVE",
"254 304 CURVE",
"95 126 LINE",
"205 30 OFFCURVE",
"362 -34 OFFCURVE",
"568 -34 CURVE SMOOTH",
"839 -34 OFFCURVE",
"1070 84 OFFCURVE",
"1070 317 CURVE SMOOTH",
"1070 525 OFFCURVE",
"936 595 OFFCURVE",
"730 653 CURVE SMOOTH",
"522 713 OFFCURVE",
"479 735 OFFCURVE",
"479 790 CURVE SMOOTH",
"479 845 OFFCURVE",
"528 872 OFFCURVE",
"631 872 CURVE SMOOTH",
"734 872 OFFCURVE",
"838 836 OFFCURVE",
"926 782 CURVE",
"1052 968 LINE",
"949 1043 OFFCURVE",
"811 1097 OFFCURVE",
"622 1097 CURVE SMOOTH",
"323 1097 OFFCURVE",
"161 958 OFFCURVE",
"161 769 CURVE SMOOTH",
"161 581 OFFCURVE",
"295 495 OFFCURVE",
"490 443 CURVE SMOOTH",
"702 385 OFFCURVE",
"742 360 OFFCURVE",
"742 292 CURVE SMOOTH",
"742 225 OFFCURVE",
"671 192 OFFCURVE",
"566 192 CURVE SMOOTH"
);
}
);
width = 1200;
},
{
anchors = (
{
name = bottom;
position = "{590, 0}";
},
{
name = top;
position = "{612, 1050}";
}
);
layerId = "B67F0F2D-EC95-4CB8-966E-23AE86958A69";
paths = (
{
closed = 1;
nodes = (
"433 93 OFFCURVE",
"322 138 OFFCURVE",
"240 208 CURVE",
"163 117 LINE",
"247 44 OFFCURVE",
"371 -20 OFFCURVE",
"556 -20 CURVE SMOOTH",
"768 -20 OFFCURVE",
"983 61 OFFCURVE",
"983 283 CURVE SMOOTH",
"983 477 OFFCURVE",
"846 550 OFFCURVE",
"640 605 CURVE SMOOTH",
"426 662 OFFCURVE",
"352 699 OFFCURVE",
"352 804 CURVE SMOOTH",
"352 893 OFFCURVE",
"418 959 OFFCURVE",
"603 959 CURVE SMOOTH",
"748 959 OFFCURVE",
"835 918 OFFCURVE",
"912 864 CURVE",
"970 956 LINE",
"887 1018 OFFCURVE",
"766 1069 OFFCURVE",
"602 1069 CURVE SMOOTH",
"383 1069 OFFCURVE",
"221 967 OFFCURVE",
"221 794 CURVE SMOOTH",
"221 612 OFFCURVE",
"363 552 OFFCURVE",
"589 497 CURVE SMOOTH",
"815 442 OFFCURVE",
"844 383 OFFCURVE",
"844 280 CURVE SMOOTH",
"844 168 OFFCURVE",
"736 93 OFFCURVE",
"557 93 CURVE SMOOTH"
);
}
);
width = 1200;
}
);
unicode = 0073;
},
{
glyphname = germandbls;
lastChange = "2020-04-05 21:58:23 +0000";
layers = (
{
layerId = "4B7A3BAF-EAD8-4024-9BEA-BB1DE86CFCFA";
paths = (
{
closed = 1;
nodes = (
"278 1517 OFFCURVE",
"120 1348 OFFCURVE",
"120 1062 CURVE SMOOTH",
"120 0 LINE",
"436 0 LINE",
"436 1076 LINE SMOOTH",
"436 1224 OFFCURVE",
"475 1296 OFFCURVE",
"574 1296 CURVE SMOOTH",
"641 1296 OFFCURVE",
"681 1258 OFFCURVE",
"681 1192 CURVE SMOOTH",
"681 1048 OFFCURVE",
"530 989 OFFCURVE",
"530 809 CURVE SMOOTH",
"530 547 OFFCURVE",
"829 553 OFFCURVE",
"829 334 CURVE SMOOTH",
"829 254 OFFCURVE",
"790 209 OFFCURVE",
"712 209 CURVE SMOOTH",
"676 209 OFFCURVE",
"639 220 OFFCURVE",
"599 240 CURVE",
"498 28 LINE",
"568 -10 OFFCURVE",
"650 -34 OFFCURVE",
"752 -34 CURVE SMOOTH",
"983 -34 OFFCURVE",
"1155 100 OFFCURVE",
"1155 336 CURVE SMOOTH",
"1155 684 OFFCURVE",
"806 711 OFFCURVE",
"806 864 CURVE SMOOTH",
"806 986 OFFCURVE",
"987 1024 OFFCURVE",
"987 1206 CURVE SMOOTH",
"987 1380 OFFCURVE",
"841 1517 OFFCURVE",
"582 1517 CURVE SMOOTH"
);
}
);
width = 1200;
},
{
layerId = "B67F0F2D-EC95-4CB8-966E-23AE86958A69";
paths = (
{
closed = 1;
nodes = (
"362 1492 OFFCURVE",
"213 1351 OFFCURVE",
"213 1068 CURVE SMOOTH",
"213 0 LINE",
"337 0 LINE",
"337 1079 LINE SMOOTH",
"337 1303 OFFCURVE",
"433 1383 OFFCURVE",
"597 1383 CURVE SMOOTH",
"765 1383 OFFCURVE",
"811 1270 OFFCURVE",
"811 1195 CURVE SMOOTH",
"811 1045 OFFCURVE",
"553 1040 OFFCURVE",
"553 845 CURVE SMOOTH",
"553 583 OFFCURVE",
"979 589 OFFCURVE",
"979 322 CURVE SMOOTH",
"979 161 OFFCURVE",
"883 85 OFFCURVE",
"732 85 CURVE SMOOTH",
"667 85 OFFCURVE",
"591 107 OFFCURVE",
"539 138 CURVE",
"481 51 LINE",
"551 4 OFFCURVE",
"633 -20 OFFCURVE",
"740 -20 CURVE SMOOTH",
"932 -20 OFFCURVE",
"1104 103 OFFCURVE",
"1104 333 CURVE SMOOTH",
"1104 667 OFFCURVE",
"687 675 OFFCURVE",
"687 855 CURVE SMOOTH",
"687 980 OFFCURVE",
"927 1012 OFFCURVE",
"927 1212 CURVE SMOOTH",
"927 1380 OFFCURVE",
"787 1492 OFFCURVE",
"596 1492 CURVE SMOOTH"
);
}
);
width = 1200;
}
);
unicode = 00DF;
},
{
glyphname = t;
lastChange = "2020-04-05 21:58:23 +0000";
layers = (
{
anchors = (
{
name = bottom;
position = "{721, 0}";
},
{
name = center;
position = "{600, 532}";
},
{
name = top;
position = "{496, 1304}";
},
{
name = topright;
position = "{709, 1621}";
}
);
layerId = "4B7A3BAF-EAD8-4024-9BEA-BB1DE86CFCFA";
paths = (
{
closed = 1;
nodes = (
"991 263 LINE",
"941 235 OFFCURVE",
"879 215 OFFCURVE",
"805 215 CURVE SMOOTH",
"700 215 OFFCURVE",
"654 256 OFFCURVE",
"654 362 CURVE SMOOTH",
"654 844 LINE",
"965 844 LINE",
"996 1062 LINE",
"654 1062 LINE",
"654 1330 LINE",
"338 1292 LINE",
"338 1062 LINE",
"115 1062 LINE",
"115 844 LINE",
"338 844 LINE",
"338 362 LINE SMOOTH",
"338 118 OFFCURVE",
"470 -34 OFFCURVE",
"748 -34 CURVE SMOOTH",
"895 -34 OFFCURVE",
"1013 8 OFFCURVE",
"1096 62 CURVE"
);
}
);
width = 1200;
},
{
anchors = (
{
name = bottom;
position = "{749, 0}";
},
{
name = center;
position = "{600, 526}";
},
{
name = top;
position = "{482, 1304}";
},
{
name = topright;
position = "{641, 1471}";
}
);
layerId = "B67F0F2D-EC95-4CB8-966E-23AE86958A69";
paths = (
{
closed = 1;
nodes = (
"966 139 LINE",
"907 108 OFFCURVE",
"840 88 OFFCURVE",
"760 88 CURVE SMOOTH",
"604 88 OFFCURVE",
"544 157 OFFCURVE",
"544 278 CURVE SMOOTH",
"544 946 LINE",
"897 946 LINE",
"914 1050 LINE",
"544 1050 LINE",
"544 1307 LINE",
"420 1292 LINE",
"420 1050 LINE",
"172 1050 LINE",
"172 946 LINE",
"420 946 LINE",
"420 275 LINE SMOOTH",
"420 106 OFFCURVE",
"546 -20 OFFCURVE",
"757 -20 CURVE SMOOTH",
"841 -20 OFFCURVE",
"951 5 OFFCURVE",
"1020 50 CURVE"
);
}
);
width = 1200;
}
);
unicode = 0074;
},
{
glyphname = tbar;
lastChange = "2020-04-05 21:58:23 +0000";
layers = (
{
components = (
{
alignment = -1;
name = t;
}
);
layerId = "4B7A3BAF-EAD8-4024-9BEA-BB1DE86CFCFA";
paths = (
{
closed = 1;
nodes = (
"338 722 LINE",
"139 722 LINE",
"139 523 LINE",
"654 523 LINE",
"963 523 LINE",
"963 722 LINE"
);
}
);
width = 1200;
},
{
components = (
{
alignment = -1;
name = t;
}
);
layerId = "B67F0F2D-EC95-4CB8-966E-23AE86958A69";
paths = (
{
closed = 1;
nodes = (
"420 699 LINE",
"193 699 LINE",
"193 591 LINE",
"544 591 LINE",
"901 591 LINE",
"901 699 LINE"
);
}
);
width = 1200;
}
);
unicode = 0167;
},
{
glyphname = u;
lastChange = "2020-04-05 21:58:23 +0000";
layers = (
{
anchors = (
{
name = ogonek;
position = "{1080, 0}";
},
{
name = top;
position = "{600, 1062}";
}
);
layerId = "4B7A3BAF-EAD8-4024-9BEA-BB1DE86CFCFA";
paths = (
{
closed = 1;
nodes = (
"140 1062 LINE",
"140 296 LINE SMOOTH",
"140 94 OFFCURVE",
"238 -34 OFFCURVE",
"444 -34 CURVE SMOOTH",
"572 -34 OFFCURVE",
"698 20 OFFCURVE",
"770 124 CURVE",
"784 0 LINE",
"1060 0 LINE",
"1060 1062 LINE",
"744 1062 LINE",
"744 315 LINE",
"700 244 OFFCURVE",
"629 200 OFFCURVE",
"564 200 CURVE SMOOTH",
"496 200 OFFCURVE",
"456 232 OFFCURVE",
"456 335 CURVE SMOOTH",
"456 1062 LINE"
);
}
);
width = 1200;
},
{
anchors = (
{
name = ogonek;
position = "{1001, 0}";
},
{
name = top;
position = "{600, 1050}";
}
);
layerId = "B67F0F2D-EC95-4CB8-966E-23AE86958A69";
paths = (
{
closed = 1;
nodes = (
"219 1050 LINE",
"219 284 LINE SMOOTH",
"219 91 OFFCURVE",
"320 -20 OFFCURVE",
"523 -20 CURVE SMOOTH",
"645 -20 OFFCURVE",
"777 40 OFFCURVE",
"863 147 CURVE",
"877 0 LINE",
"981 0 LINE",
"981 1050 LINE",
"857 1050 LINE",
"857 267 LINE",
"796 171 OFFCURVE",
"671 84 OFFCURVE",
"541 84 CURVE SMOOTH",
"403 84 OFFCURVE",
"343 150 OFFCURVE",
"343 299 CURVE SMOOTH",
"343 1050 LINE"
);
}
);
width = 1200;
}
);
unicode = 0075;
},
{
glyphname = v;
lastChange = "2020-04-05 21:58:23 +0000";
layers = (
{
anchors = (
{
name = bottom;
position = "{600, 0}";
},
{
name = top;
position = "{600, 1062}";
}
);
layerId = "4B7A3BAF-EAD8-4024-9BEA-BB1DE86CFCFA";
paths = (
{
closed = 1;
nodes = (
"822 1062 LINE",
"606 242 LINE",
"399 1062 LINE",
"58 1062 LINE",
"416 0 LINE",
"788 0 LINE",
"1142 1062 LINE"
);
}
);
width = 1200;
},
{
anchors = (
{
name = bottom;
position = "{600, 0}";
},
{
name = top;
position = "{600, 1050}";
}
);
layerId = "B67F0F2D-EC95-4CB8-966E-23AE86958A69";
paths = (
{
closed = 1;
nodes = (
"930 1050 LINE",
"603 126 LINE",
"269 1050 LINE",
"140 1050 LINE",
"526 0 LINE",
"669 0 LINE",
"1060 1050 LINE"
);
}
);
width = 1200;
}
);
unicode = 0076;
},
{
glyphname = w;
lastChange = "2020-04-05 21:58:23 +0000";
layers = (
{
anchors = (
{
name = bottom;
position = "{600, 0}";
},
{
name = top;
position = "{600, 1062}";
}
);
layerId = "4B7A3BAF-EAD8-4024-9BEA-BB1DE86CFCFA";
paths = (
{
closed = 1;
nodes = (
"1193 1062 LINE",
"914 1062 LINE",
"843 197 LINE",
"743 928 LINE",
"477 928 LINE",
"365 197 LINE",
"296 1062 LINE",
"7 1062 LINE",
"164 0 LINE",
"507 0 LINE",
"602 714 LINE",
"693 0 LINE",
"1042 0 LINE"
);
}
);
width = 1200;
},
{
anchors = (
{
name = bottom;
position = "{600, 0}";
},
{
name = top;
position = "{600, 1050}";
}
);
layerId = "B67F0F2D-EC95-4CB8-966E-23AE86958A69";
paths = (
{
closed = 1;
nodes = (
"1157 1050 LINE",
"1027 1050 LINE",
"874 76 LINE",
"698 916 LINE",
"519 916 LINE",
"334 76 LINE",
"180 1050 LINE",
"43 1050 LINE",
"246 0 LINE",
"445 0 LINE",
"608 790 LINE",
"758 0 LINE",
"963 0 LINE"
);
}
);
width = 1200;
}
);
unicode = 0077;
},
{
glyphname = x;
lastChange = "2020-04-05 21:58:23 +0000";
layers = (
{
anchors = (
{
name = bottom;
position = "{600, 0}";
},
{
name = bottomright;
position = "{1036, 0}";
},
{
name = top;
position = "{600, 1062}";
}
);
layerId = "4B7A3BAF-EAD8-4024-9BEA-BB1DE86CFCFA";
paths = (
{
closed = 1;
nodes = (
"588 397 LINE",
"798 0 LINE",
"1156 0 LINE",
"790 570 LINE",
"1102 1062 LINE",
"766 1062 LINE",
"602 722 LINE",
"432 1062 LINE",
"78 1062 LINE",
"408 558 LINE",
"44 0 LINE",
"386 0 LINE"
);
}
);
width = 1200;
},
{
anchors = (
{
name = bottom;
position = "{600, 0}";
},
{
name = bottomright;
position = "{963, 0}";
},
{
name = top;
position = "{600, 1050}";
}
);
layerId = "B67F0F2D-EC95-4CB8-966E-23AE86958A69";
paths = (
{
closed = 1;
nodes = (
"597 468 LINE",
"908 0 LINE",
"1069 0 LINE",
"674 561 LINE",
"1023 1050 LINE",
"874 1050 LINE",
"602 643 LINE",
"336 1050 LINE",
"183 1050 LINE",
"527 555 LINE",
"131 0 LINE",
"278 0 LINE"
);
}
);
width = 1200;
}
);
unicode = 0078;
},
{
glyphname = y;
lastChange = "2020-04-05 21:58:23 +0000";
layers = (
{
anchors = (
{
name = "bottom ";
position = "{600, -443}";
},
{
name = top;
position = "{600, 1062}";
}
);
layerId = "4B7A3BAF-EAD8-4024-9BEA-BB1DE86CFCFA";
paths = (
{
closed = 1;
nodes = (
"820 1062 LINE",
"596 202 LINE",
"390 1062 LINE",
"56 1062 LINE",
"393 0 LINE",
"501 0 LINE",
"443 -137 OFFCURVE",
"368 -196 OFFCURVE",
"159 -222 CURVE",
"195 -445 LINE",
"518 -427 OFFCURVE",
"696 -282 OFFCURVE",
"790 0 CURVE SMOOTH",
"1144 1062 LINE"
);
}
);
width = 1200;
},
{
anchors = (
{
name = "bottom ";
position = "{600, -386}";
},
{
name = top;
position = "{600, 1050}";
}
);
layerId = "B67F0F2D-EC95-4CB8-966E-23AE86958A69";
paths = (
{
closed = 1;
nodes = (
"928 1050 LINE",
"608 106 LINE",
"277 1050 LINE",
"143 1050 LINE",
"520 0 LINE",
"561 0 LINE",
"505 -171 OFFCURVE",
"447 -269 OFFCURVE",
"227 -309 CURVE",
"249 -417 LINE",
"515 -385 OFFCURVE",
"614 -203 OFFCURVE",
"682 -9 CURVE SMOOTH",
"1057 1050 LINE"
);
}
);
width = 1200;
}
);
unicode = 0079;
},
{
glyphname = z;
lastChange = "2020-04-05 21:58:23 +0000";
layers = (
{
anchors = (
{
name = bottom;
position = "{600, 0}";
},
{
name = top;
position = "{614, 1062}";
}
);
layerId = "4B7A3BAF-EAD8-4024-9BEA-BB1DE86CFCFA";
paths = (
{
closed = 1;
nodes = (
"1039 840 LINE",
"1039 1062 LINE",
"188 1062 LINE",
"188 824 LINE",
"671 824 LINE",
"144 223 LINE",
"144 0 LINE",
"1019 0 LINE",
"1049 239 LINE",
"517 239 LINE"
);
}
);
width = 1200;
},
{
anchors = (
{
name = bottom;
position = "{600, 0}";
},
{
name = top;
position = "{623, 1050}";
}
);
layerId = "B67F0F2D-EC95-4CB8-966E-23AE86958A69";
paths = (
{
closed = 1;
nodes = (
"977 948 LINE",
"977 1050 LINE",
"270 1050 LINE",
"270 932 LINE",
"824 932 LINE",
"223 99 LINE",
"223 0 LINE",
"962 0 LINE",
"981 115 LINE",
"379 115 LINE"
);
}
);
width = 1200;
}
);
unicode = 007A;
},
{
glyphname = x.multiply;
lastChange = "2020-04-05 21:58:23 +0000";
layers = (
{
layerId = "4B7A3BAF-EAD8-4024-9BEA-BB1DE86CFCFA";
paths = (
{
closed = 1;
nodes = (
"600 822 LINE",
"335 1089 LINE",
"161 915 LINE",
"430 652 LINE",
"161 385 LINE",
"335 211 LINE",
"600 482 LINE",
"865 211 LINE",
"1039 385 LINE",
"770 652 LINE",
"1039 915 LINE",
"865 1089 LINE"
);
}
);
width = 1200;
},
{
layerId = "B67F0F2D-EC95-4CB8-966E-23AE86958A69";
paths = (
{
closed = 1;
nodes = (
"600 738 LINE",
"290 1041 LINE",
"203 954 LINE",
"512 649 LINE",
"203 340 LINE",
"290 253 LINE",
"600 561 LINE",
"904 253 LINE",
"991 340 LINE",
"688 649 LINE",
"991 954 LINE",
"904 1041 LINE"
);
}
);
width = 1200;
}
);
},
{
color = 3;
glyphname = i.salt_low;
lastChange = "2020-04-05 21:58:28 +0000";
layers = (
{
anchors = (
{
name = bottom;
position = "{600, 0}";
}
);
layerId = "B67F0F2D-EC95-4CB8-966E-23AE86958A69";
paths = (
{
closed = 1;
nodes = (
"272 964 LINE",
"272 858 LINE",
"594 858 LINE",
"594 108 LINE",
"262 108 LINE",
"262 0 LINE",
"1023 0 LINE",
"1023 108 LINE",
"718 108 LINE",
"718 964 LINE"
);
},
{
closed = 1;
nodes = (
"541 1445 OFFCURVE",
"500 1401 OFFCURVE",
"500 1346 CURVE SMOOTH",
"500 1287 OFFCURVE",
"541 1243 OFFCURVE",
"601 1243 CURVE SMOOTH",
"665 1243 OFFCURVE",
"705 1287 OFFCURVE",
"705 1346 CURVE SMOOTH",
"705 1401 OFFCURVE",
"665 1445 OFFCURVE",
"601 1445 CURVE SMOOTH"
);
}
);
width = 1200;
},
{
anchors = (
{
name = bottom;
position = "{600, 0}";
}
);
layerId = "4B7A3BAF-EAD8-4024-9BEA-BB1DE86CFCFA";
paths = (
{
closed = 1;
nodes = (
"182 995 LINE",
"182 776 LINE",
"473 776 LINE",
"473 216 LINE",
"172 216 LINE",
"172 0 LINE",
"1059 0 LINE",
"1059 216 LINE",
"789 216 LINE",
"789 995 LINE"
);
},
{
closed = 1;
nodes = (
"487 1568 OFFCURVE",
"410 1491 OFFCURVE",
"410 1390 CURVE SMOOTH",
"410 1289 OFFCURVE",
"487 1211 OFFCURVE",
"598 1211 CURVE SMOOTH",
"707 1211 OFFCURVE",
"784 1289 OFFCURVE",
"784 1390 CURVE SMOOTH",
"784 1491 OFFCURVE",
"707 1568 OFFCURVE",
"598 1568 CURVE SMOOTH"
);
}
);
width = 1200;
}
);
},
{
color = 3;
glyphname = j.salt_low;
lastChange = "2020-04-05 21:58:28 +0000";
layers = (
{
anchors = (
{
name = "bottom ";
position = "{600, -386}";
},
{
name = top;
position = "{734, 1050}";
}
);
layerId = "B67F0F2D-EC95-4CB8-966E-23AE86958A69";
paths = (
{
closed = 1;
nodes = (
"295 964 LINE",
"295 858 LINE",
"750 858 LINE",
"750 119 LINE SMOOTH",
"750 -156 OFFCURVE",
"515 -276 OFFCURVE",
"207 -321 CURVE",
"228 -418 LINE",
"631 -355 OFFCURVE",
"874 -192 OFFCURVE",
"874 128 CURVE SMOOTH",
"874 964 LINE"
);
},
{
closed = 1;
nodes = (
"671 1445 OFFCURVE",
"631 1401 OFFCURVE",
"631 1346 CURVE SMOOTH",
"631 1287 OFFCURVE",
"671 1243 OFFCURVE",
"731 1243 CURVE SMOOTH",
"795 1243 OFFCURVE",
"836 1287 OFFCURVE",
"836 1346 CURVE SMOOTH",
"836 1401 OFFCURVE",
"795 1445 OFFCURVE",
"731 1445 CURVE SMOOTH"
);
}
);
width = 1200;
},
{
anchors = (
{
name = "bottom ";
position = "{600, -443}";
},
{
name = top;
position = "{740, 1062}";
}
);
layerId = "4B7A3BAF-EAD8-4024-9BEA-BB1DE86CFCFA";
paths = (
{
closed = 1;
nodes = (
"247 995 LINE",
"247 776 LINE",
"629 776 LINE",
"629 288 LINE SMOOTH",
"629 -21 OFFCURVE",
"461 -129 OFFCURVE",
"139 -202 CURVE",
"189 -443 LINE",
"685 -346 OFFCURVE",
"945 -153 OFFCURVE",
"945 308 CURVE SMOOTH",
"945 995 LINE"
);
},
{
closed = 1;
nodes = (
"629 1568 OFFCURVE",
"552 1491 OFFCURVE",
"552 1390 CURVE SMOOTH",
"552 1289 OFFCURVE",
"629 1211 OFFCURVE",
"740 1211 CURVE SMOOTH",
"849 1211 OFFCURVE",
"926 1289 OFFCURVE",
"926 1390 CURVE SMOOTH",
"926 1491 OFFCURVE",
"849 1568 OFFCURVE",
"740 1568 CURVE SMOOTH"
);
}
);
width = 1200;
}
);
},
{
color = 3;
glyphname = l.salt_low;
lastChange = "2020-04-15 16:46:25 +0000";
layers = (
{
anchors = (
{
name = bottom;
position = "{724, 0}";
},
{
name = center;
position = "{1116, 766}";
},
{
name = top;
position = "{535, 1374}";
},
{
name = topright;
position = "{675, 1374}";
}
);
layerId = "B67F0F2D-EC95-4CB8-966E-23AE86958A69";
paths = (
{
closed = 1;
nodes = (
"136 1374 LINE",
"136 1266 LINE",
"462 1266 LINE",
"462 238 LINE SMOOTH",
"462 74 OFFCURVE",
"593 -20 OFFCURVE",
"759 -20 CURVE SMOOTH",
"857 -20 OFFCURVE",
"940 4 OFFCURVE",
"992 30 CURVE",
"956 126 LINE",
"895 102 OFFCURVE",
"837 88 OFFCURVE",
"771 88 CURVE SMOOTH",
"664 88 OFFCURVE",
"586 129 OFFCURVE",
"586 238 CURVE SMOOTH",
"586 1374 LINE"
);
}
);
width = 1200;
},
{
anchors = (
{
name = bottom;
position = "{710, 0}";
},
{
name = center;
position = "{1136, 766}";
},
{
name = top;
position = "{512, 1386}";
},
{
name = topright;
position = "{754, 1386}";
}
);
layerId = "4B7A3BAF-EAD8-4024-9BEA-BB1DE86CFCFA";
paths = (
{
closed = 1;
nodes = (
"65 1386 LINE",
"65 1170 LINE",
"378 1170 LINE",
"378 373 LINE SMOOTH",
"378 125 OFFCURVE",
"494 -34 OFFCURVE",
"750 -34 CURVE SMOOTH",
"885 -34 OFFCURVE",
"985 -2 OFFCURVE",
"1057 36 CURVE",
"981 247 LINE",
"937 229 OFFCURVE",
"885 215 OFFCURVE",
"831 215 CURVE SMOOTH",
"746 215 OFFCURVE",
"694 248 OFFCURVE",
"694 334 CURVE SMOOTH",
"694 1386 LINE"
);
}
);
width = 1200;
}
);
},
{
color = 3;
glyphname = r.ss01;
lastChange = "2020-04-05 21:58:32 +0000";
layers = (
{
anchors = (
{
name = bottom;
position = "{462, 0}";
},
{
name = top;
position = "{664, 1050}";
}
);
layerId = "B67F0F2D-EC95-4CB8-966E-23AE86958A69";
paths = (
{
closed = 1;
nodes = (
"740 0 LINE",
"740 104 LINE",
"524 104 LINE",
"524 592 LINE",
"599 841 OFFCURVE",
"715 952 OFFCURVE",
"885 952 CURVE SMOOTH",
"930 952 OFFCURVE",
"960 946 OFFCURVE",
"1007 933 CURVE",
"1042 1050 LINE",
"994 1062 OFFCURVE",
"955 1071 OFFCURVE",
"900 1071 CURVE SMOOTH",
"704 1071 OFFCURVE",
"600 969 OFFCURVE",
"518 798 CURVE",
"495 1050 LINE",
"229 1050 LINE",
"229 945 LINE",
"400 945 LINE",
"400 104 LINE",
"229 104 LINE",
"229 0 LINE"
);
}
);
width = 1200;
},
{
anchors = (
{
name = bottom;
position = "{448, 0}";
},
{
name = top;
position = "{650, 1062}";
}
);
layerId = "4B7A3BAF-EAD8-4024-9BEA-BB1DE86CFCFA";
paths = (
{
closed = 1;
nodes = (
"816 0 LINE",
"816 212 LINE",
"606 212 LINE",
"606 516 LINE",
"661 691 OFFCURVE",
"769 817 OFFCURVE",
"908 817 CURVE SMOOTH",
"955 817 OFFCURVE",
"991 811 OFFCURVE",
"1030 801 CURVE",
"1126 1062 LINE",
"1076 1082 OFFCURVE",
"1023 1094 OFFCURVE",
"951 1094 CURVE SMOOTH",
"780 1094 OFFCURVE",
"665 1005 OFFCURVE",
"589 823 CURVE",
"531 1062 LINE",
"150 1062 LINE",
"150 852 LINE",
"290 852 LINE",
"290 212 LINE",
"150 212 LINE",
"150 0 LINE"
);
}
);
width = 1200;
}
);
},
{
color = 3;
export = 0;
glyphname = r.001;
lastChange = "2020-04-05 21:58:32 +0000";
layers = (
{
anchors = (
{
name = bottom;
position = "{448, 0}";
},
{
name = top;
position = "{650, 1062}";
}
);
layerId = "4B7A3BAF-EAD8-4024-9BEA-BB1DE86CFCFA";
paths = (
{
closed = 1;
nodes = (
"606 0 LINE",
"606 516 LINE",
"661 691 OFFCURVE",
"769 817 OFFCURVE",
"908 817 CURVE SMOOTH",
"955 817 OFFCURVE",
"991 811 OFFCURVE",
"1030 801 CURVE",
"1126 1062 LINE",
"1076 1082 OFFCURVE",
"1023 1094 OFFCURVE",
"951 1094 CURVE SMOOTH",
"780 1094 OFFCURVE",
"665 1005 OFFCURVE",
"589 823 CURVE",
"531 1062 LINE",
"150 1062 LINE",
"150 852 LINE",
"290 852 LINE",
"290 0 LINE"
);
},
{
closed = 1;
nodes = (
"1067 618 LINE",
"1126 1062 LINE",
"916 1062 LINE",
"869 928 LINE",
"869 618 LINE"
);
}
);
width = 1200;
},
{
anchors = (
{
name = bottom;
position = "{462, 0}";
},
{
name = top;
position = "{636, 1050}";
}
);
layerId = "B67F0F2D-EC95-4CB8-966E-23AE86958A69";
paths = (
{
closed = 1;
nodes = (
"524 0 LINE",
"524 592 LINE",
"599 841 OFFCURVE",
"715 952 OFFCURVE",
"885 952 CURVE SMOOTH",
"930 952 OFFCURVE",
"960 946 OFFCURVE",
"1007 933 CURVE",
"1042 1050 LINE",
"994 1062 OFFCURVE",
"955 1071 OFFCURVE",
"900 1071 CURVE SMOOTH",
"704 1071 OFFCURVE",
"600 969 OFFCURVE",
"518 798 CURVE",
"495 1050 LINE",
"229 1050 LINE",
"229 945 LINE",
"400 945 LINE",
"400 0 LINE"
);
},
{
closed = 1;
nodes = (
"1028 720 LINE",
"1042 1050 LINE",
"916 1050 LINE",
"908 978 LINE",
"908 720 LINE"
);
}
);
width = 1200;
}
);
},
{
color = 3;
glyphname = w_w_w.liga;
lastChange = "2020-04-05 21:58:38 +0000";
layers = (
{
anchors = (
{
name = bottom;
position = "{-1800, 0}";
},
{
name = top;
position = "{-1800, 1062}";
}
);
layerId = "4B7A3BAF-EAD8-4024-9BEA-BB1DE86CFCFA";
paths = (
{
closed = 1;
nodes = (
"688 197 LINE",
"577 928 LINE",
"311 928 LINE",
"191 197 LINE",
"53 928 LINE",
"-213 928 LINE",
"-326 197 LINE",
"-469 928 LINE",
"-723 928 LINE",
"-866 197 LINE",
"-979 928 LINE",
"-1245 928 LINE",
"-1384 197 LINE",
"-1503 928 LINE",
"-1769 928 LINE",
"-1880 197 LINE",
"-1950 1062 LINE",
"-2239 1062 LINE",
"-2082 0 LINE",
"-1739 0 LINE",
"-1636 714 LINE",
"-1512 0 LINE",
"-1244 0 LINE",
"-1116 714 LINE",
"-992 0 LINE",
"-724 0 LINE",
"-596 714 LINE",
"-468 0 LINE",
"-200 0 LINE",
"-76 714 LINE",
"52 0 LINE",
"319 0 LINE",
"444 714 LINE",
"547 0 LINE",
"890 0 LINE",
"1047 1062 LINE",
"758 1062 LINE"
);
}
);
width = 1200;
},
{
anchors = (
{
name = bottom;
position = "{-1800, 0}";
},
{
name = top;
position = "{-1800, 1050}";
}
);
layerId = "B67F0F2D-EC95-4CB8-966E-23AE86958A69";
paths = (
{
closed = 1;
nodes = (
"711 76 LINE",
"541 916 LINE",
"362 916 LINE",
"152 76 LINE",
"11 916 LINE",
"-174 916 LINE",
"-340 76 LINE",
"-497 916 LINE",
"-681 916 LINE",
"-852 76 LINE",
"-1018 916 LINE",
"-1203 916 LINE",
"-1372 76 LINE",
"-1539 916 LINE",
"-1718 916 LINE",
"-1903 76 LINE",
"-2058 1050 LINE",
"-2194 1050 LINE",
"-1992 0 LINE",
"-1793 0 LINE",
"-1633 790 LINE",
"-1498 0 LINE",
"-1256 0 LINE",
"-1113 790 LINE",
"-975 0 LINE",
"-741 0 LINE",
"-593 790 LINE",
"-459 0 LINE",
"-217 0 LINE",
"-88 790 LINE",
"35 0 LINE",
"268 0 LINE",
"447 790 LINE",
"592 0 LINE",
"800 0 LINE",
"990 1050 LINE",
"866 1050 LINE"
);
}
);
width = 1200;
}
);
},
{
color = 3;
export = 0;
glyphname = fi;
lastChange = "2020-04-05 21:58:38 +0000";
layers = (
{
layerId = "4B7A3BAF-EAD8-4024-9BEA-BB1DE86CFCFA";
paths = (
{
closed = 1;
nodes = (
"1184 216 LINE",
"1056 216 LINE",
"1056 1062 LINE",
"478 1062 LINE",
"478 1137 LINE SMOOTH",
"478 1242 OFFCURVE",
"528 1284 OFFCURVE",
"655 1284 CURVE SMOOTH",
"731 1284 OFFCURVE",
"809 1272 OFFCURVE",
"883 1244 CURVE",
"968 1450 LINE",
"876 1490 OFFCURVE",
"761 1517 OFFCURVE",
"604 1517 CURVE SMOOTH",
"318 1517 OFFCURVE",
"175 1358 OFFCURVE",
"175 1149 CURVE SMOOTH",
"175 1062 LINE",
"21 1062 LINE",
"21 842 LINE",
"175 842 LINE",
"175 0 LINE",
"478 0 LINE",
"478 842 LINE",
"752 842 LINE",
"752 216 LINE",
"630 216 LINE",
"630 0 LINE",
"1184 0 LINE"
);
}
);
width = 1200;
},
{
layerId = "B67F0F2D-EC95-4CB8-966E-23AE86958A69";
paths = (
{
closed = 1;
nodes = (
"1170 108 LINE",
"963 108 LINE",
"963 1050 LINE",
"365 1050 LINE",
"365 1199 LINE SMOOTH",
"365 1321 OFFCURVE",
"446 1383 OFFCURVE",
"604 1383 CURVE SMOOTH",
"686 1383 OFFCURVE",
"764 1368 OFFCURVE",
"829 1337 CURVE",
"875 1438 LINE",
"794 1473 OFFCURVE",
"713 1492 OFFCURVE",
"613 1492 CURVE SMOOTH",
"414 1492 OFFCURVE",
"235 1381 OFFCURVE",
"235 1191 CURVE SMOOTH",
"235 1050 LINE",
"46 1050 LINE",
"46 944 LINE",
"235 944 LINE",
"235 0 LINE",
"365 0 LINE",
"365 944 LINE",
"834 944 LINE",
"834 108 LINE",
"627 108 LINE",
"627 0 LINE",
"1170 0 LINE"
);
}
);
width = 1200;
}
);
unicode = FB01;
},
{
color = 3;
export = 0;
glyphname = fl;
lastChange = "2020-04-05 21:58:38 +0000";
layers = (
{
layerId = "4B7A3BAF-EAD8-4024-9BEA-BB1DE86CFCFA";
paths = (
{
closed = 1;
nodes = (
"1152 232 LINE",
"1130 223 OFFCURVE",
"1104 215 OFFCURVE",
"1079 215 CURVE SMOOTH",
"1035 215 OFFCURVE",
"1006 238 OFFCURVE",
"1006 312 CURVE SMOOTH",
"1006 1515 LINE",
"790 1483 LINE",
"726 1503 OFFCURVE",
"655 1517 OFFCURVE",
"579 1517 CURVE SMOOTH",
"304 1517 OFFCURVE",
"154 1358 OFFCURVE",
"154 1149 CURVE SMOOTH",
"154 1062 LINE",
"12 1062 LINE",
"12 842 LINE",
"154 842 LINE",
"154 0 LINE",
"458 0 LINE",
"458 842 LINE",
"591 842 LINE",
"624 1062 LINE",
"458 1062 LINE",
"458 1137 LINE SMOOTH",
"458 1242 OFFCURVE",
"501 1290 OFFCURVE",
"610 1290 CURVE SMOOTH",
"643 1290 OFFCURVE",
"673 1286 OFFCURVE",
"702 1278 CURVE",
"702 285 LINE SMOOTH",
"702 73 OFFCURVE",
"814 -34 OFFCURVE",
"1008 -34 CURVE SMOOTH",
"1092 -34 OFFCURVE",
"1160 -16 OFFCURVE",
"1214 6 CURVE"
);
}
);
width = 1200;
},
{
layerId = "B67F0F2D-EC95-4CB8-966E-23AE86958A69";
paths = (
{
closed = 1;
nodes = (
"1158 113 LINE",
"1116 96 OFFCURVE",
"1084 88 OFFCURVE",
"1040 88 CURVE SMOOTH",
"970 88 OFFCURVE",
"927 119 OFFCURVE",
"927 219 CURVE SMOOTH",
"927 1487 LINE",
"799 1455 LINE",
"738 1478 OFFCURVE",
"683 1492 OFFCURVE",
"607 1492 CURVE SMOOTH",
"403 1492 OFFCURVE",
"227 1381 OFFCURVE",
"227 1191 CURVE SMOOTH",
"227 1050 LINE",
"32 1050 LINE",
"32 944 LINE",
"227 944 LINE",
"227 0 LINE",
"356 0 LINE",
"356 944 LINE",
"619 944 LINE",
"636 1050 LINE",
"356 1050 LINE",
"356 1199 LINE SMOOTH",
"356 1321 OFFCURVE",
"441 1380 OFFCURVE",
"607 1380 CURVE SMOOTH",
"671 1380 OFFCURVE",
"735 1373 OFFCURVE",
"798 1357 CURVE",
"798 220 LINE SMOOTH",
"798 48 OFFCURVE",
"904 -20 OFFCURVE",
"1028 -20 CURVE SMOOTH",
"1109 -20 OFFCURVE",
"1151 -2 OFFCURVE",
"1200 23 CURVE"
);
}
);
width = 1200;
}
);
unicode = FB02;
},
{
color = 3;
export = 0;
glyphname = f_i.liga;
lastChange = "2020-04-05 21:58:38 +0000";
layers = (
{
anchors = (
{
name = bottom;
position = "{-680, 0}";
},
{
name = top;
position = "{-460, 1475}";
}
);
layerId = "B67F0F2D-EC95-4CB8-966E-23AE86958A69";
paths = (
{
closed = 1;
nodes = (
"-618 964 LINE",
"-618 1199 LINE SMOOTH",
"-618 1321 OFFCURVE",
"-536 1383 OFFCURVE",
"-383 1383 CURVE SMOOTH",
"-301 1383 OFFCURVE",
"-223 1368 OFFCURVE",
"-158 1337 CURVE",
"-113 1438 LINE",
"-193 1473 OFFCURVE",
"-274 1492 OFFCURVE",
"-375 1492 CURVE SMOOTH",
"-573 1492 OFFCURVE",
"-742 1381 OFFCURVE",
"-742 1191 CURVE SMOOTH",
"-742 964 LINE",
"-1002 964 LINE",
"-1002 858 LINE",
"-742 858 LINE",
"-742 0 LINE",
"-618 0 LINE",
"-618 858 LINE",
"594 856 LINE",
"594 108 LINE",
"262 108 LINE",
"262 0 LINE",
"1023 0 LINE",
"1023 108 LINE",
"718 108 LINE",
"718 964 LINE"
);
},
{
closed = 1;
nodes = (
"541 1445 OFFCURVE",
"500 1401 OFFCURVE",
"500 1346 CURVE SMOOTH",
"500 1287 OFFCURVE",
"541 1243 OFFCURVE",
"601 1243 CURVE SMOOTH",
"665 1243 OFFCURVE",
"705 1287 OFFCURVE",
"705 1346 CURVE SMOOTH",
"705 1401 OFFCURVE",
"665 1445 OFFCURVE",
"601 1445 CURVE SMOOTH"
);
}
);
width = 1200;
},
{
anchors = (
{
name = bottom;
position = "{-666, 0}";
},
{
name = top;
position = "{-460, 1484}";
}
);
layerId = "4B7A3BAF-EAD8-4024-9BEA-BB1DE86CFCFA";
paths = (
{
closed = 1;
nodes = (
"-510 995 LINE",
"-510 1137 LINE SMOOTH",
"-510 1242 OFFCURVE",
"-460 1284 OFFCURVE",
"-335 1284 CURVE SMOOTH",
"-259 1284 OFFCURVE",
"-181 1272 OFFCURVE",
"-107 1244 CURVE",
"-20 1450 LINE",
"-114 1490 OFFCURVE",
"-229 1517 OFFCURVE",
"-384 1517 CURVE SMOOTH",
"-672 1517 OFFCURVE",
"-824 1358 OFFCURVE",
"-824 1149 CURVE SMOOTH",
"-824 995 LINE",
"-1047 995 LINE",
"-1047 776 LINE",
"-824 776 LINE",
"-824 0 LINE",
"-510 0 LINE",
"-510 776 LINE",
"473 779 LINE",
"473 216 LINE",
"172 216 LINE",
"172 0 LINE",
"1059 0 LINE",
"1059 216 LINE",
"789 216 LINE",
"789 995 LINE"
);
},
{
closed = 1;
nodes = (
"487 1618 OFFCURVE",
"410 1541 OFFCURVE",
"410 1440 CURVE SMOOTH",
"410 1339 OFFCURVE",
"487 1261 OFFCURVE",
"598 1261 CURVE SMOOTH",
"707 1261 OFFCURVE",
"784 1339 OFFCURVE",
"784 1440 CURVE SMOOTH",
"784 1541 OFFCURVE",
"707 1618 OFFCURVE",
"598 1618 CURVE SMOOTH"
);
}
);
width = 1200;
}
);
},
{
color = 3;
export = 0;
glyphname = f_j.liga;
lastChange = "2020-04-05 21:58:38 +0000";
layers = (
{
anchors = (
{
name = bottom;
position = "{-680, 0}";
},
{
name = "bottom ";
position = "{600, -386}";
},
{
name = top;
position = "{-460, 1475}";
}
);
layerId = "B67F0F2D-EC95-4CB8-966E-23AE86958A69";
paths = (
{
closed = 1;
nodes = (
"-618 964 LINE",
"-618 1199 LINE SMOOTH",
"-618 1321 OFFCURVE",
"-536 1383 OFFCURVE",
"-383 1383 CURVE SMOOTH",
"-301 1383 OFFCURVE",
"-223 1368 OFFCURVE",
"-158 1337 CURVE",
"-113 1438 LINE",
"-193 1473 OFFCURVE",
"-274 1492 OFFCURVE",
"-375 1492 CURVE SMOOTH",
"-573 1492 OFFCURVE",
"-742 1381 OFFCURVE",
"-742 1191 CURVE SMOOTH",
"-742 964 LINE",
"-1002 964 LINE",
"-1002 858 LINE",
"-742 858 LINE",
"-742 0 LINE",
"-618 0 LINE",
"-618 858 LINE",
"750 858 LINE",
"750 119 LINE SMOOTH",
"750 -156 OFFCURVE",
"515 -276 OFFCURVE",
"207 -321 CURVE",
"228 -418 LINE",
"631 -355 OFFCURVE",
"874 -192 OFFCURVE",
"874 128 CURVE SMOOTH",
"874 964 LINE"
);
},
{
closed = 1;
nodes = (
"671 1444 OFFCURVE",
"631 1400 OFFCURVE",
"631 1345 CURVE SMOOTH",
"631 1286 OFFCURVE",
"671 1242 OFFCURVE",
"731 1242 CURVE SMOOTH",
"795 1242 OFFCURVE",
"836 1286 OFFCURVE",
"836 1345 CURVE SMOOTH",
"836 1400 OFFCURVE",
"795 1444 OFFCURVE",
"731 1444 CURVE SMOOTH"
);
}
);
width = 1200;
},
{
anchors = (
{
name = bottom;
position = "{-666, 0}";
},
{
name = "bottom ";
position = "{600, -443}";
},
{
name = top;
position = "{-460, 1484}";
}
);
layerId = "4B7A3BAF-EAD8-4024-9BEA-BB1DE86CFCFA";
paths = (
{
closed = 1;
nodes = (
"-510 995 LINE",
"-510 1137 LINE SMOOTH",
"-510 1242 OFFCURVE",
"-460 1284 OFFCURVE",
"-335 1284 CURVE SMOOTH",
"-259 1284 OFFCURVE",
"-181 1272 OFFCURVE",
"-107 1244 CURVE",
"-20 1450 LINE",
"-114 1490 OFFCURVE",
"-229 1517 OFFCURVE",
"-384 1517 CURVE SMOOTH",
"-672 1517 OFFCURVE",
"-824 1358 OFFCURVE",
"-824 1149 CURVE SMOOTH",
"-824 995 LINE",
"-1047 995 LINE",
"-1047 776 LINE",
"-824 776 LINE",
"-824 0 LINE",
"-510 0 LINE",
"-510 776 LINE",
"629 776 LINE",
"629 288 LINE SMOOTH",
"629 -21 OFFCURVE",
"461 -129 OFFCURVE",
"139 -202 CURVE",
"189 -443 LINE",
"685 -346 OFFCURVE",
"945 -153 OFFCURVE",
"945 308 CURVE SMOOTH",
"945 995 LINE"
);
},
{
closed = 1;
nodes = (
"629 1538 OFFCURVE",
"552 1461 OFFCURVE",
"552 1360 CURVE SMOOTH",
"552 1259 OFFCURVE",
"629 1181 OFFCURVE",
"740 1181 CURVE SMOOTH",
"849 1181 OFFCURVE",
"926 1259 OFFCURVE",
"926 1360 CURVE SMOOTH",
"926 1461 OFFCURVE",
"849 1538 OFFCURVE",
"740 1538 CURVE SMOOTH"
);
}
);
width = 1200;
}
);
rightMetricsKey = j;
},
{
color = 3;
export = 0;
glyphname = f_t.liga;
lastChange = "2020-04-05 21:58:38 +0000";
layers = (
{
anchors = (
{
name = bottom;
position = "{-680, 0}";
},
{
name = center;
position = "{600, 526}";
},
{
name = top;
position = "{-460, 1475}";
},
{
name = topright;
position = "{641, 1471}";
}
);
layerId = "B67F0F2D-EC95-4CB8-966E-23AE86958A69";
paths = (
{
closed = 1;
nodes = (
"-618 964 LINE",
"-618 1199 LINE SMOOTH",
"-618 1321 OFFCURVE",
"-536 1383 OFFCURVE",
"-383 1383 CURVE SMOOTH",
"-301 1383 OFFCURVE",
"-223 1368 OFFCURVE",
"-158 1337 CURVE",
"-113 1438 LINE",
"-193 1473 OFFCURVE",
"-274 1492 OFFCURVE",
"-375 1492 CURVE SMOOTH",
"-573 1492 OFFCURVE",
"-742 1381 OFFCURVE",
"-742 1191 CURVE SMOOTH",
"-742 964 LINE",
"-1002 964 LINE",
"-1002 858 LINE",
"-742 858 LINE",
"-742 0 LINE",
"-618 0 LINE",
"-618 858 LINE",
"420 858 LINE",
"420 275 LINE SMOOTH",
"420 106 OFFCURVE",
"546 -20 OFFCURVE",
"757 -20 CURVE SMOOTH",
"841 -20 OFFCURVE",
"951 5 OFFCURVE",
"1020 50 CURVE",
"966 139 LINE",
"907 108 OFFCURVE",
"840 88 OFFCURVE",
"760 88 CURVE SMOOTH",
"604 88 OFFCURVE",
"544 157 OFFCURVE",
"544 278 CURVE SMOOTH",
"544 858 LINE",
"897 858 LINE",
"914 964 LINE",
"544 964 LINE",
"544 1307 LINE",
"420 1292 LINE",
"420 964 LINE"
);
}
);
width = 1200;
},
{
anchors = (
{
name = bottom;
position = "{-666, 0}";
},
{
name = center;
position = "{600, 532}";
},
{
name = top;
position = "{-460, 1484}";
},
{
name = topright;
position = "{709, 1621}";
}
);
layerId = "4B7A3BAF-EAD8-4024-9BEA-BB1DE86CFCFA";
paths = (
{
closed = 1;
nodes = (
"-510 995 LINE",
"-510 1137 LINE SMOOTH",
"-510 1242 OFFCURVE",
"-460 1284 OFFCURVE",
"-335 1284 CURVE SMOOTH",
"-259 1284 OFFCURVE",
"-181 1272 OFFCURVE",
"-107 1244 CURVE",
"-20 1450 LINE",
"-114 1490 OFFCURVE",
"-229 1517 OFFCURVE",
"-384 1517 CURVE SMOOTH",
"-672 1517 OFFCURVE",
"-824 1358 OFFCURVE",
"-824 1149 CURVE SMOOTH",
"-824 995 LINE",
"-1047 995 LINE",
"-1047 776 LINE",
"-824 776 LINE",
"-824 0 LINE",
"-510 0 LINE",
"-510 776 LINE",
"338 776 LINE",
"338 362 LINE SMOOTH",
"338 118 OFFCURVE",
"470 -34 OFFCURVE",
"748 -34 CURVE SMOOTH",
"895 -34 OFFCURVE",
"1013 8 OFFCURVE",
"1096 62 CURVE",
"991 263 LINE",
"941 235 OFFCURVE",
"879 215 OFFCURVE",
"805 215 CURVE SMOOTH",
"700 215 OFFCURVE",
"654 256 OFFCURVE",
"654 362 CURVE SMOOTH",
"654 776 LINE",
"965 776 LINE",
"996 995 LINE",
"654 995 LINE",
"654 1330 LINE",
"338 1292 LINE",
"338 995 LINE"
);
}
);
width = 1200;
}
);
rightMetricsKey = t;
},
{
color = 3;
export = 0;
glyphname = F_l.liga.rem;
lastChange = "2020-04-15 16:46:25 +0000";
layers = (
{
anchors = (
{
name = bottom;
position = "{-600, 0}";
},
{
name = center;
position = "{1116, 766}";
},
{
name = top;
position = "{-600, 1374}";
},
{
name = topright;
position = "{675, 1475}";
}
);
layerId = "B67F0F2D-EC95-4CB8-966E-23AE86958A69";
paths = (
{
closed = 1;
nodes = (
"-905 1374 LINE",
"-905 0 LINE",
"-779 0 LINE",
"-779 632 LINE",
"-223 632 LINE",
"-223 743 LINE",
"-779 743 LINE",
"-779 1260 LINE",
"462 1260 LINE",
"462 238 LINE SMOOTH",
"462 74 OFFCURVE",
"593 -20 OFFCURVE",
"759 -20 CURVE SMOOTH",
"857 -20 OFFCURVE",
"940 4 OFFCURVE",
"992 30 CURVE",
"956 126 LINE",
"895 102 OFFCURVE",
"837 88 OFFCURVE",
"771 88 CURVE SMOOTH",
"664 88 OFFCURVE",
"586 129 OFFCURVE",
"586 238 CURVE SMOOTH",
"586 1374 LINE"
);
}
);
width = 1200;
},
{
anchors = (
{
name = bottom;
position = "{-600, 0}";
},
{
name = center;
position = "{1136, 766}";
},
{
name = top;
position = "{-600, 1386}";
},
{
name = topright;
position = "{754, 1484}";
}
);
layerId = "4B7A3BAF-EAD8-4024-9BEA-BB1DE86CFCFA";
paths = (
{
closed = 1;
nodes = (
"-984 1386 LINE",
"-984 0 LINE",
"-655 0 LINE",
"-655 550 LINE",
"-169 550 LINE",
"-169 785 LINE",
"-655 785 LINE",
"-655 1152 LINE",
"378 1152 LINE",
"378 373 LINE SMOOTH",
"378 125 OFFCURVE",
"494 -34 OFFCURVE",
"750 -34 CURVE SMOOTH",
"885 -34 OFFCURVE",
"985 -2 OFFCURVE",
"1057 36 CURVE",
"981 247 LINE",
"937 229 OFFCURVE",
"885 215 OFFCURVE",
"831 215 CURVE SMOOTH",
"746 215 OFFCURVE",
"694 248 OFFCURVE",
"694 334 CURVE SMOOTH",
"694 1386 LINE"
);
}
);
width = 1200;
}
);
},
{
color = 3;
export = 0;
glyphname = T_l.liga.rem;
lastChange = "2020-04-15 16:46:25 +0000";
layers = (
{
anchors = (
{
name = bottom;
position = "{-602, 0}";
},
{
name = bottomright;
position = "{-520, 0}";
},
{
name = center;
position = "{-600, 688}";
},
{
name = top;
position = "{-602, 1374}";
},
{
name = topright;
position = "{675, 1475}";
}
);
layerId = "B67F0F2D-EC95-4CB8-966E-23AE86958A69";
paths = (
{
closed = 1;
nodes = (
"-1110 1374 LINE",
"-1110 1256 LINE",
"-667 1256 LINE",
"-667 0 LINE",
"-540 0 LINE",
"-540 1256 LINE",
"462 1256 LINE",
"462 238 LINE SMOOTH",
"462 74 OFFCURVE",
"593 -20 OFFCURVE",
"759 -20 CURVE SMOOTH",
"857 -20 OFFCURVE",
"940 4 OFFCURVE",
"992 30 CURVE",
"956 126 LINE",
"895 102 OFFCURVE",
"837 88 OFFCURVE",
"771 88 CURVE SMOOTH",
"664 88 OFFCURVE",
"586 129 OFFCURVE",
"586 238 CURVE SMOOTH",
"586 1374 LINE"
);
}
);
width = 1200;
},
{
anchors = (
{
name = bottom;
position = "{-602, 0}";
},
{
name = bottomright;
position = "{-418, 0}";
},
{
name = center;
position = "{-600, 694}";
},
{
name = top;
position = "{-602, 1386}";
},
{
name = topright;
position = "{754, 1484}";
}
);
layerId = "4B7A3BAF-EAD8-4024-9BEA-BB1DE86CFCFA";
paths = (
{
closed = 1;
nodes = (
"-1155 1386 LINE",
"-1155 1135 LINE",
"-766 1135 LINE",
"-766 0 LINE",
"-438 0 LINE",
"-438 1135 LINE",
"378 1135 LINE",
"378 373 LINE SMOOTH",
"378 125 OFFCURVE",
"494 -34 OFFCURVE",
"750 -34 CURVE SMOOTH",
"885 -34 OFFCURVE",
"985 -2 OFFCURVE",
"1057 36 CURVE",
"981 247 LINE",
"937 229 OFFCURVE",
"885 215 OFFCURVE",
"831 215 CURVE SMOOTH",
"746 215 OFFCURVE",
"694 248 OFFCURVE",
"694 334 CURVE SMOOTH",
"694 1386 LINE"
);
}
);
width = 1200;
}
);
rightMetricsKey = l;
},
{
color = 3;
export = 0;
glyphname = f_l.liga.rem;
lastChange = "2020-04-15 16:46:25 +0000";
layers = (
{
anchors = (
{
name = bottom;
position = "{-680, 0}";
},
{
name = center;
position = "{1116, 766}";
},
{
name = top;
position = "{-460, 1475}";
},
{
name = topright;
position = "{675, 1475}";
}
);
layerId = "B67F0F2D-EC95-4CB8-966E-23AE86958A69";
paths = (
{
closed = 1;
nodes = (
"-375 1477 LINE",
"-573 1477 OFFCURVE",
"-742 1366 OFFCURVE",
"-742 1176 CURVE SMOOTH",
"-742 964 LINE",
"-1002 964 LINE",
"-1002 858 LINE",
"-742 858 LINE",
"-742 0 LINE",
"-618 0 LINE",
"-618 858 LINE",
"-270 858 LINE",
"-257 964 LINE",
"-618 964 LINE",
"-618 1184 LINE SMOOTH",
"-618 1306 OFFCURVE",
"-536 1368 OFFCURVE",
"-383 1368 CURVE",
"462 1369 LINE",
"462 238 LINE SMOOTH",
"462 74 OFFCURVE",
"593 -20 OFFCURVE",
"759 -20 CURVE SMOOTH",
"857 -20 OFFCURVE",
"940 4 OFFCURVE",
"992 30 CURVE",
"956 126 LINE",
"895 102 OFFCURVE",
"837 88 OFFCURVE",
"771 88 CURVE SMOOTH",
"664 88 OFFCURVE",
"586 129 OFFCURVE",
"586 238 CURVE SMOOTH",
"586 1477 LINE"
);
}
);
width = 1200;
},
{
anchors = (
{
name = bottom;
position = "{-666, 0}";
},
{
name = center;
position = "{1136, 766}";
},
{
name = top;
position = "{-460, 1484}";
},
{
name = topright;
position = "{754, 1484}";
}
);
layerId = "4B7A3BAF-EAD8-4024-9BEA-BB1DE86CFCFA";
paths = (
{
closed = 1;
nodes = (
"-384 1484 LINE SMOOTH",
"-672 1484 OFFCURVE",
"-824 1325 OFFCURVE",
"-824 1116 CURVE SMOOTH",
"-824 995 LINE",
"-1047 995 LINE",
"-1047 776 LINE",
"-824 776 LINE",
"-824 0 LINE",
"-510 0 LINE",
"-510 776 LINE",
"-199 776 LINE",
"-164 995 LINE",
"-510 995 LINE",
"-510 1104 LINE SMOOTH",
"-510 1209 OFFCURVE",
"-460 1251 OFFCURVE",
"-335 1251 CURVE",
"378 1251 LINE",
"378 373 LINE SMOOTH",
"378 125 OFFCURVE",
"494 -34 OFFCURVE",
"750 -34 CURVE SMOOTH",
"885 -34 OFFCURVE",
"985 -2 OFFCURVE",
"1057 36 CURVE",
"981 247 LINE",
"937 229 OFFCURVE",
"885 215 OFFCURVE",
"831 215 CURVE SMOOTH",
"746 215 OFFCURVE",
"694 248 OFFCURVE",
"694 334 CURVE SMOOTH",
"694 1484 LINE"
);
}
);
width = 1200;
}
);
rightMetricsKey = l;
},
{
glyphname = ordfeminine;
lastChange = "2020-04-05 21:58:44 +0000";
layers = (
{
layerId = "4B7A3BAF-EAD8-4024-9BEA-BB1DE86CFCFA";
paths = (
{
closed = 1;
nodes = (
"490 1517 OFFCURVE",
"365 1498 OFFCURVE",
"243 1456 CURVE",
"308 1275 LINE",
"402 1307 OFFCURVE",
"492 1321 OFFCURVE",
"542 1321 CURVE SMOOTH",
"661 1321 OFFCURVE",
"707 1299 OFFCURVE",
"707 1204 CURVE SMOOTH",
"707 1179 LINE",
"601 1179 LINE SMOOTH",
"323 1179 OFFCURVE",
"167 1068 OFFCURVE",
"167 886 CURVE SMOOTH",
"167 722 OFFCURVE",
"289 608 OFFCURVE",
"473 608 CURVE SMOOTH",
"579 608 OFFCURVE",
"675 650 OFFCURVE",
"741 728 CURVE",
"781 656 OFFCURVE",
"848 624 OFFCURVE",
"963 612 CURVE",
"1025 788 LINE",
"983 802 OFFCURVE",
"965 826 OFFCURVE",
"965 884 CURVE SMOOTH",
"965 1212 LINE SMOOTH",
"965 1410 OFFCURVE",
"859 1517 OFFCURVE",
"582 1517 CURVE SMOOTH"
);
},
{
closed = 1;
nodes = (
"200 216 LINE",
"200 0 LINE",
"1027 0 LINE",
"1027 216 LINE"
);
},
{
closed = 1;
nodes = (
"707 889 LINE",
"669 831 OFFCURVE",
"610 794 OFFCURVE",
"552 794 CURVE SMOOTH",
"487 794 OFFCURVE",
"452 829 OFFCURVE",
"452 896 CURVE SMOOTH",
"452 976 OFFCURVE",
"505 1015 OFFCURVE",
"644 1015 CURVE SMOOTH",
"707 1015 LINE"
);
}
);
width = 1200;
},
{
layerId = "B67F0F2D-EC95-4CB8-966E-23AE86958A69";
paths = (
{
closed = 1;
nodes = (
"490 1492 OFFCURVE",
"393 1478 OFFCURVE",
"277 1433 CURVE",
"317 1335 LINE",
"414 1369 OFFCURVE",
"504 1383 OFFCURVE",
"562 1383 CURVE SMOOTH",
"689 1383 OFFCURVE",
"769 1333 OFFCURVE",
"769 1216 CURVE SMOOTH",
"769 1145 LINE",
"649 1145 LINE SMOOTH",
"380 1145 OFFCURVE",
"215 1054 OFFCURVE",
"215 877 CURVE SMOOTH",
"215 719 OFFCURVE",
"337 617 OFFCURVE",
"518 617 CURVE SMOOTH",
"618 617 OFFCURVE",
"720 659 OFFCURVE",
"786 734 CURVE",
"812 659 OFFCURVE",
"862 624 OFFCURVE",
"935 615 CURVE",
"965 704 LINE",
"921 718 OFFCURVE",
"897 744 OFFCURVE",
"897 805 CURVE SMOOTH",
"897 1221 LINE SMOOTH",
"897 1387 OFFCURVE",
"788 1492 OFFCURVE",
"579 1492 CURVE SMOOTH"
);
},
{
closed = 1;
nodes = (
"214 132 LINE",
"214 0 LINE",
"988 0 LINE",
"988 132 LINE"
);
},
{
closed = 1;
nodes = (
"769 832 LINE",
"714 760 OFFCURVE",
"630 715 OFFCURVE",
"543 715 CURVE SMOOTH",
"422 715 OFFCURVE",
"350 772 OFFCURVE",
"350 884 CURVE SMOOTH",
"350 988 OFFCURVE",
"437 1049 OFFCURVE",
"638 1049 CURVE SMOOTH",
"769 1049 LINE"
);
}
);
width = 1200;
}
);
unicode = 00AA;
},
{
glyphname = ordmasculine;
lastChange = "2020-04-05 21:58:44 +0000";
layers = (
{
layerId = "4B7A3BAF-EAD8-4024-9BEA-BB1DE86CFCFA";
paths = (
{
closed = 1;
nodes = (
"325 1517 OFFCURVE",
"157 1322 OFFCURVE",
"157 1064 CURVE SMOOTH",
"157 792 OFFCURVE",
"323 608 OFFCURVE",
"600 608 CURVE SMOOTH",
"875 608 OFFCURVE",
"1043 794 OFFCURVE",
"1043 1064 CURVE SMOOTH",
"1043 1324 OFFCURVE",
"875 1517 OFFCURVE",
"600 1517 CURVE SMOOTH"
);
},
{
closed = 1;
nodes = (
"187 216 LINE",
"187 0 LINE",
"1013 0 LINE",
"1013 216 LINE"
);
},
{
closed = 1;
nodes = (
"703 1321 OFFCURVE",
"766 1249 OFFCURVE",
"766 1064 CURVE SMOOTH",
"766 877 OFFCURVE",
"703 806 OFFCURVE",
"600 806 CURVE SMOOTH",
"497 806 OFFCURVE",
"434 877 OFFCURVE",
"434 1064 CURVE SMOOTH",
"434 1249 OFFCURVE",
"497 1321 OFFCURVE",
"600 1321 CURVE SMOOTH"
);
}
);
width = 1200;
},
{
layerId = "B67F0F2D-EC95-4CB8-966E-23AE86958A69";
paths = (
{
closed = 1;
nodes = (
"361 1492 OFFCURVE",
"202 1316 OFFCURVE",
"202 1055 CURVE SMOOTH",
"202 789 OFFCURVE",
"359 617 OFFCURVE",
"600 617 CURVE SMOOTH",
"839 617 OFFCURVE",
"995 797 OFFCURVE",
"995 1055 CURVE SMOOTH",
"995 1327 OFFCURVE",
"841 1492 OFFCURVE",
"600 1492 CURVE SMOOTH"
);
},
{
closed = 1;
nodes = (
"215 132 LINE",
"215 0 LINE",
"988 0 LINE",
"988 132 LINE"
);
},
{
closed = 1;
nodes = (
"760 1383 OFFCURVE",
"859 1277 OFFCURVE",
"859 1055 CURVE SMOOTH",
"859 832 OFFCURVE",
"760 724 OFFCURVE",
"600 724 CURVE SMOOTH",
"440 724 OFFCURVE",
"338 832 OFFCURVE",
"338 1055 CURVE SMOOTH",
"338 1277 OFFCURVE",
"440 1383 OFFCURVE",
"600 1383 CURVE SMOOTH"
);
}
);
width = 1200;
}
);
unicode = 00BA;
},
{
glyphname = nmod;
lastChange = "2020-04-05 21:58:44 +0000";
layers = (
{
layerId = "4B7A3BAF-EAD8-4024-9BEA-BB1DE86CFCFA";
paths = (
{
closed = 1;
nodes = (
"631 1446 OFFCURVE",
"571 1426 OFFCURVE",
"517 1356 CURVE",
"507 1426 LINE",
"303 1426 LINE",
"303 756 LINE",
"533 756 LINE",
"533 1209 LINE",
"565 1251 OFFCURVE",
"593 1276 OFFCURVE",
"626 1276 CURVE SMOOTH",
"657 1276 OFFCURVE",
"668 1251 OFFCURVE",
"668 1185 CURVE",
"668 756 LINE",
"897 756 LINE",
"897 1240 LINE",
"897 1372 OFFCURVE",
"825 1446 OFFCURVE",
"701 1446 CURVE SMOOTH"
);
}
);
width = 1200;
},
{
layerId = "B67F0F2D-EC95-4CB8-966E-23AE86958A69";
paths = (
{
closed = 1;
nodes = (
"592 1446 OFFCURVE",
"509 1414 OFFCURVE",
"455 1350 CURVE",
"450 1435 LINE",
"345 1435 LINE",
"345 756 LINE",
"462 756 LINE",
"462 1245 LINE",
"497 1293 OFFCURVE",
"565 1349 OFFCURVE",
"632 1349 CURVE SMOOTH",
"728 1349 OFFCURVE",
"741 1293 OFFCURVE",
"741 1157 CURVE",
"741 756 LINE",
"858 756 LINE",
"858 1240 LINE",
"858 1369 OFFCURVE",
"800 1446 OFFCURVE",
"653 1446 CURVE SMOOTH"
);
}
);
width = 1200;
}
);
unicode = 207F;
},
{
glyphname = "Be-cy";
lastChange = "2020-04-05 21:58:52 +0000";
layers = (
{
anchors = (
{
name = bottom;
position = "{600, 0}";
},
{
name = top;
position = "{600, 1386}";
}
);
layerId = "4B7A3BAF-EAD8-4024-9BEA-BB1DE86CFCFA";
paths = (
{
closed = 1;
nodes = (
"114 1386 LINE",
"114 0 LINE",
"599 0 LINE SMOOTH",
"911 0 OFFCURVE",
"1137 153 OFFCURVE",
"1137 455 CURVE SMOOTH",
"1137 747 OFFCURVE",
"931 887 OFFCURVE",
"581 887 CURVE SMOOTH",
"442 887 LINE",
"442 1137 LINE",
"954 1137 LINE",
"986 1386 LINE"
);
},
{
closed = 1;
nodes = (
"721 651 OFFCURVE",
"801 587 OFFCURVE",
"801 453 CURVE SMOOTH",
"801 303 OFFCURVE",
"717 245 OFFCURVE",
"564 245 CURVE SMOOTH",
"442 245 LINE",
"442 651 LINE",
"560 651 LINE SMOOTH"
);
}
);
width = 1200;
},
{
anchors = (
{
name = bottom;
position = "{600, 0}";
},
{
name = top;
position = "{600, 1374}";
}
);
layerId = "B67F0F2D-EC95-4CB8-966E-23AE86958A69";
paths = (
{
closed = 1;
nodes = (
"227 1374 LINE",
"227 0 LINE",
"537 0 LINE SMOOTH",
"849 0 OFFCURVE",
"1069 102 OFFCURVE",
"1069 421 CURVE SMOOTH",
"1069 711 OFFCURVE",
"866 827 OFFCURVE",
"539 827 CURVE SMOOTH",
"355 827 LINE",
"355 1261 LINE",
"954 1261 LINE",
"966 1374 LINE"
);
},
{
closed = 1;
nodes = (
"778 719 OFFCURVE",
"933 644 OFFCURVE",
"933 419 CURVE SMOOTH",
"933 162 OFFCURVE",
"777 110 OFFCURVE",
"576 110 CURVE SMOOTH",
"355 110 LINE",
"355 719 LINE",
"577 719 LINE SMOOTH"
);
}
);
width = 1200;
}
);
unicode = 0411;
},
{
glyphname = "Ge-cy";
lastChange = "2020-04-05 21:58:52 +0000";
layers = (
{
anchors = (
{
name = bottom;
position = "{344, 0}";
},
{
name = bottomright;
position = "{567, 0}";
},
{
name = top;
position = "{665, 1386}";
}
);
layerId = "4B7A3BAF-EAD8-4024-9BEA-BB1DE86CFCFA";
paths = (
{
closed = 1;
nodes = (
"180 1386 LINE",
"180 0 LINE",
"508 0 LINE",
"508 1129 LINE",
"1086 1129 LINE",
"1117 1386 LINE"
);
}
);
width = 1200;
},
{
anchors = (
{
name = bottom;
position = "{364, 0}";
},
{
name = bottomright;
position = "{429, 0}";
},
{
name = top;
position = "{707, 1374}";
}
);
layerId = "B67F0F2D-EC95-4CB8-966E-23AE86958A69";
paths = (
{
closed = 1;
nodes = (
"299 1374 LINE",
"299 0 LINE",
"426 0 LINE",
"426 1253 LINE",
"1066 1253 LINE",
"1081 1374 LINE"
);
}
);
width = 1200;
}
);
unicode = 0413;
},
{
glyphname = "Gheupturn-cy";
lastChange = "2020-04-05 21:58:52 +0000";
layers = (
{
components = (
{
alignment = -1;
name = "Ge-cy";
}
);
layerId = "4B7A3BAF-EAD8-4024-9BEA-BB1DE86CFCFA";
paths = (
{
closed = 1;
nodes = (
"815 1695 LINE",
"815 1366 LINE",
"1117 1386 LINE",
"1117 1695 LINE"
);
}
);
width = 1200;
},
{
components = (
{
alignment = -1;
name = "Ge-cy";
}
);
layerId = "B67F0F2D-EC95-4CB8-966E-23AE86958A69";
paths = (
{
closed = 1;
nodes = (
"950 1661 LINE",
"950 1354 LINE",
"1081 1374 LINE",
"1081 1661 LINE"
);
}
);
width = 1200;
}
);
unicode = 0490;
},
{
glyphname = "De-cy";
lastChange = "2020-04-05 21:58:52 +0000";
layers = (
{
anchors = (
{
name = bottom;
position = "{600, -443}";
},
{
name = top;
position = "{600, 1386}";
}
);
components = (
{
alignment = -1;
name = "descStraight-cy.case";
transform = "{1, 0, 0, 1, 371, 0}";
},
{
alignment = -1;
name = "descStraight-cy.case";
transform = "{-1, 0, 0, 1, 763, 0}";
}
);
layerId = "4B7A3BAF-EAD8-4024-9BEA-BB1DE86CFCFA";
paths = (
{
closed = 1;
nodes = (
"278 1386 LINE",
"237 951 LINE SMOOTH",
"192 478 OFFCURVE",
"147 338 OFFCURVE",
"59 243 CURVE",
"230 0 LINE",
"903 -2 LINE",
"1049 243 LINE",
"1049 1386 LINE"
);
},
{
closed = 1;
nodes = (
"749 243 LINE",
"316 243 LINE",
"446 351 OFFCURVE",
"499 517 OFFCURVE",
"538 978 CURVE SMOOTH",
"552 1154 LINE",
"749 1154 LINE"
);
}
);
width = 1200;
},
{
anchors = (
{
name = bottom;
position = "{600, -386}";
},
{
name = top;
position = "{600, 1374}";
}
);
components = (
{
alignment = -1;
name = "descStraight-cy.case";
transform = "{1, 0, 0, 1, 433, 0}";
},
{
alignment = -1;
name = "descStraight-cy.case";
transform = "{-1, 0, 0, 1, 695, 0}";
}
);
layerId = "B67F0F2D-EC95-4CB8-966E-23AE86958A69";
paths = (
{
closed = 1;
nodes = (
"354 1374 LINE",
"299 990 LINE SMOOTH",
"212 368 OFFCURVE",
"209 228 OFFCURVE",
"93 116 CURVE",
"154 0 LINE",
"974 1 LINE",
"1021 116 LINE",
"1021 1374 LINE"
);
},
{
closed = 1;
nodes = (
"881 116 LINE",
"234 116 LINE",
"353 227 OFFCURVE",
"364 385 OFFCURVE",
"436 966 CURVE SMOOTH",
"470 1253 LINE",
"881 1253 LINE"
);
}
);
width = 1200;
}
);
unicode = 0414;
},
{
glyphname = "Zhe-cy";
lastChange = "2020-04-05 21:58:52 +0000";
layers = (
{
anchors = (
{
name = bottom;
position = "{600, 0}";
},
{
name = bottomright;
position = "{1165, 0}";
},
{
name = top;
position = "{600, 1386}";
}
);
layerId = "4B7A3BAF-EAD8-4024-9BEA-BB1DE86CFCFA";
paths = (
{
closed = 1;
nodes = (
"501 0 LINE",
"699 0 LINE",
"699 640 LINE",
"755 640 LINE",
"912 0 LINE",
"1195 0 LINE",
"981 757 LINE",
"1175 1386 LINE",
"906 1386 LINE",
"753 804 LINE",
"699 804 LINE",
"699 1386 LINE",
"501 1386 LINE",
"501 804 LINE",
"447 804 LINE",
"294 1386 LINE",
"25 1386 LINE",
"219 757 LINE",
"5 0 LINE",
"284 0 LINE",
"441 640 LINE",
"501 640 LINE"
);
}
);
width = 1200;
},
{
anchors = (
{
name = bottom;
position = "{600, 0}";
},
{
name = bottomright;
position = "{1100, 0}";
},
{
name = top;
position = "{600, 1374}";
}
);
layerId = "B67F0F2D-EC95-4CB8-966E-23AE86958A69";
paths = (
{
closed = 1;
nodes = (
"529 0 LINE",
"671 0 LINE",
"671 657 LINE",
"812 657 LINE",
"1031 0 LINE",
"1170 0 LINE",
"916 721 LINE",
"1139 1374 LINE",
"1005 1374 LINE",
"813 792 LINE",
"671 792 LINE",
"671 1374 LINE",
"529 1374 LINE",
"529 792 LINE",
"387 792 LINE",
"198 1374 LINE",
"61 1374 LINE",
"284 721 LINE",
"30 0 LINE",
"165 0 LINE",
"387 657 LINE",
"529 657 LINE"
);
}
);
width = 1200;
}
);
unicode = 0416;
},
{
glyphname = "Ze-cy";
lastChange = "2020-04-05 21:58:52 +0000";
layers = (
{
anchors = (
{
name = bottom;
position = "{574, 0}";
},
{
name = top;
position = "{578, 1386}";
}
);
layerId = "4B7A3BAF-EAD8-4024-9BEA-BB1DE86CFCFA";
paths = (
{
closed = 1;
nodes = (
"359 1421 OFFCURVE",
"183 1360 OFFCURVE",
"49 1242 CURVE",
"208 1075 LINE",
"296 1146 OFFCURVE",
"408 1184 OFFCURVE",
"533 1184 CURVE SMOOTH",
"677 1184 OFFCURVE",
"761 1122 OFFCURVE",
"761 1020 CURVE SMOOTH",
"761 907 OFFCURVE",
"669 851 OFFCURVE",
"531 851 CURVE SMOOTH",
"338 851 LINE",
"301 617 LINE",
"531 617 LINE SMOOTH",
"698 617 OFFCURVE",
"797 551 OFFCURVE",
"797 410 CURVE SMOOTH",
"797 283 OFFCURVE",
"696 206 OFFCURVE",
"535 206 CURVE SMOOTH",
"398 206 OFFCURVE",
"280 250 OFFCURVE",
"182 332 CURVE",
"14 164 LINE",
"135 38 OFFCURVE",
"313 -34 OFFCURVE",
"540 -34 CURVE SMOOTH",
"913 -34 OFFCURVE",
"1125 139 OFFCURVE",
"1125 396 CURVE SMOOTH",
"1125 601 OFFCURVE",
"984 716 OFFCURVE",
"768 738 CURVE",
"968 778 OFFCURVE",
"1083 882 OFFCURVE",
"1083 1052 CURVE SMOOTH",
"1083 1270 OFFCURVE",
"879 1421 OFFCURVE",
"566 1421 CURVE SMOOTH"
);
}
);
width = 1200;
},
{
anchors = (
{
name = bottom;
position = "{591, 0}";
},
{
name = top;
position = "{601, 1374}";
}
);
layerId = "B67F0F2D-EC95-4CB8-966E-23AE86958A69";
paths = (
{
closed = 1;
nodes = (
"390 1393 OFFCURVE",
"248 1337 OFFCURVE",
"111 1225 CURVE",
"191 1140 LINE",
"299 1225 OFFCURVE",
"405 1280 OFFCURVE",
"567 1280 CURVE SMOOTH",
"742 1280 OFFCURVE",
"885 1204 OFFCURVE",
"885 1043 CURVE SMOOTH",
"885 871 OFFCURVE",
"726 800 OFFCURVE",
"567 800 CURVE SMOOTH",
"352 800 LINE",
"337 679 LINE",
"585 679 LINE SMOOTH",
"774 679 OFFCURVE",
"924 599 OFFCURVE",
"924 401 CURVE SMOOTH",
"924 215 OFFCURVE",
"795 98 OFFCURVE",
"563 98 CURVE SMOOTH",
"412 98 OFFCURVE",
"286 154 OFFCURVE",
"176 250 CURVE",
"87 176 LINE",
"206 50 OFFCURVE",
"375 -20 OFFCURVE",
"560 -20 CURVE SMOOTH",
"871 -20 OFFCURVE",
"1068 170 OFFCURVE",
"1068 413 CURVE SMOOTH",
"1068 629 OFFCURVE",
"902 739 OFFCURVE",
"745 752 CURVE",
"886 769 OFFCURVE",
"1021 868 OFFCURVE",
"1021 1038 CURVE SMOOTH",
"1021 1247 OFFCURVE",
"845 1393 OFFCURVE",
"560 1393 CURVE SMOOTH"
);
}
);
width = 1200;
}
);
unicode = 0417;
},
{
glyphname = "Ii-cy";
lastChange = "2020-04-05 21:58:52 +0000";
layers = (
{
anchors = (
{
name = bottom;
position = "{600, 0}";
},
{
name = bottomright;
position = "{1116, 0}";
},
{
name = top;
position = "{600, 1386}";
}
);
layerId = "4B7A3BAF-EAD8-4024-9BEA-BB1DE86CFCFA";
paths = (
{
closed = 1;
nodes = (
"472 0 LINE",
"849 1097 LINE",
"820 926 OFFCURVE",
"796 729 OFFCURVE",
"796 460 CURVE SMOOTH",
"796 0 LINE",
"1096 0 LINE",
"1096 1386 LINE",
"734 1386 LINE",
"349 286 LINE",
"379 454 OFFCURVE",
"404 629 OFFCURVE",
"404 916 CURVE SMOOTH",
"404 1386 LINE",
"104 1386 LINE",
"104 0 LINE"
);
}
);
width = 1200;
},
{
anchors = (
{
name = bottom;
position = "{600, 0}";
},
{
name = bottomright;
position = "{1034, 0}";
},
{
name = top;
position = "{600, 1374}";
}
);
layerId = "B67F0F2D-EC95-4CB8-966E-23AE86958A69";
paths = (
{
closed = 1;
nodes = (
"370 0 LINE",
"903 1247 LINE",
"893 1135 OFFCURVE",
"880 960 OFFCURVE",
"880 768 CURVE SMOOTH",
"880 0 LINE",
"1014 0 LINE",
"1014 1374 LINE",
"833 1374 LINE",
"298 114 LINE",
"314 262 OFFCURVE",
"320 380 OFFCURVE",
"320 611 CURVE SMOOTH",
"320 1374 LINE",
"186 1374 LINE",
"186 0 LINE"
);
}
);
width = 1200;
}
);
unicode = 0418;
},
{
glyphname = "Ka-cy";
lastChange = "2020-04-05 21:58:52 +0000";
layers = (
{
anchors = (
{
name = bottom;
position = "{600, 0}";
},
{
name = bottomright;
position = "{1140, 0}";
},
{
name = top;
position = "{648, 1386}";
}
);
layerId = "4B7A3BAF-EAD8-4024-9BEA-BB1DE86CFCFA";
paths = (
{
closed = 1;
nodes = (
"859 0 LINE",
"1217 0 LINE",
"826 757 LINE",
"1179 1386 LINE",
"860 1386 LINE",
"553 841 LINE",
"432 841 LINE",
"432 1386 LINE",
"104 1386 LINE",
"104 0 LINE",
"432 0 LINE",
"432 603 LINE",
"557 603 LINE"
);
}
);
width = 1200;
},
{
anchors = (
{
name = bottom;
position = "{600, 0}";
},
{
name = bottomright;
position = "{1050, 0}";
},
{
name = top;
position = "{636, 1374}";
}
);
layerId = "B67F0F2D-EC95-4CB8-966E-23AE86958A69";
paths = (
{
closed = 1;
nodes = (
"994 0 LINE",
"1160 0 LINE",
"625 721 LINE",
"1122 1374 LINE",
"973 1374 LINE",
"517 784 LINE",
"342 784 LINE",
"342 1374 LINE",
"214 1374 LINE",
"214 0 LINE",
"342 0 LINE",
"342 665 LINE",
"512 665 LINE"
);
}
);
width = 1200;
}
);
unicode = 041A;
},
{
glyphname = "El-cy";
lastChange = "2020-04-05 21:58:52 +0000";
layers = (
{
anchors = (
{
name = bottom;
position = "{600, 0}";
},
{
name = bottomright;
position = "{1116, 0}";
},
{
name = top;
position = "{600, 1386}";
}
);
layerId = "4B7A3BAF-EAD8-4024-9BEA-BB1DE86CFCFA";
paths = (
{
closed = 1;
nodes = (
"264 1386 LINE",
"223 945 LINE SMOOTH",
"169 359 OFFCURVE",
"108 274 OFFCURVE",
"-25 176 CURVE",
"104 -40 LINE",
"381 92 OFFCURVE",
"467 248 OFFCURVE",
"530 913 CURVE SMOOTH",
"550 1136 LINE",
"768 1136 LINE",
"768 0 LINE",
"1096 0 LINE",
"1096 1386 LINE"
);
}
);
width = 1200;
},
{
anchors = (
{
name = bottom;
position = "{600, 0}";
},
{
name = bottomright;
position = "{1034, 0}";
},
{
name = top;
position = "{600, 1374}";
}
);
layerId = "B67F0F2D-EC95-4CB8-966E-23AE86958A69";
paths = (
{
closed = 1;
nodes = (
"360 1374 LINE",
"271 719 LINE SMOOTH",
"197 203 OFFCURVE",
"122 155 OFFCURVE",
"46 86 CURVE",
"107 -17 LINE",
"257 104 OFFCURVE",
"332 164 OFFCURVE",
"414 792 CURVE SMOOTH",
"471 1255 LINE",
"887 1255 LINE",
"887 0 LINE",
"1014 0 LINE",
"1014 1374 LINE"
);
}
);
width = 1200;
}
);
unicode = 041B;
},
{
glyphname = "Pe-cy";
lastChange = "2020-04-05 21:58:52 +0000";
layers = (
{
anchors = (
{
name = bottom;
position = "{600, 0}";
},
{
name = bottomright;
position = "{1116, 0}";
},
{
name = top;
position = "{600, 1386}";
}
);
layerId = "4B7A3BAF-EAD8-4024-9BEA-BB1DE86CFCFA";
paths = (
{
closed = 1;
nodes = (
"1096 0 LINE",
"1096 1386 LINE",
"104 1386 LINE",
"104 0 LINE",
"432 0 LINE",
"432 1134 LINE",
"768 1134 LINE",
"768 0 LINE"
);
}
);
width = 1200;
},
{
anchors = (
{
name = bottom;
position = "{600, 0}";
},
{
name = bottomright;
position = "{1034, 0}";
},
{
name = top;
position = "{600, 1374}";
}
);
layerId = "B67F0F2D-EC95-4CB8-966E-23AE86958A69";
paths = (
{
closed = 1;
nodes = (
"1014 0 LINE",
"1014 1374 LINE",
"186 1374 LINE",
"186 0 LINE",
"313 0 LINE",
"313 1253 LINE",
"887 1253 LINE",
"887 0 LINE"
);
}
);
width = 1200;
}
);
unicode = 041F;
},
{
glyphname = "U-cy";
lastChange = "2020-04-05 21:58:52 +0000";
layers = (
{
anchors = (
{
name = bottom;
position = "{600, 0}";
},
{
name = top;
position = "{620, 1386}";
}
);
layerId = "4B7A3BAF-EAD8-4024-9BEA-BB1DE86CFCFA";
paths = (
{
closed = 1;
nodes = (
"883 1386 LINE",
"622 554 LINE",
"329 1386 LINE",
"-10 1386 LINE",
"420 366 LINE",
"526 366 LINE",
"464 257 OFFCURVE",
"382 210 OFFCURVE",
"169 190 CURVE",
"213 -34 LINE",
"590 -4 OFFCURVE",
"726 116 OFFCURVE",
"863 471 CURVE SMOOTH",
"1215 1386 LINE"
);
}
);
width = 1200;
},
{
anchors = (
{
name = bottom;
position = "{600, 0}";
},
{
name = top;
position = "{620, 1374}";
}
);
guideLines = (
{
angle = 246.7784;
position = "{822, 923}";
}
);
layerId = "B67F0F2D-EC95-4CB8-966E-23AE86958A69";
paths = (
{
closed = 1;
nodes = (
"1015 1374 LINE",
"628 472 LINE",
"205 1374 LINE",
"72 1374 LINE",
"533 383 LINE",
"591 383 LINE",
"508 189 OFFCURVE",
"439 126 OFFCURVE",
"231 94 CURVE",
"252 -20 LINE",
"517 19 OFFCURVE",
"618 136 OFFCURVE",
"702 327 CURVE SMOOTH",
"1144 1374 LINE"
);
}
);
width = 1200;
}
);
unicode = 0423;
},
{
glyphname = "Ef-cy";
lastChange = "2020-04-05 21:58:52 +0000";
layers = (
{
anchors = (
{
name = bottom;
position = "{600, 0}";
},
{
name = top;
position = "{600, 1386}";
}
);
layerId = "4B7A3BAF-EAD8-4024-9BEA-BB1DE86CFCFA";
paths = (
{
closed = 1;
nodes = (
"487 1459 LINE",
"487 1312 LINE",
"161 1290 OFFCURVE",
"8 1090 OFFCURVE",
"8 700 CURVE SMOOTH",
"8 311 OFFCURVE",
"163 95 OFFCURVE",
"487 76 CURVE",
"487 -77 LINE",
"713 -77 LINE",
"713 76 LINE",
"1035 96 OFFCURVE",
"1192 313 OFFCURVE",
"1192 700 CURVE SMOOTH",
"1192 1090 OFFCURVE",
"1037 1290 OFFCURVE",
"713 1312 CURVE",
"713 1459 LINE"
);
},
{
closed = 1;
nodes = (
"506 256 LINE",
"356 272 OFFCURVE",
"315 403 OFFCURVE",
"315 700 CURVE SMOOTH",
"315 1001 OFFCURVE",
"364 1120 OFFCURVE",
"506 1135 CURVE"
);
},
{
closed = 1;
nodes = (
"838 1120 OFFCURVE",
"885 1001 OFFCURVE",
"885 700 CURVE SMOOTH",
"885 403 OFFCURVE",
"844 272 OFFCURVE",
"694 256 CURVE",
"694 1135 LINE"
);
}
);
width = 1200;
},
{
anchors = (
{
name = bottom;
position = "{600, 0}";
},
{
name = top;
position = "{600, 1374}";
}
);
layerId = "B67F0F2D-EC95-4CB8-966E-23AE86958A69";
paths = (
{
closed = 1;
nodes = (
"523 1428 LINE",
"523 1321 LINE",
"189 1296 OFFCURVE",
"31 1087 OFFCURVE",
"31 691 CURVE SMOOTH",
"31 275 OFFCURVE",
"211 70 OFFCURVE",
"523 59 CURVE",
"523 -52 LINE",
"677 -52 LINE",
"677 59 LINE",
"987 73 OFFCURVE",
"1169 277 OFFCURVE",
"1169 691 CURVE SMOOTH",
"1169 1087 OFFCURVE",
"1012 1296 OFFCURVE",
"677 1321 CURVE",
"677 1428 LINE"
);
},
{
closed = 1;
nodes = (
"520 172 LINE",
"277 190 OFFCURVE",
"168 341 OFFCURVE",
"168 691 CURVE SMOOTH",
"168 1066 OFFCURVE",
"285 1202 OFFCURVE",
"520 1206 CURVE"
);
},
{
closed = 1;
nodes = (
"914 1202 OFFCURVE",
"1032 1066 OFFCURVE",
"1032 691 CURVE SMOOTH",
"1032 341 OFFCURVE",
"923 190 OFFCURVE",
"680 172 CURVE",
"680 1206 LINE"
);
}
);
width = 1200;
}
);
unicode = 0424;
},
{
glyphname = "Che-cy";
lastChange = "2020-04-05 21:58:52 +0000";
layers = (
{
anchors = (
{
name = bottom;
position = "{600, 0}";
},
{
name = bottomleft;
position = "{748, 0}";
},
{
name = bottomright;
position = "{1116, 0}";
},
{
name = top;
position = "{572, 1386}";
}
);
layerId = "4B7A3BAF-EAD8-4024-9BEA-BB1DE86CFCFA";
paths = (
{
closed = 1;
nodes = (
"49 1386 LINE",
"49 867 LINE SMOOTH",
"49 557 OFFCURVE",
"209 395 OFFCURVE",
"481 395 CURVE SMOOTH",
"609 395 OFFCURVE",
"711 437 OFFCURVE",
"793 506 CURVE",
"786 728 LINE",
"742 681 OFFCURVE",
"681 639 OFFCURVE",
"571 639 CURVE SMOOTH",
"434 639 OFFCURVE",
"377 703 OFFCURVE",
"377 878 CURVE SMOOTH",
"377 1386 LINE"
);
},
{
closed = 1;
nodes = (
"768 1386 LINE",
"768 0 LINE",
"1096 0 LINE",
"1096 1386 LINE"
);
}
);
width = 1200;
},
{
anchors = (
{
name = bottom;
position = "{600, 0}";
},
{
name = bottomleft;
position = "{867, 0}";
},
{
name = bottomright;
position = "{1034, 0}";
},
{
name = top;
position = "{581, 1374}";
}
);
layerId = "B67F0F2D-EC95-4CB8-966E-23AE86958A69";
paths = (
{
closed = 1;
nodes = (
"117 1374 LINE",
"117 839 LINE SMOOTH",
"117 611 OFFCURVE",
"277 452 OFFCURVE",
"509 452 CURVE SMOOTH",
"680 452 OFFCURVE",
"776 499 OFFCURVE",
"931 619 CURVE",
"905 731 LINE",
"829 647 OFFCURVE",
"712 577 OFFCURVE",
"537 577 CURVE SMOOTH",
"355 577 OFFCURVE",
"245 667 OFFCURVE",
"245 855 CURVE SMOOTH",
"245 1374 LINE"
);
},
{
closed = 1;
nodes = (
"887 1374 LINE",
"887 0 LINE",
"1014 0 LINE",
"1014 1374 LINE"
);
}
);
width = 1200;
}
);
unicode = 0427;
},
{
glyphname = "Sha-cy";
lastChange = "2020-04-05 21:58:52 +0000";
layers = (
{
anchors = (
{
name = bottom;
position = "{600, 0}";
},
{
name = bottomright;
position = "{1149, 0}";
},
{
name = top;
position = "{600, 1386}";
}
);
layerId = "4B7A3BAF-EAD8-4024-9BEA-BB1DE86CFCFA";
paths = (
{
closed = 1;
nodes = (
"870 1386 LINE",
"870 224 LINE",
"715 224 LINE",
"715 1386 LINE",
"485 1386 LINE",
"485 224 LINE",
"330 224 LINE",
"330 1386 LINE",
"71 1386 LINE",
"71 0 LINE",
"1129 0 LINE",
"1129 1386 LINE"
);
}
);
width = 1200;
},
{
anchors = (
{
name = bottom;
position = "{600, 0}";
},
{
name = bottomright;
position = "{1121, 0}";
},
{
name = top;
position = "{600, 1374}";
}
);
layerId = "B67F0F2D-EC95-4CB8-966E-23AE86958A69";
paths = (
{
closed = 1;
nodes = (
"966 1374 LINE",
"966 122 LINE",
"667 122 LINE",
"667 1374 LINE",
"533 1374 LINE",
"533 122 LINE",
"234 122 LINE",
"234 1374 LINE",
"99 1374 LINE",
"99 0 LINE",
"1101 0 LINE",
"1101 1374 LINE"
);
}
);
width = 1200;
}
);
unicode = 0428;
},
{
glyphname = "Softsign-cy";
lastChange = "2020-04-05 21:58:52 +0000";
layers = (
{
anchors = (
{
name = bottom;
position = "{600, 0}";
},
{
name = top;
position = "{600, 1386}";
}
);
layerId = "4B7A3BAF-EAD8-4024-9BEA-BB1DE86CFCFA";
paths = (
{
closed = 1;
nodes = (
"110 1386 LINE",
"110 0 LINE",
"595 0 LINE SMOOTH",
"931 0 OFFCURVE",
"1153 151 OFFCURVE",
"1153 471 CURVE SMOOTH",
"1153 777 OFFCURVE",
"935 919 OFFCURVE",
"574 919 CURVE SMOOTH",
"438 919 LINE",
"438 1386 LINE"
);
},
{
closed = 1;
nodes = (
"733 685 OFFCURVE",
"815 619 OFFCURVE",
"815 469 CURVE SMOOTH",
"815 307 OFFCURVE",
"729 239 OFFCURVE",
"574 239 CURVE SMOOTH",
"438 239 LINE",
"438 685 LINE",
"563 685 LINE SMOOTH"
);
}
);
width = 1200;
},
{
anchors = (
{
name = bottom;
position = "{600, 0}";
},
{
name = top;
position = "{600, 1374}";
}
);
layerId = "B67F0F2D-EC95-4CB8-966E-23AE86958A69";
paths = (
{
closed = 1;
nodes = (
"212 1374 LINE",
"212 0 LINE",
"564 0 LINE SMOOTH",
"866 0 OFFCURVE",
"1088 115 OFFCURVE",
"1088 435 CURVE SMOOTH",
"1088 729 OFFCURVE",
"890 851 OFFCURVE",
"568 851 CURVE SMOOTH",
"339 851 LINE",
"339 1374 LINE"
);
},
{
closed = 1;
nodes = (
"793 742 OFFCURVE",
"947 664 OFFCURVE",
"947 433 CURVE SMOOTH",
"947 166 OFFCURVE",
"791 112 OFFCURVE",
"597 112 CURVE SMOOTH",
"339 112 LINE",
"339 742 LINE",
"602 742 LINE SMOOTH"
);
}
);
width = 1200;
}
);
unicode = 042C;
},
{
glyphname = "Hardsign-cy";
lastChange = "2020-04-05 21:58:52 +0000";
layers = (
{
layerId = "4B7A3BAF-EAD8-4024-9BEA-BB1DE86CFCFA";
paths = (
{
closed = 1;
nodes = (
"-6 1386 LINE",
"-6 1146 LINE",
"182 1146 LINE",
"182 0 LINE",
"618 0 LINE SMOOTH",
"944 0 OFFCURVE",
"1174 145 OFFCURVE",
"1174 471 CURVE SMOOTH",
"1174 777 OFFCURVE",
"956 919 OFFCURVE",
"595 919 CURVE SMOOTH",
"490 919 LINE",
"490 1386 LINE"
);
},
{
closed = 1;
nodes = (
"760 691 OFFCURVE",
"840 619 OFFCURVE",
"840 469 CURVE SMOOTH",
"840 288 OFFCURVE",
"735 234 OFFCURVE",
"559 234 CURVE SMOOTH",
"490 234 LINE",
"490 691 LINE",
"584 691 LINE SMOOTH"
);
}
);
width = 1200;
},
{
layerId = "B67F0F2D-EC95-4CB8-966E-23AE86958A69";
paths = (
{
closed = 1;
nodes = (
"3 1374 LINE",
"3 1248 LINE",
"261 1248 LINE",
"261 0 LINE",
"635 0 LINE SMOOTH",
"941 0 OFFCURVE",
"1160 114 OFFCURVE",
"1160 435 CURVE SMOOTH",
"1160 729 OFFCURVE",
"962 851 OFFCURVE",
"640 851 CURVE SMOOTH",
"397 851 LINE",
"397 1374 LINE"
);
},
{
closed = 1;
nodes = (
"868 739 OFFCURVE",
"1023 664 OFFCURVE",
"1023 433 CURVE SMOOTH",
"1023 172 OFFCURVE",
"876 115 OFFCURVE",
"691 115 CURVE SMOOTH",
"397 115 LINE",
"397 739 LINE",
"680 739 LINE SMOOTH"
);
}
);
width = 1200;
}
);
unicode = 042A;
},
{
glyphname = "Yeru-cy";
lastChange = "2020-04-05 21:58:52 +0000";
layers = (
{
anchors = (
{
name = bottom;
position = "{600, 0}";
},
{
name = top;
position = "{600, 1386}";
}
);
layerId = "4B7A3BAF-EAD8-4024-9BEA-BB1DE86CFCFA";
paths = (
{
closed = 1;
nodes = (
"43 1386 LINE",
"43 0 LINE",
"333 0 LINE SMOOTH",
"637 0 OFFCURVE",
"837 144 OFFCURVE",
"837 473 CURVE SMOOTH",
"837 776 OFFCURVE",
"649 924 OFFCURVE",
"329 924 CURVE SMOOTH",
"310 924 LINE",
"310 1386 LINE"
);
},
{
closed = 1;
nodes = (
"490 703 OFFCURVE",
"557 628 OFFCURVE",
"557 471 CURVE SMOOTH",
"557 282 OFFCURVE",
"477 226 OFFCURVE",
"337 226 CURVE SMOOTH",
"310 226 LINE",
"310 703 LINE",
"357 703 LINE SMOOTH"
);
},
{
closed = 1;
nodes = (
"890 1386 LINE",
"890 0 LINE",
"1157 0 LINE",
"1157 1386 LINE"
);
}
);
width = 1200;
},
{
anchors = (
{
name = bottom;
position = "{600, 0}";
},
{
name = top;
position = "{600, 1374}";
}
);
layerId = "B67F0F2D-EC95-4CB8-966E-23AE86958A69";
paths = (
{
closed = 1;
nodes = (
"68 1374 LINE",
"68 0 LINE",
"378 0 LINE SMOOTH",
"694 0 OFFCURVE",
"868 144 OFFCURVE",
"868 434 CURVE SMOOTH",
"868 697 OFFCURVE",
"714 848 OFFCURVE",
"374 848 CURVE SMOOTH",
"217 848 LINE",
"217 1374 LINE"
);
},
{
closed = 1;
nodes = (
"603 742 OFFCURVE",
"713 637 OFFCURVE",
"713 432 CURVE SMOOTH",
"713 203 OFFCURVE",
"601 113 OFFCURVE",
"399 113 CURVE SMOOTH",
"217 113 LINE",
"217 742 LINE",
"391 742 LINE SMOOTH"
);
},
{
closed = 1;
nodes = (
"983 1374 LINE",
"983 0 LINE",
"1132 0 LINE",
"1132 1374 LINE"
);
}
);
width = 1200;
}
);
unicode = 042B;
},
{
glyphname = "Lje-cy";
lastChange = "2020-04-05 21:58:52 +0000";
layers = (
{
anchors = (
{
name = bottom;
position = "{600, 0}";
},
{
name = top;
position = "{600, 1386}";
}
);
layerId = "4B7A3BAF-EAD8-4024-9BEA-BB1DE86CFCFA";
paths = (
{
closed = 1;
nodes = (
"122 1386 LINE",
"82 644 LINE SMOOTH",
"61 269 OFFCURVE",
"27 197 OFFCURVE",
"-29 148 CURVE",
"88 -40 LINE",
"243 64 OFFCURVE",
"315 140 OFFCURVE",
"337 608 CURVE SMOOTH",
"364 1178 LINE",
"478 1178 LINE",
"478 0 LINE",
"730 0 LINE SMOOTH",
"1016 0 OFFCURVE",
"1200 147 OFFCURVE",
"1200 471 CURVE SMOOTH",
"1200 775 OFFCURVE",
"1028 919 OFFCURVE",
"728 919 CURVE",
"728 1386 LINE"
);
},
{
closed = 1;
nodes = (
"879 713 OFFCURVE",
"930 625 OFFCURVE",
"930 469 CURVE SMOOTH",
"930 307 OFFCURVE",
"881 212 OFFCURVE",
"758 212 CURVE SMOOTH",
"728 212 LINE",
"728 713 LINE",
"748 713 LINE SMOOTH"
);
}
);
width = 1200;
},
{
anchors = (
{
name = bottom;
position = "{600, 0}";
},
{
name = top;
position = "{600, 1374}";
}
);
layerId = "B67F0F2D-EC95-4CB8-966E-23AE86958A69";
paths = (
{
closed = 1;
nodes = (
"221 1374 LINE",
"155 621 LINE SMOOTH",
"121 224 OFFCURVE",
"75 149 OFFCURVE",
"13 75 CURVE",
"94 -17 LINE",
"201 70 OFFCURVE",
"253 128 OFFCURVE",
"295 625 CURVE SMOOTH",
"347 1251 LINE",
"557 1251 LINE",
"557 0 LINE",
"724 0 LINE SMOOTH",
"1019 0 OFFCURVE",
"1200 119 OFFCURVE",
"1200 435 CURVE SMOOTH",
"1200 724 OFFCURVE",
"1040 851 OFFCURVE",
"705 851 CURVE",
"705 1374 LINE"
);
},
{
closed = 1;
nodes = (
"936 738 OFFCURVE",
"1046 664 OFFCURVE",
"1046 433 CURVE SMOOTH",
"1046 166 OFFCURVE",
"929 119 OFFCURVE",
"735 119 CURVE SMOOTH",
"705 119 LINE",
"705 738 LINE",
"739 738 LINE SMOOTH"
);
}
);
width = 1200;
}
);
unicode = 0409;
},
{
glyphname = "Nje-cy";
lastChange = "2020-04-05 21:58:52 +0000";
layers = (
{
anchors = (
{
name = bottom;
position = "{600, 0}";
},
{
name = top;
position = "{600, 1386}";
}
);
layerId = "4B7A3BAF-EAD8-4024-9BEA-BB1DE86CFCFA";
paths = (
{
closed = 1;
nodes = (
"482 1386 LINE",
"482 869 LINE",
"314 869 LINE",
"314 1386 LINE",
"57 1386 LINE",
"57 0 LINE",
"314 0 LINE",
"314 643 LINE",
"482 643 LINE",
"482 0 LINE",
"720 0 LINE SMOOTH",
"1039 0 OFFCURVE",
"1200 151 OFFCURVE",
"1200 453 CURVE SMOOTH",
"1200 737 OFFCURVE",
"1022 865 OFFCURVE",
"739 869 CURVE",
"739 1386 LINE"
);
},
{
closed = 1;
nodes = (
"879 647 OFFCURVE",
"936 597 OFFCURVE",
"936 451 CURVE SMOOTH",
"936 295 OFFCURVE",
"887 229 OFFCURVE",
"750 226 CURVE SMOOTH",
"739 226 LINE",
"739 649 LINE",
"750 649 LINE SMOOTH"
);
}
);
width = 1200;
},
{
anchors = (
{
name = bottom;
position = "{600, 0}";
},
{
name = top;
position = "{600, 1374}";
}
);
layerId = "B67F0F2D-EC95-4CB8-966E-23AE86958A69";
paths = (
{
closed = 1;
nodes = (
"555 1374 LINE",
"555 815 LINE",
"235 815 LINE",
"235 1374 LINE",
"91 1374 LINE",
"91 0 LINE",
"235 0 LINE",
"235 714 LINE",
"555 714 LINE",
"555 0 LINE",
"729 0 LINE SMOOTH",
"1008 0 OFFCURVE",
"1200 100 OFFCURVE",
"1200 417 CURVE SMOOTH",
"1200 695 OFFCURVE",
"1042 817 OFFCURVE",
"700 815 CURVE",
"700 1374 LINE"
);
},
{
closed = 1;
nodes = (
"936 712 OFFCURVE",
"1044 639 OFFCURVE",
"1044 415 CURVE SMOOTH",
"1044 151 OFFCURVE",
"926 108 OFFCURVE",
"738 110 CURVE SMOOTH",
"700 110 LINE",
"700 711 LINE",
"738 711 LINE SMOOTH"
);
}
);
width = 1200;
}
);
unicode = 040A;
},
{
glyphname = "E-cy";
lastChange = "2020-04-05 21:58:52 +0000";
layers = (
{
anchors = (
{
name = bottom;
position = "{600, 0}";
},
{
name = top;
position = "{600, 1386}";
}
);
layerId = "4B7A3BAF-EAD8-4024-9BEA-BB1DE86CFCFA";
paths = (
{
closed = 1;
nodes = (
"345 1421 OFFCURVE",
"67 1160 OFFCURVE",
"67 696 CURVE SMOOTH",
"67 220 OFFCURVE",
"327 -34 OFFCURVE",
"708 -34 CURVE SMOOTH",
"927 -34 OFFCURVE",
"1077 48 OFFCURVE",
"1179 146 CURVE",
"1034 322 LINE",
"952 264 OFFCURVE",
"866 214 OFFCURVE",
"730 214 CURVE SMOOTH",
"550 214 OFFCURVE",
"417 330 OFFCURVE",
"401 583 CURVE",
"914 583 LINE",
"914 835 LINE",
"401 835 LINE",
"421 1076 OFFCURVE",
"562 1184 OFFCURVE",
"737 1184 CURVE SMOOTH",
"843 1184 OFFCURVE",
"924 1146 OFFCURVE",
"1006 1090 CURVE",
"1160 1268 LINE",
"1041 1362 OFFCURVE",
"915 1421 OFFCURVE",
"716 1421 CURVE SMOOTH"
);
}
);
width = 1200;
},
{
anchors = (
{
name = bottom;
position = "{600, 0}";
},
{
name = top;
position = "{600, 1374}";
}
);
layerId = "B67F0F2D-EC95-4CB8-966E-23AE86958A69";
paths = (
{
closed = 1;
nodes = (
"399 1393 OFFCURVE",
"129 1151 OFFCURVE",
"129 687 CURVE SMOOTH",
"129 229 OFFCURVE",
"375 -20 OFFCURVE",
"708 -20 CURVE SMOOTH",
"899 -20 OFFCURVE",
"1029 51 OFFCURVE",
"1108 123 CURVE",
"1031 217 LINE",
"969 156 OFFCURVE",
"869 95 OFFCURVE",
"710 95 CURVE SMOOTH",
"471 95 OFFCURVE",
"279 254 OFFCURVE",
"263 651 CURVE",
"905 651 LINE",
"905 764 LINE",
"269 764 LINE",
"297 1149 OFFCURVE",
"489 1280 OFFCURVE",
"709 1280 CURVE SMOOTH",
"815 1280 OFFCURVE",
"921 1251 OFFCURVE",
"1018 1180 CURVE",
"1087 1265 LINE",
"984 1348 OFFCURVE",
"873 1393 OFFCURVE",
"702 1393 CURVE SMOOTH"
);
}
);
width = 1200;
}
);
unicode = 0404;
},
{
glyphname = "Ereversed-cy";
lastChange = "2020-04-05 21:58:52 +0000";
layers = (
{
anchors = (
{
name = bottom;
position = "{600, 0}";
},
{
name = top;
position = "{557, 1378}";
}
);
layerId = "4B7A3BAF-EAD8-4024-9BEA-BB1DE86CFCFA";
paths = (
{
closed = 1;
nodes = (
"317 1421 OFFCURVE",
"171 1353 OFFCURVE",
"44 1248 CURVE",
"196 1075 LINE",
"270 1130 OFFCURVE",
"362 1184 OFFCURVE",
"493 1184 CURVE SMOOTH",
"670 1184 OFFCURVE",
"775 1087 OFFCURVE",
"787 825 CURVE",
"274 825 LINE",
"274 593 LINE",
"787 593 LINE",
"777 319 OFFCURVE",
"660 214 OFFCURVE",
"483 214 CURVE SMOOTH",
"357 214 OFFCURVE",
"270 254 OFFCURVE",
"180 320 CURVE",
"28 142 LINE",
"141 30 OFFCURVE",
"299 -34 OFFCURVE",
"485 -34 CURVE SMOOTH",
"864 -34 OFFCURVE",
"1121 208 OFFCURVE",
"1121 702 CURVE SMOOTH",
"1121 1174 OFFCURVE",
"897 1421 OFFCURVE",
"520 1421 CURVE SMOOTH"
);
}
);
width = 1200;
},
{
anchors = (
{
name = bottom;
position = "{600, 0}";
},
{
name = top;
position = "{585, 1378}";
}
);
layerId = "B67F0F2D-EC95-4CB8-966E-23AE86958A69";
paths = (
{
closed = 1;
nodes = (
"351 1393 OFFCURVE",
"213 1311 OFFCURVE",
"117 1225 CURVE",
"196 1143 LINE",
"282 1214 OFFCURVE",
"379 1280 OFFCURVE",
"541 1280 CURVE SMOOTH",
"772 1280 OFFCURVE",
"910 1141 OFFCURVE",
"931 768 CURVE",
"297 768 LINE",
"297 647 LINE",
"931 647 LINE",
"912 271 OFFCURVE",
"779 95 OFFCURVE",
"519 95 CURVE SMOOTH",
"391 95 OFFCURVE",
"287 141 OFFCURVE",
"192 233 CURVE",
"101 156 LINE",
"201 53 OFFCURVE",
"353 -20 OFFCURVE",
"533 -20 CURVE SMOOTH",
"861 -20 OFFCURVE",
"1064 231 OFFCURVE",
"1064 708 CURVE SMOOTH",
"1064 1171 OFFCURVE",
"861 1393 OFFCURVE",
"543 1393 CURVE SMOOTH"
);
}
);
width = 1200;
}
);
unicode = 042D;
},
{
glyphname = "Tshe-cy";
lastChange = "2020-04-05 21:58:52 +0000";
layers = (
{
layerId = "4B7A3BAF-EAD8-4024-9BEA-BB1DE86CFCFA";
paths = (
{
closed = 1;
nodes = (
"-16 1386 LINE",
"-16 1152 LINE",
"261 1152 LINE",
"261 0 LINE",
"568 0 LINE",
"568 640 LINE",
"606 676 OFFCURVE",
"653 705 OFFCURVE",
"720 705 CURVE SMOOTH",
"818 705 OFFCURVE",
"857 658 OFFCURVE",
"857 533 CURVE SMOOTH",
"857 0 LINE",
"1163 0 LINE",
"1163 504 LINE SMOOTH",
"1163 795 OFFCURVE",
"1039 941 OFFCURVE",
"805 941 CURVE SMOOTH",
"708 941 OFFCURVE",
"632 906 OFFCURVE",
"568 852 CURVE",
"568 1152 LINE",
"847 1152 LINE",
"881 1386 LINE"
);
}
);
width = 1200;
},
{
layerId = "B67F0F2D-EC95-4CB8-966E-23AE86958A69";
paths = (
{
closed = 1;
nodes = (
"-7 1374 LINE",
"-7 1257 LINE",
"329 1257 LINE",
"329 0 LINE",
"463 0 LINE",
"463 643 LINE",
"519 693 OFFCURVE",
"602 762 OFFCURVE",
"743 762 CURVE SMOOTH",
"923 762 OFFCURVE",
"989 675 OFFCURVE",
"989 465 CURVE SMOOTH",
"989 0 LINE",
"1124 0 LINE",
"1124 490 LINE SMOOTH",
"1124 747 OFFCURVE",
"1011 887 OFFCURVE",
"769 887 CURVE SMOOTH",
"635 887 OFFCURVE",
"539 833 OFFCURVE",
"463 759 CURVE",
"463 1257 LINE",
"796 1257 LINE",
"810 1374 LINE"
);
}
);
width = 1200;
}
);
unicode = 040B;
},
{
glyphname = "Iu-cy";
lastChange = "2020-04-05 21:58:52 +0000";
layers = (
{
anchors = (
{
name = bottom;
position = "{600, 0}";
},
{
name = top;
position = "{600, 1386}";
}
);
layerId = "4B7A3BAF-EAD8-4024-9BEA-BB1DE86CFCFA";
paths = (
{
closed = 1;
nodes = (
"526 1421 OFFCURVE",
"422 1205 OFFCURVE",
"406 827 CURVE",
"313 827 LINE",
"313 1386 LINE",
"63 1386 LINE",
"63 0 LINE",
"313 0 LINE",
"313 605 LINE",
"404 605 LINE",
"414 189 OFFCURVE",
"509 -34 OFFCURVE",
"788 -34 CURVE SMOOTH",
"1077 -34 OFFCURVE",
"1176 214 OFFCURVE",
"1176 694 CURVE SMOOTH",
"1176 1179 OFFCURVE",
"1082 1421 OFFCURVE",
"788 1421 CURVE SMOOTH"
);
},
{
closed = 1;
nodes = (
"881 1205 OFFCURVE",
"904 1104 OFFCURVE",
"904 694 CURVE SMOOTH",
"904 287 OFFCURVE",
"879 182 OFFCURVE",
"788 182 CURVE SMOOTH",
"694 182 OFFCURVE",
"671 289 OFFCURVE",
"671 696 CURVE SMOOTH",
"671 1104 OFFCURVE",
"698 1205 OFFCURVE",
"788 1205 CURVE SMOOTH"
);
}
);
width = 1200;
},
{
anchors = (
{
name = bottom;
position = "{600, 0}";
},
{
name = top;
position = "{600, 1374}";
}
);
layerId = "B67F0F2D-EC95-4CB8-966E-23AE86958A69";
paths = (
{
closed = 1;
nodes = (
"512 1393 OFFCURVE",
"410 1174 OFFCURVE",
"394 773 CURVE",
"245 773 LINE",
"245 1374 LINE",
"102 1374 LINE",
"102 0 LINE",
"245 0 LINE",
"245 653 LINE",
"392 653 LINE",
"397 260 OFFCURVE",
"484 -20 OFFCURVE",
"774 -20 CURVE SMOOTH",
"1041 -20 OFFCURVE",
"1153 234 OFFCURVE",
"1153 685 CURVE SMOOTH",
"1153 1148 OFFCURVE",
"1059 1393 OFFCURVE",
"774 1393 CURVE SMOOTH"
);
},
{
closed = 1;
nodes = (
"926 1273 OFFCURVE",
"1003 1116 OFFCURVE",
"1003 685 CURVE SMOOTH",
"1003 253 OFFCURVE",
"927 100 OFFCURVE",
"774 100 CURVE SMOOTH",
"610 100 OFFCURVE",
"544 255 OFFCURVE",
"544 687 CURVE SMOOTH",
"544 1118 OFFCURVE",
"608 1273 OFFCURVE",
"774 1273 CURVE SMOOTH"
);
}
);
width = 1200;
}
);
unicode = 042E;
},
{
glyphname = "Ia-cy";
lastChange = "2020-04-05 21:58:52 +0000";
layers = (
{
anchors = (
{
name = bottom;
position = "{600, 0}";
},
{
name = top;
position = "{600, 1386}";
}
);
layerId = "4B7A3BAF-EAD8-4024-9BEA-BB1DE86CFCFA";
paths = (
{
closed = 1;
nodes = (
"643 1386 LINE SMOOTH",
"268 1386 OFFCURVE",
"74 1240 OFFCURVE",
"74 947 CURVE SMOOTH",
"74 751 OFFCURVE",
"156 633 OFFCURVE",
"310 563 CURVE",
"4 0 LINE",
"357 0 LINE",
"599 501 LINE",
"768 501 LINE",
"768 0 LINE",
"1096 0 LINE",
"1096 1386 LINE"
);
},
{
closed = 1;
nodes = (
"768 725 LINE",
"655 725 LINE SMOOTH",
"502 725 OFFCURVE",
"412 780 OFFCURVE",
"412 939 CURVE SMOOTH",
"412 1082 OFFCURVE",
"493 1156 OFFCURVE",
"648 1156 CURVE SMOOTH",
"768 1156 LINE"
);
}
);
width = 1200;
},
{
anchors = (
{
name = bottom;
position = "{600, 0}";
},
{
name = top;
position = "{600, 1374}";
}
);
layerId = "B67F0F2D-EC95-4CB8-966E-23AE86958A69";
paths = (
{
closed = 1;
nodes = (
"679 1374 LINE SMOOTH",
"350 1374 OFFCURVE",
"173 1223 OFFCURVE",
"173 975 CURVE SMOOTH",
"173 816 OFFCURVE",
"252 675 OFFCURVE",
"415 602 CURVE",
"86 0 LINE",
"233 0 LINE",
"539 569 LINE",
"887 569 LINE",
"887 0 LINE",
"1014 0 LINE",
"1014 1374 LINE"
);
},
{
closed = 1;
nodes = (
"887 686 LINE",
"601 686 LINE SMOOTH",
"412 686 OFFCURVE",
"313 783 OFFCURVE",
"313 978 CURVE SMOOTH",
"313 1178 OFFCURVE",
"422 1264 OFFCURVE",
"651 1264 CURVE SMOOTH",
"887 1264 LINE"
);
}
);
width = 1200;
}
);
unicode = 042F;
},
{
glyphname = "Dje-cy";
lastChange = "2020-04-05 21:58:52 +0000";
layers = (
{
anchors = (
{
name = bottom;
position = "{600, -443}";
},
{
name = top;
position = "{600, 1386}";
}
);
layerId = "4B7A3BAF-EAD8-4024-9BEA-BB1DE86CFCFA";
paths = (
{
closed = 1;
nodes = (
"847 1152 LINE",
"881 1386 LINE",
"-16 1386 LINE",
"-16 1152 LINE",
"261 1152 LINE",
"261 0 LINE",
"568 0 LINE",
"568 640 LINE",
"606 676 OFFCURVE",
"653 705 OFFCURVE",
"720 705 CURVE SMOOTH",
"818 705 OFFCURVE",
"857 658 OFFCURVE",
"857 533 CURVE SMOOTH",
"857 204 LINE SMOOTH",
"857 35 OFFCURVE",
"825 -48 OFFCURVE",
"660 -116 CURVE",
"745 -340 LINE",
"979 -262 OFFCURVE",
"1163 -131 OFFCURVE",
"1163 198 CURVE SMOOTH",
"1163 504 LINE SMOOTH",
"1163 795 OFFCURVE",
"1039 941 OFFCURVE",
"805 941 CURVE SMOOTH",
"709 941 OFFCURVE",
"632 906 OFFCURVE",
"568 852 CURVE",
"568 1152 LINE"
);
}
);
width = 1200;
},
{
anchors = (
{
name = bottom;
position = "{600, -386}";
},
{
name = top;
position = "{600, 1374}";
}
);
layerId = "B67F0F2D-EC95-4CB8-966E-23AE86958A69";
paths = (
{
closed = 1;
nodes = (
"796 1257 LINE",
"810 1374 LINE",
"-7 1374 LINE",
"-7 1257 LINE",
"329 1257 LINE",
"329 0 LINE",
"463 0 LINE",
"463 643 LINE",
"519 693 OFFCURVE",
"602 762 OFFCURVE",
"743 762 CURVE SMOOTH",
"923 762 OFFCURVE",
"989 675 OFFCURVE",
"989 465 CURVE SMOOTH",
"989 187 LINE SMOOTH",
"989 4 OFFCURVE",
"946 -65 OFFCURVE",
"768 -136 CURVE",
"799 -250 LINE",
"1013 -178 OFFCURVE",
"1124 -74 OFFCURVE",
"1124 189 CURVE SMOOTH",
"1124 490 LINE SMOOTH",
"1124 747 OFFCURVE",
"1011 887 OFFCURVE",
"769 887 CURVE SMOOTH",
"641 887 OFFCURVE",
"539 827 OFFCURVE",
"463 759 CURVE",
"463 1257 LINE"
);
}
);
width = 1200;
}
);
unicode = 0402;
},
{
glyphname = "Omega-cy";
lastChange = "2020-04-05 21:58:52 +0000";
layers = (
{
layerId = "4B7A3BAF-EAD8-4024-9BEA-BB1DE86CFCFA";
paths = (
{
closed = 1;
nodes = (
"766 1386 LINE",
"819 1168 OFFCURVE",
"881 971 OFFCURVE",
"881 612 CURVE SMOOTH",
"881 313 OFFCURVE",
"842 210 OFFCURVE",
"783 210 CURVE SMOOTH",
"740 210 OFFCURVE",
"721 246 OFFCURVE",
"721 321 CURVE SMOOTH",
"721 798 LINE",
"477 798 LINE",
"477 320 LINE SMOOTH",
"477 244 OFFCURVE",
"452 210 OFFCURVE",
"417 210 CURVE SMOOTH",
"356 210 OFFCURVE",
"319 314 OFFCURVE",
"319 612 CURVE SMOOTH",
"319 973 OFFCURVE",
"385 1168 OFFCURVE",
"434 1386 CURVE",
"170 1386 LINE",
"97 1185 OFFCURVE",
"22 982 OFFCURVE",
"22 608 CURVE SMOOTH",
"22 165 OFFCURVE",
"175 -40 OFFCURVE",
"381 -40 CURVE SMOOTH",
"494 -40 OFFCURVE",
"560 33 OFFCURVE",
"598 151 CURVE",
"630 34 OFFCURVE",
"679 -40 OFFCURVE",
"825 -40 CURVE SMOOTH",
"1019 -40 OFFCURVE",
"1178 165 OFFCURVE",
"1178 608 CURVE SMOOTH",
"1178 982 OFFCURVE",
"1103 1185 OFFCURVE",
"1028 1386 CURVE"
);
}
);
width = 1200;
},
{
layerId = "B67F0F2D-EC95-4CB8-966E-23AE86958A69";
paths = (
{
closed = 1;
nodes = (
"885 1374 LINE",
"972 1151 OFFCURVE",
"1034 917 OFFCURVE",
"1034 595 CURVE SMOOTH",
"1034 160 OFFCURVE",
"944 94 OFFCURVE",
"840 94 CURVE SMOOTH",
"754 94 OFFCURVE",
"676 162 OFFCURVE",
"676 346 CURVE SMOOTH",
"676 795 LINE",
"528 795 LINE",
"528 343 LINE SMOOTH",
"528 154 OFFCURVE",
"458 94 OFFCURVE",
"381 94 CURVE SMOOTH",
"257 94 OFFCURVE",
"169 218 OFFCURVE",
"169 600 CURVE SMOOTH",
"169 916 OFFCURVE",
"221 1148 OFFCURVE",
"318 1374 CURVE",
"179 1374 LINE",
"136 1253 OFFCURVE",
"36 988 OFFCURVE",
"36 594 CURVE SMOOTH",
"36 120 OFFCURVE",
"209 -17 OFFCURVE",
"353 -17 CURVE SMOOTH",
"491 -17 OFFCURVE",
"560 58 OFFCURVE",
"604 196 CURVE",
"647 57 OFFCURVE",
"730 -17 OFFCURVE",
"853 -17 CURVE SMOOTH",
"1044 -17 OFFCURVE",
"1166 134 OFFCURVE",
"1166 594 CURVE SMOOTH",
"1166 988 OFFCURVE",
"1069 1253 OFFCURVE",
"1025 1374 CURVE"
);
}
);
width = 1200;
}
);
unicode = 0460;
},
{
glyphname = "Yat-cy";
lastChange = "2020-04-05 21:58:52 +0000";
layers = (
{
anchors = (
{
name = bottom;
position = "{600, 0}";
},
{
name = top;
position = "{600, 1386}";
}
);
layerId = "4B7A3BAF-EAD8-4024-9BEA-BB1DE86CFCFA";
paths = (
{
closed = 1;
nodes = (
"656 0 LINE SMOOTH",
"953 0 OFFCURVE",
"1175 151 OFFCURVE",
"1175 460 CURVE SMOOTH",
"1175 745 OFFCURVE",
"957 887 OFFCURVE",
"636 887 CURVE SMOOTH",
"547 887 LINE",
"547 654 LINE",
"624 654 LINE SMOOTH",
"756 654 OFFCURVE",
"837 588 OFFCURVE",
"837 457 CURVE SMOOTH",
"837 307 OFFCURVE",
"752 239 OFFCURVE",
"636 239 CURVE SMOOTH",
"579 239 LINE",
"579 1386 LINE",
"252 1386 LINE",
"252 0 LINE"
);
},
{
closed = 1;
nodes = (
"825 1039 LINE",
"825 1229 LINE",
"252 1229 LINE",
"20 1229 LINE",
"20 1039 LINE"
);
}
);
width = 1200;
},
{
anchors = (
{
name = bottom;
position = "{600, 0}";
},
{
name = top;
position = "{600, 1374}";
}
);
layerId = "B67F0F2D-EC95-4CB8-966E-23AE86958A69";
paths = (
{
closed = 1;
nodes = (
"583 0 LINE SMOOTH",
"902 0 OFFCURVE",
"1124 123 OFFCURVE",
"1124 437 CURVE SMOOTH",
"1124 714 OFFCURVE",
"926 848 OFFCURVE",
"622 848 CURVE SMOOTH",
"420 848 LINE",
"420 738 LINE",
"630 738 LINE SMOOTH",
"846 738 OFFCURVE",
"984 664 OFFCURVE",
"984 432 CURVE SMOOTH",
"984 175 OFFCURVE",
"828 112 OFFCURVE",
"616 112 CURVE SMOOTH",
"452 112 LINE",
"452 1374 LINE",
"325 1374 LINE",
"325 0 LINE"
);
},
{
closed = 1;
nodes = (
"777 1067 LINE",
"777 1178 LINE",
"325 1178 LINE",
"20 1178 LINE",
"20 1067 LINE"
);
}
);
width = 1200;
}
);
unicode = 0462;
},
{
glyphname = "Eiotified-cy";
lastChange = "2020-04-05 21:58:52 +0000";
layers = (
{
anchors = (
{
name = bottom;
position = "{600, 0}";
},
{
name = top;
position = "{600, 1386}";
}
);
layerId = "4B7A3BAF-EAD8-4024-9BEA-BB1DE86CFCFA";
paths = (
{
closed = 1;
nodes = (
"43 1392 LINE",
"43 0 LINE",
"353 0 LINE",
"353 585 LINE",
"552 585 LINE",
"552 827 LINE",
"353 827 LINE",
"353 1392 LINE"
);
},
{
closed = 1;
nodes = (
"1126 229 LINE",
"1077 205 OFFCURVE",
"1025 194 OFFCURVE",
"970 194 CURVE SMOOTH",
"819 194 OFFCURVE",
"759 321 OFFCURVE",
"757 593 CURVE",
"1071 593 LINE",
"1071 825 LINE",
"757 825 LINE",
"764 1079 OFFCURVE",
"831 1198 OFFCURVE",
"974 1198 CURVE SMOOTH",
"1015 1198 OFFCURVE",
"1067 1187 OFFCURVE",
"1113 1165 CURVE",
"1213 1357 LINE",
"1143 1399 OFFCURVE",
"1067 1421 OFFCURVE",
"970 1421 CURVE SMOOTH",
"621 1421 OFFCURVE",
"443 1160 OFFCURVE",
"443 696 CURVE SMOOTH",
"443 220 OFFCURVE",
"604 -34 OFFCURVE",
"945 -34 CURVE SMOOTH",
"1048 -34 OFFCURVE",
"1139 -7 OFFCURVE",
"1215 39 CURVE"
);
}
);
width = 1200;
},
{
anchors = (
{
name = bottom;
position = "{600, 0}";
},
{
name = top;
position = "{600, 1374}";
}
);
layerId = "B67F0F2D-EC95-4CB8-966E-23AE86958A69";
paths = (
{
closed = 1;
nodes = (
"91 1372 LINE",
"91 0 LINE",
"226 0 LINE",
"226 650 LINE",
"456 650 LINE",
"456 773 LINE",
"226 773 LINE",
"226 1372 LINE"
);
},
{
closed = 1;
nodes = (
"1103 178 LINE",
"1049 145 OFFCURVE",
"991 104 OFFCURVE",
"877 104 CURVE SMOOTH",
"684 104 OFFCURVE",
"539 259 OFFCURVE",
"517 647 CURVE",
"1023 647 LINE",
"1023 768 LINE",
"523 768 LINE",
"558 1147 OFFCURVE",
"701 1274 OFFCURVE",
"887 1274 CURVE SMOOTH",
"979 1274 OFFCURVE",
"1022 1255 OFFCURVE",
"1085 1216 CURVE",
"1165 1306 LINE",
"1086 1363 OFFCURVE",
"1019 1393 OFFCURVE",
"883 1393 CURVE SMOOTH",
"593 1393 OFFCURVE",
"381 1151 OFFCURVE",
"381 687 CURVE SMOOTH",
"381 229 OFFCURVE",
"584 -20 OFFCURVE",
"877 -20 CURVE SMOOTH",
"1034 -20 OFFCURVE",
"1111 27 OFFCURVE",
"1181 84 CURVE"
);
}
);
width = 1200;
}
);
unicode = 0464;
},
{
glyphname = "Yuslittle-cy";
lastChange = "2020-04-05 21:58:52 +0000";
layers = (
{
anchors = (
{
name = bottom;
position = "{600, 0}";
},
{
name = top;
position = "{600, 1386}";
}
);
layerId = "4B7A3BAF-EAD8-4024-9BEA-BB1DE86CFCFA";
paths = (
{
closed = 1;
nodes = (
"282 0 LINE",
"596 1208 LINE",
"912 0 LINE",
"1224 0 LINE",
"800 1386 LINE",
"402 1386 LINE",
"-22 0 LINE"
);
},
{
closed = 1;
nodes = (
"721 -2 LINE",
"721 523 LINE",
"481 523 LINE",
"481 -2 LINE"
);
},
{
closed = 1;
nodes = (
"799 488 LINE",
"741 714 LINE",
"457 714 LINE",
"399 488 LINE"
);
}
);
width = 1200;
},
{
anchors = (
{
name = bottom;
position = "{600, 0}";
},
{
name = top;
position = "{600, 1374}";
}
);
layerId = "B67F0F2D-EC95-4CB8-966E-23AE86958A69";
paths = (
{
closed = 1;
nodes = (
"200 0 LINE",
"596 1228 LINE",
"991 0 LINE",
"1140 0 LINE",
"684 1374 LINE",
"515 1374 LINE",
"60 0 LINE"
);
},
{
closed = 1;
nodes = (
"664 1 LINE",
"664 653 LINE",
"523 653 LINE",
"523 1 LINE"
);
},
{
closed = 1;
nodes = (
"929 607 LINE",
"888 731 LINE",
"304 731 LINE",
"264 607 LINE"
);
}
);
width = 1200;
}
);
unicode = 0466;
},
{
glyphname = "Yuslittleiotified-cy";
lastChange = "2020-04-05 21:58:52 +0000";
layers = (
{
anchors = (
{
name = bottom;
position = "{600, 0}";
},
{
name = top;
position = "{600, 1386}";
}
);
layerId = "4B7A3BAF-EAD8-4024-9BEA-BB1DE86CFCFA";
paths = (
{
closed = 1;
nodes = (
"659 714 LINE",
"254 714 LINE",
"254 1386 LINE",
"2 1386 LINE",
"2 -4 LINE",
"254 -4 LINE",
"254 527 LINE",
"608 527 LINE"
);
},
{
closed = 1;
nodes = (
"529 0 LINE",
"762 1238 LINE",
"997 0 LINE",
"1251 0 LINE",
"965 1386 LINE",
"568 1386 LINE",
"283 0 LINE"
);
},
{
closed = 1;
nodes = (
"863 -2 LINE",
"863 548 LINE",
"662 548 LINE",
"662 -2 LINE"
);
},
{
closed = 1;
nodes = (
"964 527 LINE",
"907 714 LINE",
"623 714 LINE",
"565 527 LINE"
);
}
);
width = 1200;
},
{
anchors = (
{
name = bottom;
position = "{600, 0}";
},
{
name = top;
position = "{600, 1374}";
}
);
layerId = "B67F0F2D-EC95-4CB8-966E-23AE86958A69";
paths = (
{
closed = 1;
nodes = (
"402 723 LINE",
"242 723 LINE",
"242 1374 LINE",
"95 1374 LINE",
"95 2 LINE",
"242 2 LINE",
"242 598 LINE",
"425 598 LINE"
);
},
{
closed = 1;
nodes = (
"464 0 LINE",
"750 1244 LINE",
"1036 0 LINE",
"1183 0 LINE",
"838 1374 LINE",
"670 1374 LINE",
"325 0 LINE"
);
},
{
closed = 1;
nodes = (
"815 1 LINE",
"815 641 LINE",
"685 641 LINE",
"685 1 LINE"
);
},
{
closed = 1;
nodes = (
"1083 598 LINE",
"1042 723 LINE",
"459 723 LINE",
"418 598 LINE"
);
}
);
width = 1200;
}
);
unicode = 0468;
},
{
glyphname = "Yusbig-cy";
lastChange = "2020-04-05 21:58:52 +0000";
layers = (
{
anchors = (
{
name = bottom;
position = "{600, 0}";
},
{
name = top;
position = "{600, 1386}";
}
);
layerId = "4B7A3BAF-EAD8-4024-9BEA-BB1DE86CFCFA";
paths = (
{
closed = 1;
nodes = (
"265 0 LINE",
"416 620 LINE",
"475 620 LINE",
"475 0 LINE",
"725 0 LINE",
"725 620 LINE",
"781 620 LINE",
"931 0 LINE",
"1194 0 LINE",
"963 803 LINE",
"230 803 LINE",
"6 0 LINE"
);
},
{
closed = 1;
nodes = (
"743 660 LINE",
"1051 1207 LINE",
"1051 1386 LINE",
"881 1386 LINE",
"598 803 LINE",
"302 1386 LINE",
"133 1386 LINE",
"133 1207 LINE",
"449 658 LINE"
);
},
{
closed = 1;
nodes = (
"986 1201 LINE",
"986 1386 LINE",
"295 1386 LINE",
"248 1201 LINE"
);
}
);
width = 1200;
},
{
anchors = (
{
name = bottom;
position = "{600, 0}";
},
{
name = top;
position = "{600, 1374}";
}
);
layerId = "B67F0F2D-EC95-4CB8-966E-23AE86958A69";
paths = (
{
closed = 1;
nodes = (
"229 0 LINE",
"399 623 LINE",
"529 623 LINE",
"529 0 LINE",
"674 0 LINE",
"674 623 LINE",
"806 623 LINE",
"973 0 LINE",
"1104 0 LINE",
"903 743 LINE",
"320 743 LINE",
"96 0 LINE"
);
},
{
closed = 1;
nodes = (
"686 646 LINE",
"1017 1278 LINE",
"1017 1374 LINE",
"923 1374 LINE",
"610 743 LINE",
"305 1374 LINE",
"201 1374 LINE",
"201 1278 LINE",
"514 646 LINE"
);
},
{
closed = 1;
nodes = (
"974 1266 LINE",
"974 1374 LINE",
"230 1374 LINE",
"251 1266 LINE"
);
}
);
width = 1200;
}
);
unicode = 046A;
},
{
glyphname = "Yusbigiotified-cy";
lastChange = "2020-04-05 21:58:52 +0000";
layers = (
{
anchors = (
{
name = bottom;
position = "{600, 0}";
},
{
name = top;
position = "{600, 1386}";
}
);
layerId = "4B7A3BAF-EAD8-4024-9BEA-BB1DE86CFCFA";
paths = (
{
closed = 1;
nodes = (
"263 -4 LINE",
"263 620 LINE",
"470 620 LINE",
"520 803 LINE",
"263 803 LINE",
"263 1386 LINE",
"11 1386 LINE",
"11 -4 LINE"
);
},
{
closed = 1;
nodes = (
"553 0 LINE",
"605 620 LINE",
"656 620 LINE",
"656 0 LINE",
"879 0 LINE",
"879 620 LINE",
"930 620 LINE",
"983 0 LINE",
"1227 0 LINE",
"1112 803 LINE",
"420 803 LINE",
"313 0 LINE"
);
},
{
closed = 1;
nodes = (
"914 660 LINE",
"1148 1211 LINE",
"1148 1386 LINE",
"985 1386 LINE",
"768 803 LINE",
"539 1386 LINE",
"376 1386 LINE",
"376 1211 LINE",
"617 658 LINE"
);
},
{
closed = 1;
nodes = (
"1077 1211 LINE",
"1077 1386 LINE",
"532 1386 LINE",
"497 1211 LINE"
);
}
);
width = 1200;
},
{
anchors = (
{
name = bottom;
position = "{600, 0}";
},
{
name = top;
position = "{600, 1374}";
}
);
layerId = "B67F0F2D-EC95-4CB8-966E-23AE86958A69";
paths = (
{
closed = 1;
nodes = (
"192 2 LINE",
"192 623 LINE",
"848 623 LINE",
"825 743 LINE",
"192 743 LINE",
"192 1374 LINE",
"45 1374 LINE",
"45 2 LINE"
);
},
{
closed = 1;
nodes = (
"389 0 LINE",
"574 623 LINE",
"679 623 LINE",
"679 0 LINE",
"837 0 LINE",
"837 623 LINE",
"942 623 LINE",
"1124 0 LINE",
"1263 0 LINE",
"1039 743 LINE",
"496 743 LINE",
"248 0 LINE"
);
},
{
closed = 1;
nodes = (
"841 646 LINE",
"1148 1276 LINE",
"1148 1374 LINE",
"1050 1374 LINE",
"765 743 LINE",
"488 1374 LINE",
"382 1374 LINE",
"382 1276 LINE",
"671 646 LINE"
);
},
{
closed = 1;
nodes = (
"1108 1262 LINE",
"1108 1374 LINE",
"413 1374 LINE",
"429 1262 LINE"
);
}
);
width = 1200;
}
);
unicode = 046C;
},
{
glyphname = "Izhitsa-cy";
lastChange = "2020-04-05 21:58:52 +0000";
layers = (
{
anchors = (
{
name = bottom;
position = "{600, 0}";
},
{
name = top;
position = "{596, 1386}";
}
);
layerId = "4B7A3BAF-EAD8-4024-9BEA-BB1DE86CFCFA";
paths = (
{
closed = 1;
nodes = (
"1196 1409 LINE",
"1169 1417 OFFCURVE",
"1121 1425 OFFCURVE",
"1063 1425 CURVE SMOOTH",
"889 1425 OFFCURVE",
"786 1352 OFFCURVE",
"746 1145 CURVE SMOOTH",
"576 251 LINE",
"367 1386 LINE",
"19 1386 LINE",
"367 0 LINE",
"775 0 LINE",
"1061 1129 LINE SMOOTH",
"1072 1170 OFFCURVE",
"1090 1184 OFFCURVE",
"1122 1184 CURVE SMOOTH",
"1135 1184 OFFCURVE",
"1145 1182 OFFCURVE",
"1153 1180 CURVE"
);
}
);
width = 1200;
},
{
anchors = (
{
name = bottom;
position = "{600, 0}";
},
{
name = top;
position = "{573, 1374}";
}
);
layerId = "B67F0F2D-EC95-4CB8-966E-23AE86958A69";
paths = (
{
closed = 1;
nodes = (
"1184 1349 LINE",
"1138 1375 OFFCURVE",
"1096 1391 OFFCURVE",
"1038 1391 CURVE SMOOTH",
"928 1391 OFFCURVE",
"868 1329 OFFCURVE",
"828 1193 CURVE SMOOTH",
"553 186 LINE",
"206 1374 LINE",
"67 1374 LINE",
"494 0 LINE",
"619 0 LINE",
"934 1165 LINE SMOOTH",
"959 1252 OFFCURVE",
"988 1292 OFFCURVE",
"1046 1292 CURVE SMOOTH",
"1075 1292 OFFCURVE",
"1097 1284 OFFCURVE",
"1125 1273 CURVE"
);
}
);
width = 1200;
}
);
unicode = 0474;
},
{
glyphname = "Uk-cy";
lastChange = "2020-04-05 21:58:52 +0000";
layers = (
{
layerId = "4B7A3BAF-EAD8-4024-9BEA-BB1DE86CFCFA";
paths = (
{
closed = 1;
nodes = (
"533 -34 OFFCURVE",
"626 254 OFFCURVE",
"626 694 CURVE SMOOTH",
"626 1144 OFFCURVE",
"533 1421 OFFCURVE",
"305 1421 CURVE SMOOTH",
"90 1421 OFFCURVE",
"-19 1134 OFFCURVE",
"-19 694 CURVE SMOOTH",
"-19 244 OFFCURVE",
"90 -34 OFFCURVE",
"305 -34 CURVE SMOOTH"
);
},
{
closed = 1;
nodes = (
"234 166 OFFCURVE",
"201 313 OFFCURVE",
"201 694 CURVE SMOOTH",
"201 1074 OFFCURVE",
"231 1221 OFFCURVE",
"305 1221 CURVE SMOOTH",
"376 1221 OFFCURVE",
"408 1074 OFFCURVE",
"408 694 CURVE SMOOTH",
"408 317 OFFCURVE",
"378 166 OFFCURVE",
"305 166 CURVE SMOOTH"
);
},
{
closed = 1;
nodes = (
"847 -407 OFFCURVE",
"996 -295 OFFCURVE",
"1038 0 CURVE SMOOTH",
"1190 1062 LINE",
"997 1062 LINE",
"906 202 LINE",
"825 1062 LINE",
"627 1062 LINE",
"767 0 LINE",
"867 0 LINE",
"839 -176 OFFCURVE",
"771 -248 OFFCURVE",
"647 -300 CURVE",
"692 -445 LINE"
);
}
);
width = 1200;
},
{
layerId = "B67F0F2D-EC95-4CB8-966E-23AE86958A69";
paths = (
{
closed = 1;
nodes = (
"564 -20 OFFCURVE",
"643 231 OFFCURVE",
"643 685 CURVE SMOOTH",
"643 1132 OFFCURVE",
"564 1393 OFFCURVE",
"336 1393 CURVE SMOOTH",
"102 1393 OFFCURVE",
"29 1122 OFFCURVE",
"29 682 CURVE SMOOTH",
"29 235 OFFCURVE",
"102 -20 OFFCURVE",
"336 -20 CURVE SMOOTH"
);
},
{
closed = 1;
nodes = (
"211 93 OFFCURVE",
"173 274 OFFCURVE",
"173 682 CURVE SMOOTH",
"173 1091 OFFCURVE",
"203 1281 OFFCURVE",
"336 1281 CURVE SMOOTH",
"469 1281 OFFCURVE",
"498 1094 OFFCURVE",
"498 685 CURVE SMOOTH",
"498 275 OFFCURVE",
"468 93 OFFCURVE",
"336 93 CURVE SMOOTH"
);
},
{
closed = 1;
nodes = (
"881 -362 OFFCURVE",
"982 -233 OFFCURVE",
"1018 -9 CURVE SMOOTH",
"1187 1050 LINE",
"1045 1050 LINE",
"926 106 LINE",
"791 1050 LINE",
"655 1050 LINE",
"829 0 LINE",
"892 0 LINE",
"864 -182 OFFCURVE",
"796 -265 OFFCURVE",
"683 -294 CURVE",
"701 -417 LINE"
);
}
);
width = 1200;
}
);
unicode = 0478;
},
{
glyphname = "Ghestroke-cy";
lastChange = "2020-04-05 21:58:52 +0000";
layers = (
{
components = (
{
alignment = -1;
locked = 1;
name = "Ge-cy";
transform = "{1, 0, 0, 1, 50, 0}";
}
);
layerId = "4B7A3BAF-EAD8-4024-9BEA-BB1DE86CFCFA";
paths = (
{
closed = 1;
nodes = (
"231 866 LINE",
"76 866 LINE",
"76 670 LINE",
"559 670 LINE",
"843 670 LINE",
"843 866 LINE"
);
}
);
width = 1200;
},
{
components = (
{
alignment = -1;
locked = 1;
name = "Ge-cy";
transform = "{1, 0, 0, 1, 64, 0}";
}
);
layerId = "B67F0F2D-EC95-4CB8-966E-23AE86958A69";
paths = (
{
closed = 1;
nodes = (
"363 866 LINE",
"149 866 LINE",
"149 752 LINE",
"491 752 LINE",
"815 752 LINE",
"815 866 LINE"
);
}
);
width = 1200;
}
);
unicode = 0492;
},
{
glyphname = "Ghemiddlehook-cy";
lastChange = "2020-04-05 21:58:52 +0000";
layers = (
{
anchors = (
{
name = bottom;
position = "{600, -443}";
},
{
name = top;
position = "{600, 1386}";
}
);
components = (
{
alignment = -1;
name = "Shha-cy";
transform = "{1, 0, 0, 1, -19, 0}";
},
{
alignment = -1;
name = hookHELPER.case;
transform = "{1, 0, 0, 1, 341, 0}";
}
);
layerId = "4B7A3BAF-EAD8-4024-9BEA-BB1DE86CFCFA";
paths = (
{
closed = 1;
nodes = (
"87 1386 LINE",
"412 1137 LINE",
"932 1137 LINE",
"971 1386 LINE"
);
}
);
width = 1200;
},
{
anchors = (
{
name = bottom;
position = "{600, -386}";
},
{
name = top;
position = "{600, 1374}";
}
);
components = (
{
alignment = -1;
name = "Shha-cy";
transform = "{1, 0, 0, 1, 9, 0}";
},
{
alignment = -1;
name = hookHELPER.case;
transform = "{1, 0, 0, 1, 587, 0}";
}
);
layerId = "B67F0F2D-EC95-4CB8-966E-23AE86958A69";
paths = (
{
closed = 1;
nodes = (
"240 1374 LINE",
"322 1261 LINE",
"912 1261 LINE",
"929 1374 LINE"
);
}
);
width = 1200;
}
);
unicode = 0494;
},
{
glyphname = "Kaverticalstroke-cy";
lastChange = "2020-04-05 21:58:52 +0000";
layers = (
{
anchors = (
{
name = bottom;
position = "{600, 0}";
},
{
name = top;
position = "{600, 1386}";
}
);
layerId = "4B7A3BAF-EAD8-4024-9BEA-BB1DE86CFCFA";
paths = (
{
closed = 1;
nodes = (
"582 294 LINE",
"582 619 LINE",
"620 619 LINE",
"863 0 LINE",
"1207 0 LINE",
"857 757 LINE",
"1169 1386 LINE",
"855 1386 LINE",
"614 825 LINE",
"582 825 LINE",
"582 1146 LINE",
"472 1146 LINE",
"472 825 LINE",
"401 825 LINE",
"401 1386 LINE",
"104 1386 LINE",
"104 0 LINE",
"401 0 LINE",
"401 619 LINE",
"472 619 LINE",
"472 294 LINE"
);
}
);
width = 1200;
},
{
anchors = (
{
name = bottom;
position = "{600, 0}";
},
{
name = top;
position = "{600, 1374}";
}
);
layerId = "B67F0F2D-EC95-4CB8-966E-23AE86958A69";
paths = (
{
closed = 1;
nodes = (
"559 303 LINE",
"559 661 LINE",
"614 661 LINE",
"1016 0 LINE",
"1165 0 LINE",
"722 721 LINE",
"1127 1374 LINE",
"985 1374 LINE",
"617 789 LINE",
"559 789 LINE",
"559 1137 LINE",
"452 1137 LINE",
"452 789 LINE",
"347 789 LINE",
"347 1374 LINE",
"214 1374 LINE",
"214 0 LINE",
"347 0 LINE",
"347 661 LINE",
"452 661 LINE",
"452 303 LINE"
);
}
);
width = 1200;
}
);
unicode = 049C;
},
{
glyphname = "Kastroke-cy";
lastChange = "2020-04-05 21:58:52 +0000";
layers = (
{
layerId = "4B7A3BAF-EAD8-4024-9BEA-BB1DE86CFCFA";
paths = (
{
closed = 1;
nodes = (
"630 1067 LINE",
"630 1258 LINE",
"134 1258 LINE",
"19 1258 LINE",
"19 1067 LINE"
);
},
{
closed = 1;
nodes = (
"849 0 LINE",
"1207 0 LINE",
"856 757 LINE",
"1169 1386 LINE",
"850 1386 LINE",
"583 841 LINE",
"462 841 LINE",
"462 1386 LINE",
"134 1386 LINE",
"134 0 LINE",
"462 0 LINE",
"462 603 LINE",
"587 603 LINE"
);
}
);
width = 1200;
},
{
layerId = "B67F0F2D-EC95-4CB8-966E-23AE86958A69";
paths = (
{
closed = 1;
nodes = (
"624 1051 LINE",
"624 1165 LINE",
"253 1165 LINE",
"90 1165 LINE",
"90 1051 LINE"
);
},
{
closed = 1;
nodes = (
"990 0 LINE",
"1156 0 LINE",
"661 721 LINE",
"1118 1374 LINE",
"969 1374 LINE",
"552 784 LINE",
"378 784 LINE",
"378 1374 LINE",
"250 1374 LINE",
"250 0 LINE",
"378 0 LINE",
"378 665 LINE",
"548 665 LINE"
);
}
);
width = 1200;
}
);
unicode = 049E;
},
{
glyphname = "Kabashkir-cy";
lastChange = "2020-04-05 21:58:52 +0000";
layers = (
{
layerId = "4B7A3BAF-EAD8-4024-9BEA-BB1DE86CFCFA";
paths = (
{
closed = 1;
nodes = (
"863 0 LINE",
"1210 0 LINE",
"860 757 LINE",
"1174 1386 LINE",
"863 1386 LINE",
"603 835 LINE",
"493 835 LINE",
"493 1386 LINE",
"1 1386 LINE",
"1 1146 LINE",
"188 1146 LINE",
"188 0 LINE",
"493 0 LINE",
"493 609 LINE",
"607 609 LINE"
);
}
);
width = 1200;
},
{
layerId = "B67F0F2D-EC95-4CB8-966E-23AE86958A69";
paths = (
{
closed = 1;
nodes = (
"1024 0 LINE",
"1196 0 LINE",
"691 721 LINE",
"1157 1374 LINE",
"1004 1374 LINE",
"575 787 LINE",
"425 787 LINE",
"425 1374 LINE",
"29 1374 LINE",
"29 1248 LINE",
"287 1248 LINE",
"287 0 LINE",
"425 0 LINE",
"425 663 LINE",
"571 663 LINE"
);
}
);
width = 1200;
}
);
unicode = 04A0;
},
{
glyphname = "Enghe-cy";
lastChange = "2020-04-05 21:58:52 +0000";
layers = (
{
layerId = "4B7A3BAF-EAD8-4024-9BEA-BB1DE86CFCFA";
paths = (
{
closed = 1;
nodes = (
"959 1129 LINE",
"1198 1129 LINE",
"1237 1386 LINE",
"634 1386 LINE"
);
},
{
closed = 1;
nodes = (
"959 0 LINE",
"959 1386 LINE",
"631 1386 LINE",
"631 858 LINE",
"394 858 LINE",
"394 1386 LINE",
"66 1386 LINE",
"66 0 LINE",
"394 0 LINE",
"394 580 LINE",
"631 580 LINE",
"631 0 LINE"
);
}
);
width = 1200;
},
{
layerId = "B67F0F2D-EC95-4CB8-966E-23AE86958A69";
paths = (
{
closed = 1;
nodes = (
"911 1264 LINE",
"1189 1264 LINE",
"1201 1374 LINE",
"899 1374 LINE"
);
},
{
closed = 1;
nodes = (
"914 0 LINE",
"914 1374 LINE",
"787 1374 LINE",
"787 776 LINE",
"284 776 LINE",
"284 1374 LINE",
"156 1374 LINE",
"156 0 LINE",
"284 0 LINE",
"284 676 LINE",
"787 676 LINE",
"787 0 LINE"
);
}
);
width = 1200;
}
);
unicode = 04A4;
},
{
glyphname = "Pemiddlehook-cy";
lastChange = "2020-04-05 21:58:52 +0000";
layers = (
{
anchors = (
{
name = bottom;
position = "{600, -443}";
},
{
name = top;
position = "{600, 1386}";
}
);
layerId = "4B7A3BAF-EAD8-4024-9BEA-BB1DE86CFCFA";
paths = (
{
closed = 1;
nodes = (
"741 0 LINE",
"741 1386 LINE",
"46 1386 LINE",
"46 0 LINE",
"316 0 LINE",
"316 1167 LINE",
"471 1167 LINE",
"471 0 LINE"
);
},
{
closed = 1;
nodes = (
"791 921 OFFCURVE",
"717 846 OFFCURVE",
"669 773 CURVE",
"688 612 LINE",
"724 659 OFFCURVE",
"763 703 OFFCURVE",
"821 703 CURVE SMOOTH",
"870 703 OFFCURVE",
"897 667 OFFCURVE",
"897 602 CURVE SMOOTH",
"897 0 LINE",
"1167 0 LINE",
"1167 623 LINE SMOOTH",
"1167 799 OFFCURVE",
"1074 921 OFFCURVE",
"917 921 CURVE SMOOTH"
);
},
{
closed = 1;
nodes = (
"1027 -453 OFFCURVE",
"1167 -314 OFFCURVE",
"1167 -91 CURVE SMOOTH",
"1167 2 LINE",
"897 2 LINE",
"897 -111 LINE SMOOTH",
"897 -209 OFFCURVE",
"859 -245 OFFCURVE",
"793 -245 CURVE SMOOTH",
"738 -245 OFFCURVE",
"698 -225 OFFCURVE",
"664 -203 CURVE",
"553 -364 LINE",
"623 -415 OFFCURVE",
"700 -453 OFFCURVE",
"824 -453 CURVE SMOOTH"
);
}
);
width = 1200;
},
{
anchors = (
{
name = bottom;
position = "{600, -386}";
},
{
name = top;
position = "{600, 1374}";
}
);
layerId = "B67F0F2D-EC95-4CB8-966E-23AE86958A69";
paths = (
{
closed = 1;
nodes = (
"681 0 LINE",
"681 1374 LINE",
"58 1374 LINE",
"58 0 LINE",
"203 0 LINE",
"203 1238 LINE",
"536 1238 LINE",
"536 0 LINE"
);
},
{
closed = 1;
nodes = (
"766 896 OFFCURVE",
"686 834 OFFCURVE",
"609 725 CURVE",
"595 589 LINE",
"704 716 OFFCURVE",
"788 763 OFFCURVE",
"886 763 CURVE SMOOTH",
"986 763 OFFCURVE",
"1047 709 OFFCURVE",
"1047 588 CURVE SMOOTH",
"1047 0 LINE",
"1192 0 LINE",
"1192 578 LINE SMOOTH",
"1192 771 OFFCURVE",
"1077 896 OFFCURVE",
"892 896 CURVE SMOOTH"
);
},
{
closed = 1;
nodes = (
"1072 -414 OFFCURVE",
"1192 -323 OFFCURVE",
"1192 -125 CURVE SMOOTH",
"1192 2 LINE",
"1047 2 LINE",
"1047 -136 LINE SMOOTH",
"1047 -240 OFFCURVE",
"1000 -290 OFFCURVE",
"917 -290 CURVE SMOOTH",
"846 -290 OFFCURVE",
"811 -273 OFFCURVE",
"760 -242 CURVE",
"706 -344 LINE",
"747 -376 OFFCURVE",
"819 -414 OFFCURVE",
"917 -414 CURVE SMOOTH"
);
}
);
width = 1200;
}
);
unicode = 04A6;
},
